<svg width="48" height="48" viewBox="0 0 48 48" fill="none" xmlns="http://www.w3.org/2000/svg">
    <path d="M41.1403 6.38477C40.5127 6.38477 40.0039 6.89355 40.0039 7.5212C40.0039 8.14886 40.5127 8.65764 41.1403 8.65764C41.768 8.65764 42.2768 8.14886 42.2768 7.5212C42.2768 6.89355 41.768 6.38477 41.1403 6.38477Z" fill="#7D97F4" />
    <path d="M37.2584 8.65764C37.886 8.65764 38.3948 8.14884 38.3948 7.5212C38.3948 6.89357 37.886 6.38477 37.2584 6.38477C36.6308 6.38477 36.1219 6.89357 36.1219 7.5212C36.1219 8.14884 36.6308 8.65764 37.2584 8.65764Z" fill="#7D97F4" />
    <path d="M33.3757 8.65764C34.0033 8.65764 34.5121 8.14884 34.5121 7.5212C34.5121 6.89357 34.0033 6.38477 33.3757 6.38477C32.7481 6.38477 32.2393 6.89357 32.2393 7.5212C32.2393 8.14884 32.7481 8.65764 33.3757 8.65764Z" fill="#7D97F4" />
    <path d="M48 5.5327C48 4.10067 46.8349 2.93555 45.4028 2.93555H2.59716C1.16512 2.93545 0 4.10058 0 5.5327V36.3429C0 36.7312 0.314719 37.046 0.703125 37.046C1.09153 37.046 1.40625 36.7312 1.40625 36.3429V12.1076H46.5938V15.8248C46.5938 16.2131 46.9085 16.5279 47.2969 16.5279C47.6853 16.5279 48 16.2131 48 15.8248V5.5327ZM1.40625 10.7012V5.5327C1.40625 4.87608 1.94044 4.3418 2.59716 4.3418H45.4028C46.0596 4.3418 46.5938 4.87608 46.5938 5.5327V10.7013H1.40625V10.7012Z" fill="#E54799" />
    <path d="M47.2969 18.4023C46.9085 18.4023 46.5938 18.7172 46.5938 19.1055V42.4661C46.5938 43.1226 46.0597 43.6567 45.4031 43.6567H2.59688C1.94034 43.6567 1.40625 43.1226 1.40625 42.4661V39.6236C1.40625 39.2353 1.09153 38.9205 0.703125 38.9205C0.314719 38.9205 0 39.2353 0 39.6236V42.4661C0 43.898 1.16494 45.063 2.59688 45.063H45.4031C46.8351 45.063 48 43.898 48 42.4661V19.1055C48 18.7172 47.6853 18.4023 47.2969 18.4023V18.4023Z" fill="#E54799" />
    <path d="M24.5997 23.8314H15.9531C15.5647 23.8314 15.25 24.1462 15.25 24.5345V37.982C15.25 38.3704 15.5647 38.6852 15.9531 38.6852H40.1969C40.5853 38.6852 40.9 38.3704 40.9 37.982V29.7323C43.3055 29.3896 45.1614 27.317 45.1614 24.8183C45.1614 22.0807 42.9342 19.8535 40.1967 19.8535C37.797 19.8535 35.7897 21.565 35.3307 23.8313H27.8809C27.4925 23.8313 27.1778 24.1461 27.1778 24.5345C27.1778 24.9228 27.4925 25.2376 27.8809 25.2376H35.2509C35.4451 27.5458 37.2241 29.4091 39.4937 29.7323V37.2788H16.6562V25.2376H24.5997C24.9881 25.2376 25.3028 24.9228 25.3028 24.5345C25.3028 24.1461 24.9881 23.8314 24.5997 23.8314V23.8314ZM36.6381 24.8184C36.6381 22.8562 38.2345 21.2599 40.1967 21.2599C42.1589 21.2599 43.7552 22.8562 43.7552 24.8184C43.7552 26.7787 42.1619 28.3737 40.2022 28.3768C40.2004 28.3768 40.1987 28.3765 40.1969 28.3765C40.195 28.3765 40.1932 28.3768 40.1913 28.3768C38.2317 28.3738 36.6381 26.7787 36.6381 24.8184V24.8184Z" fill="#7D97F4" />
    <path d="M22.6 27.6704C22.4661 27.345 22.1525 27.1348 21.8006 27.1348C21.8004 27.1348 21.8002 27.1348 21.7999 27.1348C21.4478 27.135 21.134 27.3457 21.0007 27.6717C20.9985 27.677 20.9963 27.6825 20.9943 27.6878L18.3232 34.7012C18.1849 35.0641 18.3671 35.4704 18.73 35.6085C18.8124 35.64 18.8969 35.6548 18.9802 35.6548C19.2634 35.6548 19.5305 35.4823 19.6374 35.2017L20.1301 33.9078H23.4513L23.9388 35.1997C24.0759 35.563 24.4817 35.7465 24.8449 35.6093C25.2082 35.4721 25.3916 35.0665 25.2544 34.7032L22.6076 27.6895C22.6051 27.683 22.6026 27.6766 22.6 27.6704V27.6704ZM20.6656 32.5016L21.7982 29.5278L22.9205 32.5016H20.6656Z" fill="#E54799" />
    <path d="M35.8248 34.236C35.4231 34.236 35.0379 34.0757 34.7945 33.807C34.5338 33.5193 34.0891 33.4974 33.8013 33.7581C33.5136 34.0189 33.4916 34.4635 33.7524 34.7513C34.2655 35.3176 35.0208 35.6422 35.8248 35.6422C36.8342 35.6422 37.6827 34.9927 37.8425 34.0978C37.9638 33.4186 37.6629 32.5341 36.4547 32.0885C35.9338 31.8964 35.4472 31.6877 35.2716 31.6111C35.2258 31.5661 35.2219 31.5096 35.2279 31.4673C35.2433 31.36 35.3349 31.2737 35.4791 31.2302C36.0276 31.0651 36.5511 31.4721 36.5696 31.4869C36.8669 31.7324 37.3071 31.6927 37.5556 31.3971C37.8054 31.0998 37.767 30.6562 37.4698 30.4064C37.0649 30.0662 36.1046 29.5731 35.0736 29.8836C34.4036 30.0854 33.9295 30.6157 33.836 31.2674C33.7477 31.8825 34.0144 32.4742 34.5322 32.8118C34.5633 32.8321 34.5959 32.8498 34.6298 32.8649C34.6556 32.8765 35.2731 33.1513 35.968 33.4077C36.2262 33.503 36.4905 33.6693 36.4583 33.8505C36.4304 34.006 36.2099 34.236 35.8248 34.236V34.236Z" fill="#E54799" />
    <path d="M30.7274 35.1793C30.8256 35.4492 31.0836 35.6423 31.3876 35.6423C31.776 35.6423 32.0907 35.3275 32.0907 34.9391V28.252C32.0907 27.8636 31.776 27.5488 31.3876 27.5488C30.9992 27.5488 30.6845 27.8636 30.6845 28.252V30.1868C30.2362 29.9109 29.7091 29.7514 29.1453 29.7514C27.5211 29.7514 26.1998 31.0727 26.1998 32.6967C26.1998 34.3208 27.5211 35.6422 29.1453 35.6422C29.7274 35.6423 30.2701 35.4718 30.7274 35.1793V35.1793ZM27.6061 32.6968C27.6061 31.8481 28.2965 31.1577 29.1453 31.1577C29.994 31.1577 30.6845 31.8482 30.6845 32.6968C30.6845 33.5455 29.994 34.236 29.1453 34.236C28.2965 34.236 27.6061 33.5455 27.6061 32.6968V32.6968Z" fill="#E54799" />
    <path d="M40.1942 25.8123L40.5676 26.1856C40.7049 26.323 40.8848 26.3916 41.0648 26.3916C41.2447 26.3916 41.4247 26.323 41.562 26.1856C41.8366 25.911 41.8366 25.4659 41.5621 25.1913L41.1886 24.8179L41.5621 24.4445C41.8366 24.1699 41.8366 23.7247 41.562 23.4501C41.2875 23.1755 40.8422 23.1756 40.5676 23.4501L40.1943 23.8234L39.821 23.4501C39.5463 23.1755 39.1012 23.1755 38.8266 23.4501C38.552 23.7247 38.552 24.1699 38.8266 24.4444L39.2 24.8178L38.8267 25.1911C38.552 25.4657 38.552 25.9108 38.8266 26.1854C38.964 26.3228 39.1439 26.3914 39.3239 26.3914C39.5038 26.3914 39.6838 26.3228 39.821 26.1854L40.1942 25.8123Z" fill="#E54799" />
    <path d="M3.03052 20.3867C3.03052 20.775 3.34524 21.0898 3.73364 21.0898H28.3564C28.7448 21.0898 29.0595 20.775 29.0595 20.3867C29.0595 19.9984 28.7448 19.6836 28.3564 19.6836H3.73364C3.34533 19.6836 3.03052 19.9984 3.03052 20.3867V20.3867Z" fill="#E54799" />
    <path d="M10.3633 16.6523C9.97488 16.6523 9.66016 16.9672 9.66016 17.3555C9.66016 17.7438 9.97488 18.0586 10.3633 18.0586H28.3569C28.7453 18.0586 29.06 17.7438 29.06 17.3555C29.06 16.9672 28.7453 16.6523 28.3569 16.6523H10.3633Z" fill="#E54799" />
    <path d="M3.73364 24.1211H12.9197C13.3081 24.1211 13.6229 23.8063 13.6229 23.418C13.6229 23.0297 13.3081 22.7148 12.9197 22.7148H3.73364C3.34524 22.7148 3.03052 23.0297 3.03052 23.418C3.03052 23.8063 3.34533 24.1211 3.73364 24.1211Z" fill="#E54799" />
    <path d="M3.73364 27.1504H12.9197C13.3081 27.1504 13.6229 26.8356 13.6229 26.4473C13.6229 26.059 13.3081 25.7441 12.9197 25.7441H3.73364C3.34524 25.7441 3.03052 26.059 3.03052 26.4473C3.03052 26.8356 3.34533 27.1504 3.73364 27.1504Z" fill="#E54799" />
    <path d="M3.73364 30.1816H8.18471C8.57311 30.1816 8.88783 29.8668 8.88783 29.4785C8.88783 29.0902 8.57311 28.7754 8.18471 28.7754H3.73364C3.34524 28.7754 3.03052 29.0902 3.03052 29.4785C3.03052 29.8668 3.34533 30.1816 3.73364 30.1816V30.1816Z" fill="#E54799" />
</svg>
