<svg width="43" height="37" viewBox="0 0 43 37" fill="none" xmlns="http://www.w3.org/2000/svg">
    <path d="M24.3135 2.54688H15.915C11.669 2.54688 7.67332 4.20506 4.66382 7.21599C1.65668 10.2245 0.000755859 14.2172 8.39844e-05 18.4595C8.39844e-05 18.4603 0 18.4611 0 18.4619C0 18.4624 8.39844e-05 18.4629 8.39844e-05 18.4634C8.39844e-05 18.4656 0 18.4677 0 18.4699C0.00226758 23.1069 2.07416 27.5153 5.68431 30.5646C5.9487 30.7882 6.34662 30.7566 6.57195 30.4898C6.79644 30.224 6.76293 29.8267 6.4972 29.6022C3.33309 26.9297 1.45293 23.1276 1.27497 19.0918H8.42506C8.74613 22.9428 11.9825 25.9785 15.915 25.9785H18.5605V33.1172H16.0472C13.5325 33.1172 11.0378 32.4623 8.83272 31.2233C8.52954 31.0529 8.14539 31.1605 7.97507 31.4638C7.80467 31.7671 7.91234 32.1511 8.2156 32.3214C10.6087 33.6662 13.3168 34.377 16.0472 34.377H24.3135C24.6614 34.377 24.9434 34.095 24.9434 33.7471V25.3486C24.9434 25.0007 24.6614 24.7188 24.3135 24.7188H15.915C12.465 24.7188 9.6582 21.9119 9.6582 18.4619C9.6582 16.8996 10.2372 15.4037 11.2883 14.2498C11.5227 13.9926 11.5041 13.5942 11.2469 13.3599C10.9899 13.1256 10.5914 13.1443 10.3571 13.4014C9.2361 14.6318 8.56338 16.186 8.4259 17.832H1.27379C1.42866 14.1612 2.93425 10.7283 5.55481 8.10647C8.32646 5.33373 12.0057 3.80664 15.915 3.80664H18.5605V10.9453H15.915C14.9007 10.9453 13.9162 11.1441 12.989 11.5363C12.6687 11.6718 12.5187 12.0414 12.6543 12.3618C12.7898 12.6822 13.1594 12.832 13.4798 12.6965C14.2509 12.3704 15.0702 12.205 15.915 12.205H24.3135C24.6614 12.205 24.9434 11.9231 24.9434 11.5751V3.17676C24.9434 2.82881 24.6614 2.54688 24.3135 2.54688V2.54688ZM23.6836 33.1172H19.8203V25.9785H23.6836V33.1172ZM23.6836 10.9453H19.8203V3.80664H23.6836V10.9453Z" fill="#E54799" />
    <path d="M41.4023 25.4473C41.4023 23.6412 39.933 22.1719 38.127 22.1719C36.3209 22.1719 34.8516 23.6412 34.8516 25.4473C34.8516 27.2533 36.3209 28.7227 38.127 28.7227C39.933 28.7227 41.4023 27.2533 41.4023 25.4473ZM36.1113 25.4473C36.1113 24.3359 37.0156 23.4316 38.127 23.4316C39.2383 23.4316 40.1426 24.3359 40.1426 25.4473C40.1426 26.5586 39.2383 27.4629 38.127 27.4629C37.0156 27.4629 36.1113 26.5586 36.1113 25.4473Z" fill="#7C96F2" />
    <path d="M38.127 6.55078C39.933 6.55078 41.4023 5.08147 41.4023 3.27539C41.4023 1.46931 39.933 0 38.127 0C36.3209 0 34.8516 1.46931 34.8516 3.27539C34.8516 5.08147 36.3209 6.55078 38.127 6.55078ZM38.127 1.25977C39.2383 1.25977 40.1426 2.16403 40.1426 3.27539C40.1426 4.38676 39.2383 5.29101 38.127 5.29101C37.0156 5.29101 36.1113 4.38676 36.1113 3.27539C36.1113 2.16403 37.0156 1.25977 38.127 1.25977Z" fill="#7D97F4" />
    <path d="M38.1255 7.41797H38.0856C35.4338 7.41797 33.2764 9.57536 33.2764 12.2271V12.6032C33.2764 13.7884 34.2407 14.7528 35.4261 14.7528H40.7851C41.9844 14.7528 42.9977 13.7464 42.9977 12.5551V12.2192C42.9977 9.57175 40.8121 7.41797 38.1255 7.41797ZM41.7379 12.555C41.7379 13.0459 41.2838 13.493 40.7851 13.493H35.4261C34.9354 13.493 34.5362 13.0938 34.5362 12.6031V12.227C34.5362 10.2699 36.1285 8.67765 38.0856 8.67765H38.1255C40.1175 8.67765 41.7379 10.2663 41.7379 12.219V12.555Z" fill="#7D97F4" />
    <path d="M38.1255 29.5898H38.0856C35.4338 29.5898 33.2764 31.7472 33.2764 34.399V34.775C33.2764 35.9603 34.2407 36.9247 35.4261 36.9247H40.7851C41.9844 36.9247 42.9977 35.9183 42.9977 34.727V34.3911C42.9977 31.7436 40.8121 29.5898 38.1255 29.5898ZM41.7379 34.7269C41.7379 35.2178 41.2838 35.6649 40.7851 35.6649H35.4261C34.9354 35.6649 34.5362 35.2657 34.5362 34.775V34.3989C34.5362 32.4418 36.1285 30.8495 38.0856 30.8495H38.1255C40.1175 30.8495 41.7379 32.4382 41.7379 34.3909V34.7269Z" fill="#7D97F4" />
    <path d="M26.7471 3.80664H31.2822C31.6302 3.80664 31.9121 3.52471 31.9121 3.17676C31.9121 2.82881 31.6302 2.54688 31.2822 2.54688H26.7471C26.3991 2.54688 26.1172 2.82881 26.1172 3.17676C26.1172 3.52471 26.3991 3.80664 26.7471 3.80664Z" fill="#7D97F4" />
    <path d="M26.2852 11.5752C26.2852 11.9231 26.5671 12.2051 26.915 12.2051H30.4424C30.7903 12.2051 31.0723 11.9231 31.0723 11.5752C31.0723 11.2272 30.7903 10.9453 30.4424 10.9453H26.915C26.5671 10.9453 26.2852 11.2272 26.2852 11.5752Z" fill="#7D97F4" />
    <path d="M30.9453 7.37598C30.9453 7.72392 31.2272 8.00586 31.5752 8.00586H33.3809C33.7288 8.00586 34.0107 7.72392 34.0107 7.37598C34.0107 7.02803 33.7288 6.74609 33.3809 6.74609H31.5752C31.2272 6.74609 30.9453 7.02803 30.9453 7.37598Z" fill="#7D97F4" />
    <path d="M28.8887 8.00586C29.2366 8.00586 29.5186 7.72392 29.5186 7.37598C29.5186 7.02803 29.2366 6.74609 28.8887 6.74609H27.251C26.903 6.74609 26.6211 7.02803 26.6211 7.37598C26.6211 7.72392 26.903 8.00586 27.251 8.00586H28.8887Z" fill="#7D97F4" />
    <path d="M31.2822 33.1172H26.7471C26.3991 33.1172 26.1172 33.3991 26.1172 33.7471C26.1172 34.095 26.3991 34.377 26.7471 34.377H31.2822C31.6302 34.377 31.9121 34.095 31.9121 33.7471C31.9121 33.3991 31.6302 33.1172 31.2822 33.1172Z" fill="#7D97F4" />
    <path d="M31.0723 25.3486C31.0723 25.0007 30.7903 24.7188 30.4424 24.7188H26.915C26.5671 24.7188 26.2852 25.0007 26.2852 25.3486C26.2852 25.6966 26.5671 25.9785 26.915 25.9785H30.4424C30.7903 25.9785 31.0723 25.6966 31.0723 25.3486Z" fill="#7D97F4" />
    <path d="M30.7354 30.1777H33.3809C33.7288 30.1777 34.0107 29.8958 34.0107 29.5479C34.0107 29.1999 33.7288 28.918 33.3809 28.918H30.7354C30.3874 28.918 30.1055 29.1999 30.1055 29.5479C30.1055 29.8958 30.3874 30.1777 30.7354 30.1777Z" fill="#7D97F4" />
    <path d="M27.251 28.918C26.903 28.918 26.6211 29.1999 26.6211 29.5479C26.6211 29.8958 26.903 30.1777 27.251 30.1777H28.0488C28.3968 30.1777 28.6787 29.8958 28.6787 29.5479C28.6787 29.1999 28.3968 28.918 28.0488 28.918H27.251Z" fill="#7D97F4" />
</svg>
