<svg width="209" height="202" viewBox="0 0 209 202" fill="none" xmlns="http://www.w3.org/2000/svg">
    <g filter="url(#filter0_d_2_53)">
        <path d="M153.383 20H55C37.8792 20 24 33.8792 24 51V142.728C24 159.849 37.8792 173.728 55 173.728H153.383C170.504 173.728 184.383 159.849 184.383 142.728V51C184.383 33.8792 170.504 20 153.383 20Z" fill="white" />
    </g>
    <path d="M49.931 42.6561H47.151L46.691 43.9861H45.221L47.731 36.9961H49.361L51.871 43.9861H50.391L49.931 42.6561ZM49.551 41.5361L48.541 38.6161L47.531 41.5361H49.551ZM55.119 42.6961L56.519 38.4461H58.009L55.959 43.9861H54.259L52.219 38.4461H53.719L55.119 42.6961ZM58.436 41.1961C58.436 40.6361 58.546 40.1391 58.766 39.7061C58.992 39.2721 59.296 38.9391 59.676 38.7061C60.062 38.4721 60.492 38.3561 60.966 38.3561C61.379 38.3561 61.739 38.4391 62.046 38.6061C62.359 38.7721 62.609 38.9821 62.796 39.2361V38.4461H64.206V43.9861H62.796V43.1761C62.616 43.4361 62.366 43.6521 62.046 43.8261C61.732 43.9921 61.369 44.0761 60.956 44.0761C60.489 44.0761 60.062 43.9561 59.676 43.7161C59.296 43.4761 58.992 43.1391 58.766 42.7061C58.546 42.2661 58.436 41.7621 58.436 41.1961ZM62.796 41.2161C62.796 40.8761 62.729 40.5861 62.596 40.3461C62.462 40.0991 62.282 39.9121 62.056 39.7861C61.829 39.6521 61.586 39.5861 61.326 39.5861C61.066 39.5861 60.826 39.6491 60.606 39.7761C60.386 39.9021 60.206 40.0891 60.066 40.3361C59.932 40.5761 59.866 40.8621 59.866 41.1961C59.866 41.5291 59.932 41.8221 60.066 42.0761C60.206 42.3221 60.386 42.5121 60.606 42.6461C60.832 42.7791 61.072 42.8461 61.326 42.8461C61.586 42.8461 61.829 42.7821 62.056 42.6561C62.282 42.5221 62.462 42.3361 62.596 42.0961C62.729 41.8491 62.796 41.5561 62.796 41.2161ZM66.283 37.7861C66.036 37.7861 65.83 37.7091 65.663 37.5561C65.503 37.3961 65.423 37.1991 65.423 36.9661C65.423 36.7321 65.503 36.5391 65.663 36.3861C65.83 36.2261 66.036 36.1461 66.283 36.1461C66.53 36.1461 66.733 36.2261 66.893 36.3861C67.06 36.5391 67.143 36.7321 67.143 36.9661C67.143 37.1991 67.06 37.3961 66.893 37.5561C66.733 37.7091 66.53 37.7861 66.283 37.7861ZM66.973 38.4461V43.9861H65.573V38.4461H66.973ZM69.756 36.5861V43.9861H68.356V36.5861H69.756ZM70.779 41.1961C70.779 40.6361 70.889 40.1391 71.109 39.7061C71.336 39.2721 71.639 38.9391 72.019 38.7061C72.406 38.4721 72.836 38.3561 73.309 38.3561C73.723 38.3561 74.083 38.4391 74.389 38.6061C74.703 38.7721 74.953 38.9821 75.139 39.2361V38.4461H76.549V43.9861H75.139V43.1761C74.959 43.4361 74.709 43.6521 74.389 43.8261C74.076 43.9921 73.713 44.0761 73.299 44.0761C72.833 44.0761 72.406 43.9561 72.019 43.7161C71.639 43.4761 71.336 43.1391 71.109 42.7061C70.889 42.2661 70.779 41.7621 70.779 41.1961ZM75.139 41.2161C75.139 40.8761 75.073 40.5861 74.939 40.3461C74.806 40.0991 74.626 39.9121 74.399 39.7861C74.173 39.6521 73.929 39.5861 73.669 39.5861C73.409 39.5861 73.169 39.6491 72.949 39.7761C72.729 39.9021 72.549 40.0891 72.409 40.3361C72.276 40.5761 72.209 40.8621 72.209 41.1961C72.209 41.5291 72.276 41.8221 72.409 42.0761C72.549 42.3221 72.729 42.5121 72.949 42.6461C73.176 42.7791 73.416 42.8461 73.669 42.8461C73.929 42.8461 74.173 42.7821 74.399 42.6561C74.626 42.5221 74.806 42.3361 74.939 42.0961C75.073 41.8491 75.139 41.5561 75.139 41.2161ZM79.317 39.2561C79.497 38.9891 79.743 38.7721 80.057 38.6061C80.377 38.4391 80.74 38.3561 81.147 38.3561C81.62 38.3561 82.047 38.4721 82.427 38.7061C82.813 38.9391 83.117 39.2721 83.337 39.7061C83.563 40.1321 83.677 40.6291 83.677 41.1961C83.677 41.7621 83.563 42.2661 83.337 42.7061C83.117 43.1391 82.813 43.4761 82.427 43.7161C82.047 43.9561 81.62 44.0761 81.147 44.0761C80.733 44.0761 80.37 43.9961 80.057 43.8361C79.75 43.6691 79.503 43.4561 79.317 43.1961V43.9861H77.917V36.5861H79.317V39.2561ZM82.247 41.1961C82.247 40.8621 82.177 40.5761 82.037 40.3361C81.903 40.0891 81.723 39.9021 81.497 39.7761C81.277 39.6491 81.037 39.5861 80.777 39.5861C80.523 39.5861 80.283 39.6521 80.057 39.7861C79.837 39.9121 79.657 40.0991 79.517 40.3461C79.383 40.5921 79.317 40.8821 79.317 41.2161C79.317 41.5491 79.383 41.8391 79.517 42.0861C79.657 42.3321 79.837 42.5221 80.057 42.6561C80.283 42.7821 80.523 42.8461 80.777 42.8461C81.037 42.8461 81.277 42.7791 81.497 42.6461C81.723 42.5121 81.903 42.3221 82.037 42.0761C82.177 41.8291 82.247 41.5361 82.247 41.1961ZM86.094 36.5861V43.9861H84.694V36.5861H86.094ZM92.627 41.0961C92.627 41.2961 92.614 41.4761 92.587 41.6361H88.537C88.571 42.0361 88.711 42.3491 88.957 42.5761C89.204 42.8021 89.507 42.9161 89.867 42.9161C90.387 42.9161 90.757 42.6921 90.977 42.2461H92.487C92.327 42.7791 92.021 43.2191 91.567 43.5661C91.114 43.9061 90.557 44.0761 89.897 44.0761C89.364 44.0761 88.884 43.9591 88.457 43.7261C88.037 43.4861 87.707 43.1491 87.467 42.7161C87.234 42.2821 87.117 41.7821 87.117 41.2161C87.117 40.6421 87.234 40.1391 87.467 39.7061C87.701 39.2721 88.027 38.9391 88.447 38.7061C88.867 38.4721 89.351 38.3561 89.897 38.3561C90.424 38.3561 90.894 38.4691 91.307 38.6961C91.727 38.9221 92.051 39.2461 92.277 39.6661C92.511 40.0791 92.627 40.5561 92.627 41.0961ZM91.177 40.6961C91.171 40.3361 91.041 40.0491 90.787 39.8361C90.534 39.6161 90.224 39.5061 89.857 39.5061C89.511 39.5061 89.217 39.6121 88.977 39.8261C88.744 40.0321 88.601 40.3221 88.547 40.6961H91.177ZM95.672 41.1961C95.672 40.6361 95.782 40.1391 96.002 39.7061C96.229 39.2721 96.535 38.9391 96.922 38.7061C97.309 38.4721 97.739 38.3561 98.212 38.3561C98.572 38.3561 98.915 38.4361 99.242 38.5961C99.569 38.7491 99.829 38.9561 100.022 39.2161V36.5861H101.442V43.9861H100.022V43.1661C99.849 43.4391 99.605 43.6591 99.292 43.8261C98.979 43.9921 98.615 44.0761 98.202 44.0761C97.735 44.0761 97.309 43.9561 96.922 43.7161C96.535 43.4761 96.229 43.1391 96.002 42.7061C95.782 42.2661 95.672 41.7621 95.672 41.1961ZM100.032 41.2161C100.032 40.8761 99.965 40.5861 99.832 40.3461C99.699 40.0991 99.519 39.9121 99.292 39.7861C99.065 39.6521 98.822 39.5861 98.562 39.5861C98.302 39.5861 98.062 39.6491 97.842 39.7761C97.622 39.9021 97.442 40.0891 97.302 40.3361C97.169 40.5761 97.102 40.8621 97.102 41.1961C97.102 41.5291 97.169 41.8221 97.302 42.0761C97.442 42.3221 97.622 42.5121 97.842 42.6461C98.069 42.7791 98.309 42.8461 98.562 42.8461C98.822 42.8461 99.065 42.7821 99.292 42.6561C99.519 42.5221 99.699 42.3361 99.832 42.0961C99.965 41.8491 100.032 41.5561 100.032 41.2161ZM102.449 41.1961C102.449 40.6361 102.559 40.1391 102.779 39.7061C103.006 39.2721 103.309 38.9391 103.689 38.7061C104.076 38.4721 104.506 38.3561 104.979 38.3561C105.393 38.3561 105.753 38.4391 106.059 38.6061C106.373 38.7721 106.623 38.9821 106.809 39.2361V38.4461H108.219V43.9861H106.809V43.1761C106.629 43.4361 106.379 43.6521 106.059 43.8261C105.746 43.9921 105.383 44.0761 104.969 44.0761C104.503 44.0761 104.076 43.9561 103.689 43.7161C103.309 43.4761 103.006 43.1391 102.779 42.7061C102.559 42.2661 102.449 41.7621 102.449 41.1961ZM106.809 41.2161C106.809 40.8761 106.743 40.5861 106.609 40.3461C106.476 40.0991 106.296 39.9121 106.069 39.7861C105.843 39.6521 105.599 39.5861 105.339 39.5861C105.079 39.5861 104.839 39.6491 104.619 39.7761C104.399 39.9021 104.219 40.0891 104.079 40.3361C103.946 40.5761 103.879 40.8621 103.879 41.1961C103.879 41.5291 103.946 41.8221 104.079 42.0761C104.219 42.3221 104.399 42.5121 104.619 42.6461C104.846 42.7791 105.086 42.8461 105.339 42.8461C105.599 42.8461 105.843 42.7821 106.069 42.6561C106.296 42.5221 106.476 42.3361 106.609 42.0961C106.743 41.8491 106.809 41.5561 106.809 41.2161ZM114.887 38.4461L111.457 46.6061H109.967L111.167 43.8461L108.947 38.4461H110.517L111.947 42.3161L113.397 38.4461H114.887ZM117.761 44.0761C117.308 44.0761 116.901 43.9961 116.541 43.8361C116.181 43.6691 115.895 43.4461 115.681 43.1661C115.475 42.8861 115.361 42.5761 115.341 42.2361H116.751C116.778 42.4491 116.881 42.6261 117.061 42.7661C117.248 42.9061 117.478 42.9761 117.751 42.9761C118.018 42.9761 118.225 42.9221 118.371 42.8161C118.525 42.7091 118.601 42.5721 118.601 42.4061C118.601 42.2261 118.508 42.0921 118.321 42.0061C118.141 41.9121 117.851 41.8121 117.451 41.7061C117.038 41.6061 116.698 41.5021 116.431 41.3961C116.171 41.2891 115.945 41.1261 115.751 40.9061C115.565 40.6861 115.471 40.3891 115.471 40.0161C115.471 39.7091 115.558 39.4291 115.731 39.1761C115.911 38.9221 116.165 38.7221 116.491 38.5761C116.825 38.4291 117.215 38.3561 117.661 38.3561C118.321 38.3561 118.848 38.5221 119.241 38.8561C119.635 39.1821 119.851 39.6261 119.891 40.1861H118.551C118.531 39.9661 118.438 39.7921 118.271 39.6661C118.111 39.5321 117.895 39.4661 117.621 39.4661C117.368 39.4661 117.171 39.5121 117.031 39.6061C116.898 39.6991 116.831 39.8291 116.831 39.9961C116.831 40.1821 116.925 40.3261 117.111 40.4261C117.298 40.5191 117.588 40.6161 117.981 40.7161C118.381 40.8161 118.711 40.9191 118.971 41.0261C119.231 41.1321 119.455 41.2991 119.641 41.5261C119.835 41.7461 119.935 42.0391 119.941 42.4061C119.941 42.7261 119.851 43.0121 119.671 43.2661C119.498 43.5191 119.245 43.7191 118.911 43.8661C118.585 44.0061 118.201 44.0761 117.761 44.0761Z" fill="black" />
    <path d="M87.2213 52.6091H49.9539C47.7487 52.6091 45.961 54.3968 45.961 56.602V56.602C45.961 58.8073 47.7487 60.595 49.9539 60.595H87.2213C89.4265 60.595 91.2142 58.8073 91.2142 56.602C91.2142 54.3968 89.4265 52.6091 87.2213 52.6091Z" fill="#DCE7FD" />
    <path d="M56.9739 67.4171H47.8507C46.801 67.4171 45.95 68.2681 45.95 69.3178C45.95 70.3675 46.801 71.2185 47.8507 71.2185H56.9739C58.0237 71.2185 58.8746 70.3675 58.8746 69.3178C58.8746 68.2681 58.0237 67.4171 56.9739 67.4171Z" fill="#DCE7FD" />
    <path d="M73.3229 67.4171H64.1997C63.15 67.4171 62.299 68.2681 62.299 69.3178C62.299 70.3675 63.15 71.2185 64.1997 71.2185H73.3229C74.3727 71.2185 75.2236 70.3675 75.2236 69.3178C75.2236 68.2681 74.3727 67.4171 73.3229 67.4171Z" fill="#DCE7FD" />
    <path d="M89.6669 67.4171H80.5437C79.494 67.4171 78.643 68.2681 78.643 69.3178C78.643 70.3675 79.494 71.2185 80.5437 71.2185H89.6669C90.7166 71.2185 91.5676 70.3675 91.5676 69.3178C91.5676 68.2681 90.7166 67.4171 89.6669 67.4171Z" fill="#DCE7FD" />
    <path d="M106.012 67.4171H96.8887C95.839 67.4171 94.988 68.2681 94.988 69.3178C94.988 70.3675 95.839 71.2185 96.8887 71.2185H106.012C107.062 71.2185 107.913 70.3675 107.913 69.3178C107.913 68.2681 107.062 67.4171 106.012 67.4171Z" fill="#DCE7FD" />
    <path d="M122.36 67.4171H113.237C112.187 67.4171 111.336 68.2681 111.336 69.3178C111.336 70.3675 112.187 71.2185 113.237 71.2185H122.36C123.41 71.2185 124.261 70.3675 124.261 69.3178C124.261 68.2681 123.41 67.4171 122.36 67.4171Z" fill="#DCE7FD" />
    <path d="M146.45 119.158C150.308 119.158 153.436 116.03 153.436 112.172C153.436 108.314 150.308 105.186 146.45 105.186C142.592 105.186 139.464 108.314 139.464 112.172C139.464 116.03 142.592 119.158 146.45 119.158Z" stroke="#E0E0E0" strokeWidth="2" />
    <path d="M146.45 139.122C150.308 139.122 153.436 135.994 153.436 132.136C153.436 128.278 150.308 125.15 146.45 125.15C142.592 125.15 139.464 128.278 139.464 132.136C139.464 135.994 142.592 139.122 146.45 139.122Z" stroke="#E0E0E0" strokeWidth="2" />
    <path d="M153.436 152.434C153.436 156.515 150.27 159.752 146.45 159.752C142.63 159.752 139.464 156.515 139.464 152.434C139.464 148.353 142.63 145.115 146.45 145.115C150.27 145.115 153.436 148.353 153.436 152.434Z" stroke="#E0E0E0" strokeWidth="2" />
    <path d="M146.45 99.193C150.308 99.193 153.436 96.0653 153.436 92.2071C153.436 88.3489 150.308 85.2213 146.45 85.2213C142.592 85.2213 139.464 88.3489 139.464 92.2071C139.464 96.0653 142.592 99.193 146.45 99.193Z" stroke="#E0E0E0" strokeWidth="2" />
    <path d="M78.571 119.157C82.4292 119.157 85.5569 116.029 85.5569 112.171C85.5569 108.313 82.4292 105.185 78.571 105.185C74.7128 105.185 71.5851 108.313 71.5851 112.171C71.5851 116.029 74.7128 119.157 78.571 119.157Z" stroke="#E0E0E0" strokeWidth="2" />
    <path d="M78.571 139.122C82.4292 139.122 85.5569 135.994 85.5569 132.136C85.5569 128.278 82.4292 125.15 78.571 125.15C74.7128 125.15 71.5851 128.278 71.5851 132.136C71.5851 135.994 74.7128 139.122 78.571 139.122Z" stroke="#E0E0E0" strokeWidth="2" />
    <path d="M85.556 152.434C85.556 156.515 82.391 159.752 78.571 159.752C74.75 159.752 71.585 156.515 71.585 152.434C71.585 148.353 74.75 145.115 78.571 145.115C82.391 145.115 85.556 148.353 85.556 152.434Z" stroke="#E0E0E0" strokeWidth="2" />
    <path d="M78.571 99.193C82.4292 99.193 85.5569 96.0653 85.5569 92.2071C85.5569 88.3489 82.4292 85.2213 78.571 85.2213C74.7128 85.2213 71.5851 88.3489 71.5851 92.2071C71.5851 96.0653 74.7128 99.193 78.571 99.193Z" stroke="#E0E0E0" strokeWidth="2" />
    <path d="M123.522 119.158C127.38 119.158 130.508 116.03 130.508 112.172C130.508 108.314 127.38 105.186 123.522 105.186C119.664 105.186 116.536 108.314 116.536 112.172C116.536 116.03 119.664 119.158 123.522 119.158Z" stroke="#7D97F4" strokeWidth="2" />
    <path d="M123.826 139.122C127.684 139.122 130.812 135.994 130.812 132.136C130.812 128.278 127.684 125.15 123.826 125.15C119.968 125.15 116.84 128.278 116.84 132.136C116.84 135.994 119.968 139.122 123.826 139.122Z" stroke="#E0E0E0" strokeWidth="2" />
    <path d="M130.812 152.434C130.812 156.515 127.646 159.752 123.826 159.752C120.006 159.752 116.84 156.515 116.84 152.434C116.84 148.353 120.006 145.115 123.826 145.115C127.646 145.115 130.812 148.353 130.812 152.434Z" stroke="#E0E0E0" strokeWidth="2" />
    <path d="M123.826 99.193C127.684 99.193 130.812 96.0653 130.812 92.2071C130.812 88.3489 127.684 85.2213 123.826 85.2213C119.968 85.2213 116.84 88.3489 116.84 92.2071C116.84 96.0653 119.968 99.193 123.826 99.193Z" stroke="#E0E0E0" strokeWidth="2" />
    <path d="M55.943 119.157C59.8012 119.157 62.9289 116.029 62.9289 112.171C62.9289 108.313 59.8012 105.185 55.943 105.185C52.0848 105.185 48.9571 108.313 48.9571 112.171C48.9571 116.029 52.0848 119.157 55.943 119.157Z" stroke="#E0E0E0" strokeWidth="2" />
    <path d="M55.943 139.122C59.8012 139.122 62.9289 135.994 62.9289 132.136C62.9289 128.278 59.8012 125.15 55.943 125.15C52.0848 125.15 48.9571 128.278 48.9571 132.136C48.9571 135.994 52.0848 139.122 55.943 139.122Z" stroke="#E0E0E0" strokeWidth="2" />
    <path d="M62.929 152.434C62.929 156.515 59.763 159.752 55.943 159.752C52.123 159.752 48.957 156.515 48.957 152.434C48.957 148.353 52.123 145.115 55.943 145.115C59.763 145.115 62.929 148.353 62.929 152.434Z" stroke="#E0E0E0" strokeWidth="2" />
    <path d="M55.944 99.193C59.8022 99.193 62.9299 96.0653 62.9299 92.2071C62.9299 88.3489 59.8022 85.2213 55.944 85.2213C52.0858 85.2213 48.9581 88.3489 48.9581 92.2071C48.9581 96.0653 52.0858 99.193 55.944 99.193Z" stroke="#E0E0E0" strokeWidth="2" />
    <path d="M101.196 119.158C105.054 119.158 108.182 116.03 108.182 112.172C108.182 108.314 105.054 105.186 101.196 105.186C97.3378 105.186 94.2101 108.314 94.2101 112.172C94.2101 116.03 97.3378 119.158 101.196 119.158Z" stroke="#7D97F4" strokeWidth="2" />
    <path d="M101.196 139.122C105.054 139.122 108.182 135.994 108.182 132.136C108.182 128.278 105.054 125.15 101.196 125.15C97.3378 125.15 94.2101 128.278 94.2101 132.136C94.2101 135.994 97.3378 139.122 101.196 139.122Z" stroke="#E0E0E0" strokeWidth="2" />
    <path d="M108.182 152.434C108.182 156.515 105.016 159.752 101.196 159.752C97.376 159.752 94.21 156.515 94.21 152.434C94.21 148.353 97.376 145.115 101.196 145.115C105.016 145.115 108.182 148.353 108.182 152.434Z" stroke="#E0E0E0" strokeWidth="2" />
    <path d="M101.196 99.193C105.054 99.193 108.182 96.0653 108.182 92.2071C108.182 88.3489 105.054 85.2213 101.196 85.2213C97.3378 85.2213 94.2101 88.3489 94.2101 92.2071C94.2101 96.0653 97.3378 99.193 101.196 99.193Z" stroke="#E0E0E0" strokeWidth="2" />
    <path d="M156.57 55.2531V49.5511L161.702 52.4831L156.57 55.2531Z" fill="#7D97F4" />
    <path d="M154.478 55.2531V49.5511L149.346 52.4831L154.478 55.2531Z" fill="#C4C4C4" />
    <path d="M100.296 111.552C99.96 111.42 99.702 111.228 99.522 110.976C99.342 110.724 99.252 110.418 99.252 110.058C99.252 109.734 99.333 109.443 99.495 109.185C99.657 108.921 99.897 108.714 100.215 108.564C100.539 108.408 100.929 108.33 101.385 108.33C101.841 108.33 102.228 108.408 102.546 108.564C102.87 108.714 103.113 108.921 103.275 109.185C103.443 109.443 103.527 109.734 103.527 110.058C103.527 110.406 103.434 110.712 103.248 110.976C103.062 111.234 102.807 111.426 102.483 111.552C102.855 111.666 103.149 111.867 103.365 112.155C103.587 112.437 103.698 112.779 103.698 113.181C103.698 113.571 103.602 113.913 103.41 114.207C103.218 114.495 102.945 114.72 102.591 114.882C102.243 115.038 101.841 115.116 101.385 115.116C100.929 115.116 100.527 115.038 100.179 114.882C99.837 114.72 99.57 114.495 99.378 114.207C99.186 113.913 99.09 113.571 99.09 113.181C99.09 112.779 99.198 112.434 99.414 112.146C99.63 111.858 99.924 111.66 100.296 111.552ZM102.735 110.157C102.735 109.791 102.615 109.509 102.375 109.311C102.135 109.113 101.805 109.014 101.385 109.014C100.971 109.014 100.644 109.113 100.404 109.311C100.164 109.509 100.044 109.794 100.044 110.166C100.044 110.502 100.167 110.772 100.413 110.976C100.665 111.18 100.989 111.282 101.385 111.282C101.787 111.282 102.111 111.18 102.357 110.976C102.609 110.766 102.735 110.493 102.735 110.157ZM101.385 111.912C100.941 111.912 100.578 112.017 100.296 112.227C100.014 112.431 99.873 112.74 99.873 113.154C99.873 113.538 100.008 113.847 100.278 114.081C100.554 114.315 100.923 114.432 101.385 114.432C101.847 114.432 102.213 114.315 102.483 114.081C102.753 113.847 102.888 113.538 102.888 113.154C102.888 112.752 102.75 112.446 102.474 112.236C102.198 112.02 101.835 111.912 101.385 111.912Z" fill="black" />
    <path d="M122.513 113.19C122.573 113.532 122.711 113.796 122.927 113.982C123.149 114.168 123.446 114.261 123.818 114.261C124.316 114.261 124.682 114.066 124.916 113.676C125.156 113.286 125.27 112.629 125.258 111.705C125.132 111.975 124.922 112.188 124.628 112.344C124.334 112.494 124.007 112.569 123.647 112.569C123.245 112.569 122.885 112.488 122.567 112.326C122.255 112.158 122.009 111.915 121.829 111.597C121.649 111.279 121.559 110.895 121.559 110.445C121.559 109.803 121.745 109.287 122.117 108.897C122.489 108.501 123.017 108.303 123.701 108.303C124.541 108.303 125.129 108.576 125.465 109.122C125.807 109.668 125.978 110.481 125.978 111.561C125.978 112.317 125.909 112.941 125.771 113.433C125.639 113.925 125.411 114.3 125.087 114.558C124.769 114.816 124.331 114.945 123.773 114.945C123.161 114.945 122.684 114.78 122.342 114.45C122 114.12 121.805 113.7 121.757 113.19H122.513ZM123.782 111.876C124.184 111.876 124.514 111.753 124.772 111.507C125.03 111.255 125.159 110.916 125.159 110.49C125.159 110.04 125.033 109.677 124.781 109.401C124.529 109.125 124.175 108.987 123.719 108.987C123.299 108.987 122.963 109.119 122.711 109.383C122.465 109.647 122.342 109.995 122.342 110.427C122.342 110.865 122.465 111.216 122.711 111.48C122.957 111.744 123.314 111.876 123.782 111.876Z" fill="black" />
    <defs>
        <filter id="filter0_d_2_53" x="0" y="0" width="208.383" height="201.728" filterUnits="userSpaceOnUse" colorInterpolationFilters="sRGB">
            <feFlood floodOpacity="0" result="BackgroundImageFix" />
            <feColorMatrix in="SourceAlpha" type="matrix" values="0 0 0 0 0 0 0 0 0 0 0 0 0 0 0 0 0 0 127 0" result="hardAlpha" />
            <feOffset dy="4" />
            <feGaussianBlur stdDeviation="12" />
            <feColorMatrix type="matrix" values="0 0 0 0 0 0 0 0 0 0 0 0 0 0 0 0 0 0 0.1 0" />
            <feBlend mode="normal" in2="BackgroundImageFix" result="effect1_dropShadow_2_53" />
            <feBlend mode="normal" in="SourceGraphic" in2="effect1_dropShadow_2_53" result="shape" />
        </filter>
    </defs>
</svg>
