<svg width="39" height="39" viewBox="0 0 39 39" fill="none" xmlns="http://www.w3.org/2000/svg">
    <path d="M34.0442 3.57088V2.65414C34.0424 1.95079 33.7621 1.27678 33.2648 0.779432C32.7674 0.282087 32.0934 0.00185798 31.3901 0C30.6864 0.0007672 30.0117 0.280645 29.5142 0.778227C29.0166 1.27581 28.7367 1.95045 28.7359 2.65414V3.52781H26.0197V2.65414C26.0197 1.95094 25.7406 1.27647 25.2438 0.778842C24.7469 0.281213 24.0729 0.00109704 23.3697 0C22.666 0.000876554 21.9915 0.28079 21.4939 0.778348C20.9963 1.27591 20.7164 1.95049 20.7155 2.65414V3.52781H17.9993V2.65414C17.9993 2.30587 17.9307 1.961 17.7974 1.63924C17.6641 1.31747 17.4688 1.02511 17.2225 0.778844C16.9763 0.532576 16.6839 0.337226 16.3621 0.203947C16.0404 0.0706682 15.6955 0.00206997 15.3472 0.00206997C14.999 0.00206997 14.6541 0.0706682 14.3323 0.203947C14.0106 0.337226 13.7182 0.532576 13.4719 0.778844C13.2257 1.02511 13.0303 1.31747 12.897 1.63924C12.7638 1.961 12.6952 2.30587 12.6952 2.65414V3.52781H9.97891V2.65414C9.97705 1.95079 9.69682 1.27678 9.19947 0.779432C8.70213 0.282087 8.02812 0.00185798 7.32477 0C6.62111 0.000876554 5.94653 0.28079 5.44897 0.778348C4.95142 1.27591 4.6715 1.95049 4.67063 2.65414V3.57088C3.38316 3.72963 2.198 4.35316 1.33792 5.32426C0.47784 6.29536 0.00205729 7.54716 0 8.84438V33.3983C0.00164377 34.8078 0.562308 36.1591 1.559 37.1558C2.55569 38.1525 3.90703 38.7132 5.31656 38.7148H33.3983C34.8078 38.7132 36.1591 38.1525 37.1558 37.1558C38.1525 36.1591 38.7132 34.8078 38.7148 33.3983V8.84438C38.7128 7.54716 38.237 6.29536 37.3769 5.32426C36.5168 4.35316 35.3317 3.72963 34.0442 3.57088V3.57088ZM30.1852 2.65414C30.1856 2.33471 30.3127 2.02849 30.5386 1.80262C30.7644 1.57674 31.0706 1.44966 31.3901 1.44922C31.709 1.45117 32.0144 1.57875 32.2399 1.80429C32.4655 2.02984 32.593 2.33518 32.595 2.65414V5.8507C32.595 6.17027 32.4681 6.47674 32.2421 6.70271C32.0161 6.92868 31.7096 7.05563 31.3901 7.05563C31.0705 7.05563 30.764 6.92868 30.5381 6.70271C30.3121 6.47674 30.1852 6.17027 30.1852 5.8507V2.65414ZM22.1648 2.65414C22.1651 2.33468 22.2921 2.02839 22.518 1.8025C22.7439 1.5766 23.0502 1.44955 23.3697 1.44922C23.6886 1.45021 23.994 1.5776 24.2191 1.80347C24.4442 2.02934 24.5706 2.33526 24.5705 2.65414V5.8507C24.5705 6.16972 24.4437 6.47567 24.2182 6.70125C23.9926 6.92683 23.6866 7.05355 23.3676 7.05355C23.0486 7.05355 22.7426 6.92683 22.5171 6.70125C22.2915 6.47567 22.1648 6.16972 22.1648 5.8507V2.65414ZM14.1444 2.65414C14.1444 2.33512 14.2711 2.02917 14.4967 1.8036C14.7223 1.57802 15.0282 1.45129 15.3472 1.45129C15.6662 1.45129 15.9722 1.57802 16.1978 1.8036C16.4233 2.02917 16.5501 2.33512 16.5501 2.65414V5.8507C16.5501 6.16972 16.4233 6.47567 16.1978 6.70125C15.9722 6.92683 15.6662 7.05355 15.3472 7.05355C15.0282 7.05355 14.7223 6.92683 14.4967 6.70125C14.2711 6.47567 14.1444 6.16972 14.1444 5.8507V2.65414ZM6.11984 2.65414C6.12017 2.33468 6.24723 2.02839 6.47312 1.8025C6.69902 1.5766 7.0053 1.44955 7.32477 1.44922C7.64373 1.45117 7.94907 1.57875 8.17461 1.80429C8.40016 2.02984 8.52773 2.33518 8.52969 2.65414V5.8507C8.52969 6.17027 8.40274 6.47674 8.17677 6.70271C7.95081 6.92868 7.64433 7.05563 7.32477 7.05563C7.0052 7.05563 6.69872 6.92868 6.47276 6.70271C6.24679 6.47674 6.11984 6.17027 6.11984 5.8507V2.65414ZM4.67063 5.03541V5.8507C4.67063 6.55462 4.95026 7.22972 5.448 7.72746C5.94575 8.22521 6.62084 8.50484 7.32477 8.50484C8.02869 8.50484 8.70378 8.22521 9.20153 7.72746C9.69927 7.22972 9.97891 6.55462 9.97891 5.8507V4.97703H12.6952V5.8507C12.6952 6.55408 12.9746 7.22864 13.4719 7.726C13.9693 8.22336 14.6439 8.50277 15.3472 8.50277C16.0506 8.50277 16.7252 8.22336 17.2225 7.726C17.7199 7.22864 17.9993 6.55408 17.9993 5.8507V4.97703H20.7155V5.8507C20.7155 6.55408 20.995 7.22864 21.4923 7.726C21.9897 8.22336 22.6642 8.50277 23.3676 8.50277C24.071 8.50277 24.7456 8.22336 25.2429 7.726C25.7403 7.22864 26.0197 6.55408 26.0197 5.8507V4.97703H28.7359V5.8507C28.7359 6.55462 29.0156 7.22972 29.5133 7.72746C30.0111 8.22521 30.6862 8.50484 31.3901 8.50484C32.094 8.50484 32.7691 8.22521 33.2668 7.72746C33.7646 7.22972 34.0442 6.55462 34.0442 5.8507V5.03541C34.9442 5.18854 35.761 5.65482 36.3505 6.35188C36.94 7.04893 37.2641 7.9319 37.2656 8.84479V11.0257H1.44922V8.84438C1.45084 7.93156 1.77501 7.04869 2.36447 6.35172C2.95393 5.65475 3.77074 5.18852 4.67063 5.03541V5.03541ZM33.3983 37.2656H5.31656C4.29125 37.2644 3.30828 36.8566 2.58327 36.1316C1.85826 35.4066 1.45042 34.4236 1.44922 33.3983V12.4757H37.2656V33.3983C37.2644 34.4236 36.8566 35.4066 36.1316 36.1316C35.4066 36.8566 34.4236 37.2644 33.3983 37.2656Z" fill="#E54799" />
    <path d="M10.1175 16.0996H7.1917C6.68235 16.1003 6.19406 16.3029 5.83389 16.6631C5.47373 17.0232 5.2711 17.5115 5.27045 18.0209V20.9466C5.2711 21.456 5.47373 21.9443 5.83389 22.3044C6.19406 22.6646 6.68235 22.8672 7.1917 22.8679H10.1175C10.6268 22.8672 11.1151 22.6646 11.4753 22.3044C11.8354 21.9443 12.0381 21.456 12.0387 20.9466V18.0209C12.0381 17.5115 11.8354 17.0232 11.4753 16.6631C11.1151 16.3029 10.6268 16.1003 10.1175 16.0996V16.0996ZM10.5895 20.9466C10.5894 21.0718 10.5396 21.1918 10.4511 21.2803C10.3626 21.3688 10.2426 21.4185 10.1175 21.4187H7.1917C7.06654 21.4185 6.94654 21.3688 6.85804 21.2803C6.76954 21.1918 6.71977 21.0718 6.71967 20.9466V18.0209C6.71977 17.8957 6.76954 17.7757 6.85804 17.6872C6.94654 17.5987 7.06654 17.5489 7.1917 17.5488H10.1175C10.2426 17.5489 10.3626 17.5987 10.4511 17.6872C10.5396 17.7757 10.5894 17.8957 10.5895 18.0209V20.9466Z" fill="#7D97F4" />
    <path d="M20.8199 16.0996H17.8942C17.3848 16.1003 16.8965 16.3029 16.5363 16.6631C16.1762 17.0232 15.9736 17.5115 15.9729 18.0209V20.9466C15.9736 21.456 16.1762 21.9443 16.5363 22.3044C16.8965 22.6646 17.3848 22.8672 17.8942 22.8679H20.8199C21.3293 22.8672 21.8176 22.6646 22.1777 22.3044C22.5379 21.9443 22.7405 21.456 22.7412 20.9466V18.0209C22.7405 17.5115 22.5379 17.0232 22.1777 16.6631C21.8176 16.3029 21.3293 16.1003 20.8199 16.0996V16.0996ZM21.2919 20.9466C21.2918 21.0718 21.2421 21.1918 21.1536 21.2803C21.0651 21.3688 20.9451 21.4185 20.8199 21.4187H17.8942C17.769 21.4185 17.649 21.3688 17.5605 21.2803C17.472 21.1918 17.4222 21.0718 17.4221 20.9466V18.0209C17.4222 17.8957 17.472 17.7757 17.5605 17.6872C17.649 17.5987 17.769 17.5489 17.8942 17.5488H20.8199C20.9451 17.5489 21.0651 17.5987 21.1536 17.6872C21.2421 17.7757 21.2918 17.8957 21.2919 18.0209V20.9466Z" fill="#7D97F4" />
    <path d="M32.4632 17.0928L29.2128 20.3415L27.6576 18.7863C27.5209 18.6544 27.3378 18.5814 27.1479 18.583C26.9579 18.5847 26.7761 18.661 26.6418 18.7954C26.5075 18.9297 26.4313 19.1115 26.4297 19.3015C26.4281 19.4915 26.5012 19.6745 26.6332 19.8111L28.7006 21.8785C28.7679 21.9459 28.8477 21.9993 28.9357 22.0358C29.0236 22.0722 29.1178 22.091 29.213 22.091C29.3082 22.091 29.4024 22.0722 29.4904 22.0358C29.5783 21.9993 29.6582 21.9459 29.7254 21.8785L33.488 18.116C33.6239 17.9801 33.7003 17.7957 33.7003 17.6036C33.7003 17.4114 33.6239 17.227 33.488 17.0912C33.3521 16.9553 33.1678 16.8789 32.9756 16.8789C32.7834 16.8789 32.5991 16.9553 32.4632 17.0912V17.0928Z" fill="#7D97F4" />
    <path d="M10.1175 26.082H7.1917C6.68235 26.0827 6.19406 26.2853 5.83389 26.6455C5.47373 27.0056 5.2711 27.4939 5.27045 28.0033V30.929C5.2711 31.4384 5.47373 31.9267 5.83389 32.2868C6.19406 32.647 6.68235 32.8496 7.1917 32.8503H10.1175C10.6268 32.8496 11.1151 32.647 11.4753 32.2868C11.8354 31.9267 12.0381 31.4384 12.0387 30.929V28.0033C12.0381 27.4939 11.8354 27.0056 11.4753 26.6455C11.1151 26.2853 10.6268 26.0827 10.1175 26.082V26.082ZM10.5895 30.929C10.5894 31.0542 10.5396 31.1742 10.4511 31.2627C10.3626 31.3512 10.2426 31.401 10.1175 31.4011H7.1917C7.06654 31.401 6.94654 31.3512 6.85804 31.2627C6.76954 31.1742 6.71977 31.0542 6.71967 30.929V28.0033C6.71977 27.8781 6.76954 27.7581 6.85804 27.6696C6.94654 27.5811 7.06654 27.5314 7.1917 27.5312H10.1175C10.2426 27.5314 10.3626 27.5811 10.4511 27.6696C10.5396 27.7581 10.5894 27.8781 10.5895 28.0033V30.929Z" fill="#7D97F4" />
    <path d="M20.8199 26.082H17.8942C17.3848 26.0827 16.8965 26.2853 16.5363 26.6455C16.1762 27.0056 15.9736 27.4939 15.9729 28.0033V30.929C15.9736 31.4384 16.1762 31.9267 16.5363 32.2868C16.8965 32.647 17.3848 32.8496 17.8942 32.8503H20.8199C21.3293 32.8496 21.8176 32.647 22.1777 32.2868C22.5379 31.9267 22.7405 31.4384 22.7412 30.929V28.0033C22.7405 27.4939 22.5379 27.0056 22.1777 26.6455C21.8176 26.2853 21.3293 26.0827 20.8199 26.082V26.082ZM21.2919 30.929C21.2918 31.0542 21.2421 31.1742 21.1536 31.2627C21.0651 31.3512 20.9451 31.401 20.8199 31.4011H17.8942C17.769 31.401 17.649 31.3512 17.5605 31.2627C17.472 31.1742 17.4222 31.0542 17.4221 30.929V28.0033C17.4222 27.8781 17.472 27.7581 17.5605 27.6696C17.649 27.5811 17.769 27.5314 17.8942 27.5312H20.8199C20.9451 27.5314 21.0651 27.5811 21.1536 27.6696C21.2421 27.7581 21.2918 27.8781 21.2919 28.0033V30.929Z" fill="#7D97F4" />
    <path d="M31.5237 26.082H28.5979C28.0885 26.0827 27.6002 26.2853 27.2401 26.6455C26.8799 27.0056 26.6773 27.4939 26.6766 28.0033V30.929C26.6773 31.4384 26.8799 31.9267 27.2401 32.2868C27.6002 32.647 28.0885 32.8496 28.5979 32.8503H31.5237C32.033 32.8496 32.5213 32.647 32.8815 32.2868C33.2416 31.9267 33.4442 31.4384 33.4449 30.929V28.0033C33.4442 27.4939 33.2416 27.0056 32.8815 26.6455C32.5213 26.2853 32.033 26.0827 31.5237 26.082V26.082ZM31.9957 30.929C31.9956 31.0542 31.9458 31.1742 31.8573 31.2627C31.7688 31.3512 31.6488 31.401 31.5237 31.4011H28.5979C28.4727 31.401 28.3527 31.3512 28.2642 31.2627C28.1757 31.1742 28.126 31.0542 28.1259 30.929V28.0033C28.126 27.8781 28.1757 27.7581 28.2642 27.6696C28.3527 27.5811 28.4727 27.5314 28.5979 27.5312H31.5237C31.6488 27.5314 31.7688 27.5811 31.8573 27.6696C31.9458 27.7581 31.9956 27.8781 31.9957 28.0033V30.929Z" fill="#7D97F4" />
</svg>
