<svg width="1329" height="990" viewBox="0 0 1329 990" fill="none" xmlns="http://www.w3.org/2000/svg">
    <path d="M38.8842 420.396C59.5992 478.586 56.191 525.988 34.9414 584.301C11.4835 648.703 -13.6345 731.521 16.4532 796.215C42.9675 853.227 90.0892 897.023 143.74 917.457C211.838 943.413 274.016 921.91 335.932 881.366C420.922 825.673 560.81 788.642 652.59 828.698C732.769 863.707 784.277 954.616 869.968 981.249C929.121 999.618 1021.36 992.564 1050.11 916.707C1057.65 896.812 1060.11 874.451 1070.65 856.331C1095.03 814.413 1142.94 824.39 1179.67 824.716C1246.01 825.302 1311.82 791.236 1324.68 723.605C1330.15 694.789 1331.89 668.189 1320.58 640.595C1311.7 618.952 1295.85 608.708 1278.77 592.929C1242.23 559.186 1207.64 518.399 1200.67 467.379C1192.68 408.837 1222.92 351.582 1224.01 292.488C1225.23 225.912 1187.16 161.549 1131.63 124.849C1089.26 96.8479 1056 77 985.82 71.2286C939.819 72.2576 899.061 83.091 853.365 93.7884C797.305 106.909 743.678 128.76 687.575 142.734C632.542 156.452 572.723 166.886 520.506 144.742C481.496 128.192 452.017 95.5835 418.742 69.3302C362.674 25.0615 291.885 -2.3216 220.51 0.488358C149.136 3.29832 78.0934 38.3888 38.4077 97.8056C-25.9381 194.089 2.97182 319.572 38.8842 420.396Z" fill="url(#paint0_linear_46_41)" />
    <defs>
        <linearGradient id="paint0_linear_46_41" x1="1340.73" y1="595.063" x2="-25.5239" y2="432.334" gradientUnits="userSpaceOnUse">
            <stop stopColor="#3A3D6F" />
            <stop offset="1" stopColor="#6D64D6" />
        </linearGradient>
    </defs>
</svg>
