<svg viewBox="0 0 603 613" fill="none" xmlns="http://www.w3.org/2000/svg">
    <path d="M163.709 31.8192C114.209 59.4192 72.0094 100.619 40.8094 149.819C9.50945 199.119 -10.7905 256.219 6.1095 303.619C23.0095 351.119 77.1095 388.719 105.509 442.919C133.909 497.019 136.709 567.619 169.309 596.419C201.909 625.219 264.409 612.319 311.809 586.219C359.209 560.119 391.609 520.719 418.609 488.719C445.709 456.719 467.509 431.919 494.309 403.919C521.209 375.919 553.009 344.719 576.209 300.019C599.409 255.419 613.809 197.419 589.209 165.519C564.709 133.619 501.009 127.819 450.809 100.619C400.609 73.5192 363.709 24.9192 316.909 7.6192C270.109 -9.6808 213.209 4.21918 163.709 31.8192Z" fill="#E5ECFE" />
</svg>
