<svg width="309" height="322" viewBox="0 0 309 322" fill="none" xmlns="http://www.w3.org/2000/svg">
    <path d="M167.521 2.45728L8.35755 98.0133C4.44117 100.365 1.61939 104.176 0.512934 108.608C-0.593523 113.041 0.105973 117.731 2.45755 121.647L117.716 313.627C120.067 317.544 123.878 320.365 128.311 321.472C132.743 322.578 137.433 321.879 141.35 319.527L300.513 223.971C302.452 222.807 304.143 221.272 305.489 219.454C306.835 217.637 307.81 215.571 308.357 213.377C308.905 211.182 309.016 208.901 308.682 206.664C308.348 204.427 307.577 202.277 306.413 200.338L191.155 8.35828C188.803 4.44174 184.992 1.61975 180.56 0.5131C176.127 -0.593548 171.437 0.105793 167.521 2.45728V2.45728Z" fill="white" />
    <path d="M171.134 21.4913L23.4575 110.154C21.2816 111.461 19.7138 113.578 19.0989 116.04C18.484 118.503 18.8723 121.108 20.1785 123.284L69.4345 205.327C70.0812 206.405 70.9338 207.344 71.9436 208.092C72.9534 208.84 74.1006 209.382 75.3198 209.686C76.539 209.991 77.8062 210.052 79.0491 209.867C80.2919 209.681 81.4862 209.253 82.5635 208.606L230.24 119.946C231.318 119.3 232.258 118.447 233.006 117.437C233.754 116.427 234.295 115.28 234.6 114.061C234.904 112.841 234.966 111.574 234.78 110.331C234.595 109.088 234.167 107.894 233.519 106.816L184.264 24.7733C183.618 23.6956 182.765 22.7557 181.756 22.0075C180.746 21.2593 179.599 20.7173 178.379 20.4126C177.16 20.1078 175.893 20.0462 174.65 20.2313C173.407 20.4164 172.212 20.8445 171.134 21.4913Z" fill="#E7F0F4" />
    <path d="M178.202 51.8531C180.149 50.684 181.705 48.9638 182.675 46.91C183.644 44.8562 183.983 42.5611 183.648 40.3148C183.313 38.0685 182.319 35.972 180.793 34.2904C179.266 32.6088 177.276 31.4176 175.072 30.8674C172.869 30.3172 170.552 30.4328 168.414 31.1996C166.276 31.9663 164.414 33.3497 163.062 35.1749C161.711 37.0001 160.931 39.185 160.821 41.4535C160.711 43.7219 161.277 45.972 162.446 47.9191C163.222 49.212 164.245 50.3393 165.457 51.2367C166.669 52.1341 168.046 52.7841 169.509 53.1494C170.972 53.5147 172.493 53.5882 173.984 53.3658C175.476 53.1434 176.909 52.6294 178.202 51.8531V51.8531Z" fill="white" fillOpacity="0.2" />
    <path d="M168.354 46.6034C168.678 46.4086 168.938 46.1219 169.099 45.7796C169.261 45.4373 169.317 45.0548 169.262 44.6803C169.206 44.3059 169.04 43.9564 168.786 43.6761C168.532 43.3958 168.2 43.1972 167.832 43.1054C167.465 43.0137 167.079 43.0329 166.723 43.1606C166.366 43.2884 166.056 43.519 165.831 43.8232C165.605 44.1274 165.475 44.4916 165.457 44.8697C165.439 45.2478 165.533 45.6229 165.728 45.9474C165.989 46.3826 166.412 46.6963 166.905 46.8193C167.397 46.9423 167.918 46.8647 168.354 46.6034V46.6034Z" fill="white" />
    <path d="M173.276 43.6484C173.6 43.4536 173.86 43.1669 174.021 42.8246C174.183 42.4822 174.239 42.0997 174.184 41.7253C174.128 41.3508 173.962 41.0013 173.708 40.721C173.454 40.4407 173.122 40.2421 172.754 40.1503C172.387 40.0586 172.001 40.0778 171.645 40.2056C171.288 40.3333 170.978 40.5639 170.752 40.8681C170.527 41.1723 170.397 41.5365 170.379 41.9146C170.361 42.2927 170.455 42.6678 170.65 42.9924C170.911 43.4276 171.334 43.7412 171.827 43.8642C172.319 43.9872 172.84 43.9096 173.276 43.6484V43.6484Z" fill="white" />
    <path d="M178.2 40.6913C178.525 40.4965 178.785 40.2098 178.946 39.8675C179.108 39.5252 179.164 39.1426 179.109 38.7682C179.053 38.3938 178.887 38.0443 178.633 37.764C178.378 37.4836 178.047 37.285 177.679 37.1933C177.312 37.1015 176.926 37.1208 176.57 37.2485C176.213 37.3763 175.903 37.6069 175.677 37.9111C175.452 38.2153 175.322 38.5795 175.304 38.9576C175.285 39.3357 175.38 39.7108 175.574 40.0353C175.836 40.4705 176.259 40.7841 176.752 40.9072C177.244 41.0302 177.765 40.9526 178.2 40.6913V40.6913Z" fill="white" />
    <path d="M183.666 239.43L119.673 277.85C119.026 278.238 118.462 278.75 118.013 279.356C117.565 279.962 117.239 280.65 117.057 281.382C116.874 282.113 116.837 282.874 116.949 283.62C117.06 284.365 117.317 285.082 117.706 285.728L127.557 302.136C127.945 302.783 128.456 303.347 129.062 303.795C129.668 304.244 130.357 304.569 131.088 304.752C131.82 304.934 132.58 304.971 133.326 304.86C134.072 304.749 134.788 304.491 135.435 304.103L199.428 265.684C200.074 265.296 200.638 264.785 201.087 264.179C201.535 263.573 201.86 262.884 202.043 262.153C202.226 261.421 202.262 260.661 202.151 259.915C202.04 259.169 201.783 258.453 201.395 257.806L191.544 241.397C190.76 240.092 189.489 239.151 188.012 238.782C186.535 238.413 184.971 238.647 183.666 239.43V239.43Z" fill="#F22FB0" />
    <path d="M185.466 212.68L106.705 259.966C106.274 260.225 105.898 260.566 105.599 260.97C105.3 261.374 105.083 261.833 104.961 262.32C104.839 262.808 104.815 263.315 104.889 263.812C104.963 264.309 105.134 264.787 105.393 265.218C105.652 265.649 105.993 266.024 106.397 266.324C106.801 266.623 107.26 266.839 107.747 266.961C108.235 267.083 108.742 267.107 109.239 267.033C109.736 266.959 110.214 266.788 110.645 266.529L189.406 219.244C189.841 218.988 190.222 218.648 190.526 218.244C190.829 217.839 191.05 217.379 191.175 216.889C191.299 216.399 191.326 215.889 191.252 215.389C191.179 214.889 191.007 214.408 190.747 213.975C190.487 213.541 190.143 213.164 189.736 212.864C189.329 212.564 188.867 212.347 188.376 212.227C187.885 212.106 187.375 212.084 186.875 212.162C186.376 212.24 185.897 212.416 185.466 212.68V212.68Z" fill="#E7F0F4" />
    <path d="M176.103 174.773L90.7776 226C89.038 227.045 87.7846 228.738 87.2927 230.707C86.8009 232.676 87.1109 234.76 88.1546 236.5V236.5C89.1995 238.24 90.8926 239.494 92.8615 239.985C94.8305 240.477 96.9142 240.167 98.6546 239.123L183.98 187.897C184.853 187.386 185.617 186.706 186.227 185.897C186.836 185.089 187.279 184.167 187.53 183.186C187.78 182.205 187.834 181.184 187.688 180.182C187.541 179.18 187.197 178.217 186.676 177.349C186.155 176.481 185.467 175.725 184.651 175.124C183.836 174.524 182.909 174.092 181.926 173.852C180.942 173.612 179.92 173.57 178.92 173.727C177.92 173.885 176.961 174.239 176.099 174.77L176.103 174.773Z" fill="#E7F0F4" />
    <path d="M121.797 98.8244L120.098 115.195L131.731 119.93C132.526 120.283 133.153 120.932 133.478 121.74C133.804 122.547 133.802 123.449 133.473 124.255C133.145 125.061 132.516 125.708 131.719 126.058C130.922 126.408 130.02 126.434 129.205 126.13C123.776 123.92 117.279 121.297 113.166 119.587C112.684 119.394 112.164 119.315 111.646 119.356C111.129 119.397 110.628 119.558 110.183 119.825C109.738 120.092 109.361 120.459 109.081 120.896C108.802 121.333 108.627 121.829 108.572 122.345L106.272 144.545C106.21 145.166 106.321 145.791 106.593 146.352C106.865 146.913 107.287 147.388 107.813 147.724C108.338 148.06 108.946 148.244 109.569 148.255C110.193 148.267 110.807 148.106 111.345 147.789L163.032 116.758C163.562 116.436 163.994 115.974 164.277 115.421C164.561 114.869 164.686 114.249 164.638 113.63C164.59 113.011 164.372 112.417 164.007 111.915C163.642 111.412 163.145 111.021 162.571 110.784L126.39 96.0664C125.908 95.8652 125.387 95.7801 124.867 95.8178C124.347 95.8555 123.843 96.0151 123.396 96.2835C122.949 96.552 122.571 96.9219 122.293 97.3633C122.016 97.8047 121.846 98.3052 121.797 98.8244V98.8244Z" fill="white" />
</svg>
