<svg width="273" height="300" viewBox="0 0 273 300" fill="none" xmlns="http://www.w3.org/2000/svg">
    <path d="M259.418 49.0968L80.0988 1.0488C77.9136 0.462789 75.6344 0.312996 73.3913 0.607981C71.1482 0.902966 68.9852 1.63695 67.0258 2.76801C65.0664 3.89907 63.349 5.40505 61.9717 7.19993C60.5944 8.99482 59.5842 11.0434 58.9988 13.2288L1.04783 229.52C0.461815 231.705 0.312018 233.984 0.607003 236.227C0.901988 238.47 1.63598 240.633 2.76704 242.593C3.8981 244.552 5.40407 246.27 7.19895 247.647C8.99384 249.024 11.0425 250.034 13.2278 250.62L192.546 298.669C194.731 299.255 197.01 299.405 199.253 299.11C201.496 298.815 203.659 298.081 205.619 296.95C207.578 295.819 209.296 294.313 210.673 292.518C212.05 290.723 213.06 288.674 213.646 286.489L271.597 70.1908C272.779 65.7785 272.16 61.0774 269.876 57.1216C267.592 53.1657 263.83 50.2792 259.418 49.0968V49.0968Z" fill="white" />
    <path d="M248.243 64.9256L81.8638 20.3456C80.6499 20.0204 79.3839 19.9374 78.1379 20.1014C76.8919 20.2654 75.6905 20.6733 74.6022 21.3017C73.5138 21.9301 72.56 22.7667 71.795 23.7637C71.03 24.7608 70.4689 25.8987 70.1438 27.1126L45.3768 119.546C45.0515 120.76 44.9685 122.026 45.1325 123.272C45.2966 124.517 45.7044 125.719 46.3328 126.807C46.9612 127.896 47.7978 128.849 48.7949 129.614C49.7919 130.379 50.9299 130.94 52.1438 131.266L218.522 175.847C219.736 176.172 221.002 176.255 222.248 176.091C223.494 175.927 224.695 175.519 225.783 174.891C226.872 174.262 227.826 173.426 228.591 172.429C229.356 171.432 229.917 170.294 230.242 169.08L255.009 76.6466C255.666 74.1951 255.322 71.583 254.053 69.3849C252.784 67.1868 250.694 65.5828 248.243 64.9256V64.9256Z" fill="#E7F0F4" />
    <path d="M100.234 225.385L28.1339 206.067C27.4056 205.872 26.6459 205.822 25.8984 205.92C25.1508 206.019 24.4299 206.263 23.7769 206.64C23.1239 207.017 22.5516 207.519 22.0926 208.117C21.6336 208.716 21.297 209.399 21.1019 210.127L16.1489 228.613C15.9536 229.341 15.9038 230.101 16.0022 230.848C16.1006 231.596 16.3453 232.317 16.7223 232.97C17.0993 233.623 17.6013 234.195 18.1995 234.654C18.7977 235.113 19.4805 235.45 20.2089 235.645L92.3089 254.964C93.0372 255.159 93.7968 255.209 94.5444 255.111C95.292 255.012 96.0129 254.767 96.6659 254.39C97.3189 254.013 97.8912 253.511 98.3502 252.913C98.8092 252.315 99.1458 251.632 99.3409 250.904L104.294 232.417C104.489 231.689 104.539 230.929 104.441 230.181C104.342 229.434 104.098 228.713 103.721 228.06C103.343 227.407 102.842 226.835 102.243 226.376C101.645 225.917 100.962 225.58 100.234 225.385Z" fill="#F22FB0" />
    <path d="M120.717 208.091L31.9818 184.315C31.4963 184.185 30.99 184.152 30.4917 184.217C29.9933 184.283 29.5128 184.446 29.0775 184.697C28.6423 184.949 28.2608 185.283 27.9548 185.682C27.6488 186.081 27.4244 186.536 27.2943 187.021C27.1643 187.507 27.1311 188.013 27.1967 188.512C27.2623 189.01 27.4254 189.49 27.6768 189.926C27.9281 190.361 28.2627 190.743 28.6615 191.048C29.0602 191.354 29.5153 191.579 30.0008 191.709L118.736 215.486C119.222 215.616 119.728 215.649 120.227 215.583C120.726 215.518 121.207 215.354 121.642 215.103C122.078 214.851 122.46 214.516 122.766 214.117C123.072 213.718 123.296 213.262 123.426 212.776C123.556 212.291 123.589 211.784 123.524 211.285C123.458 210.786 123.295 210.306 123.043 209.87C122.791 209.435 122.456 209.053 122.057 208.747C121.658 208.441 121.203 208.216 120.717 208.086V208.091Z" fill="#E7F0F4" />
    <path d="M141.471 175.014L45.3408 149.256C43.3796 148.73 41.2899 149.006 39.5316 150.021C37.7733 151.036 36.4903 152.709 35.9648 154.67C35.7046 155.641 35.6381 156.654 35.7693 157.65C35.9005 158.647 36.2267 159.608 36.7294 160.479C37.232 161.35 37.9012 162.113 38.6988 162.725C39.4964 163.337 40.4067 163.786 41.3778 164.046L137.508 189.803C139.469 190.328 141.559 190.053 143.317 189.038C145.075 188.023 146.358 186.351 146.884 184.39C147.409 182.429 147.134 180.339 146.119 178.581C145.104 176.822 143.432 175.539 141.471 175.014V175.014Z" fill="#E7F0F4" />
    <path d="M158.348 83.191L145.397 93.348L150.076 105.004C150.24 105.412 150.322 105.849 150.317 106.289C150.312 106.728 150.22 107.163 150.048 107.567C149.875 107.972 149.624 108.338 149.309 108.646C148.995 108.954 148.623 109.196 148.215 109.36C147.807 109.524 147.37 109.606 146.93 109.601C146.49 109.596 146.056 109.504 145.651 109.332C145.247 109.159 144.88 108.908 144.573 108.594C144.265 108.279 144.023 107.907 143.859 107.499C141.676 102.06 139.048 95.565 137.419 91.419C137.223 90.9382 136.919 90.5092 136.53 90.1656C136.14 89.8221 135.677 89.5734 135.176 89.4391C134.674 89.3047 134.148 89.2883 133.64 89.3912C133.131 89.4941 132.653 89.7134 132.243 90.032L114.682 103.807C114.194 104.194 113.822 104.709 113.608 105.294C113.394 105.879 113.346 106.512 113.47 107.123C113.593 107.733 113.883 108.298 114.308 108.754C114.732 109.21 115.275 109.54 115.875 109.707L174.107 125.307C174.707 125.465 175.34 125.453 175.934 125.273C176.528 125.093 177.061 124.752 177.473 124.288C177.885 123.823 178.16 123.253 178.267 122.642C178.375 122.031 178.311 121.401 178.082 120.824L163.524 84.572C163.334 84.0865 163.032 83.6525 162.643 83.3052C162.254 82.9578 161.789 82.7068 161.285 82.5723C160.781 82.4379 160.253 82.4239 159.743 82.5313C159.232 82.6388 158.755 82.8648 158.348 83.191V83.191Z" fill="white" />
</svg>
