<svg width="50" height="50" viewBox="0 0 50 50" fill="none" xmlns="http://www.w3.org/2000/svg">
    <path d="M24.4445 44.4451C24.4445 45.0587 24.9419 45.5562 25.5556 45.5562C26.1692 45.5562 26.6667 45.0587 26.6667 44.4451C26.6667 43.8314 26.1692 43.334 25.5556 43.334C24.9419 43.334 24.4445 43.8314 24.4445 44.4451Z" fill="#7D97F4" />
    <path d="M5.46875 18.75H8.34356L13.6086 22.5109C13.7361 22.6019 13.888 22.6525 14.0446 22.6561C14.2012 22.6597 14.3553 22.6161 14.4868 22.531C14.6184 22.4459 14.7213 22.3232 14.7822 22.1789C14.8431 22.0346 14.8593 21.8753 14.8285 21.7217L14.2342 18.75H19.5312C20.5669 18.7488 21.5597 18.3368 22.292 17.6045C23.0243 16.8722 23.4363 15.8794 23.4375 14.8438V5.46875C23.4363 4.43312 23.0243 3.44026 22.292 2.70796C21.5597 1.97565 20.5669 1.56371 19.5312 1.5625H5.46875C4.43312 1.56371 3.44026 1.97565 2.70796 2.70796C1.97565 3.44026 1.56371 4.43312 1.5625 5.46875V14.8438C1.56371 15.8794 1.97565 16.8722 2.70796 17.6045C3.44026 18.3368 4.43312 18.7488 5.46875 18.75V18.75ZM3.125 5.46875C3.1257 4.84736 3.37285 4.25163 3.81224 3.81224C4.25163 3.37285 4.84736 3.1257 5.46875 3.125H19.5312C20.1526 3.1257 20.7484 3.37285 21.1878 3.81224C21.6271 4.25163 21.8743 4.84736 21.875 5.46875V14.8438C21.8743 15.4651 21.6271 16.0609 21.1878 16.5003C20.7484 16.9396 20.1526 17.1868 19.5312 17.1875H13.2812C13.1657 17.1875 13.0515 17.2132 12.947 17.2626C12.8425 17.3121 12.7503 17.3841 12.6771 17.4735C12.6038 17.5629 12.5513 17.6674 12.5233 17.7796C12.4953 17.8918 12.4925 18.0087 12.5152 18.1221L12.909 20.0908L9.04766 17.3328C8.91518 17.2383 8.75649 17.1875 8.59375 17.1875H5.46875C4.84736 17.1868 4.25163 16.9396 3.81224 16.5003C3.37285 16.0609 3.1257 15.4651 3.125 14.8438V5.46875Z" fill="#7D97F4" />
    <path d="M7.02884 9.37602V14.0635C7.02884 14.2707 7.11115 14.4694 7.25766 14.6159C7.40418 14.7625 7.60289 14.8448 7.81009 14.8448H14.0601C14.2673 14.8448 14.466 14.7625 14.6125 14.6159C14.759 14.4694 14.8413 14.2707 14.8413 14.0635V13.7652L16.8357 14.7623C16.9548 14.8219 17.0872 14.85 17.2202 14.844C17.3532 14.8381 17.4826 14.7982 17.5958 14.7281C17.7091 14.6581 17.8026 14.5603 17.8675 14.444C17.9323 14.3277 17.9664 14.1967 17.9663 14.0635V9.37602C17.9664 9.24284 17.9323 9.11187 17.8675 8.99554C17.8026 8.87922 17.7091 8.7814 17.5958 8.71138C17.4826 8.64137 17.3532 8.60147 17.2202 8.59548C17.0872 8.5895 16.9548 8.61762 16.8357 8.67719L14.8413 9.67436V9.37602C14.8413 9.36303 14.8346 9.35219 14.8339 9.3394C15.0878 9.08399 15.2887 8.78088 15.425 8.44752C15.5612 8.11416 15.6302 7.75713 15.6279 7.397C15.6257 7.03687 15.5522 6.68075 15.4117 6.34914C15.2712 6.01753 15.0665 5.71698 14.8094 5.4648C14.5523 5.21262 14.2479 5.01379 13.9136 4.87976C13.5793 4.74572 13.2219 4.67913 12.8618 4.68383C12.5017 4.68852 12.146 4.76439 11.8154 4.90709C11.4847 5.04979 11.1855 5.25648 10.9351 5.51527C10.6846 5.25648 10.3855 5.04979 10.0548 4.90709C9.72415 4.76439 9.36853 4.68852 9.00842 4.68383C8.64832 4.67913 8.29084 4.74572 7.95657 4.87976C7.62231 5.01379 7.31785 5.21262 7.06075 5.4648C6.80364 5.71698 6.59896 6.01753 6.45848 6.34914C6.31801 6.68075 6.24452 7.03687 6.24224 7.397C6.23997 7.75713 6.30895 8.11416 6.44522 8.44752C6.5815 8.78088 6.78236 9.08399 7.03626 9.3394C7.03558 9.35219 7.02884 9.36303 7.02884 9.37602ZM13.2788 13.2823H8.59134V10.1573H13.2788V13.2823ZM16.4038 10.6402V12.7994L14.8413 12.0181V11.4214L16.4038 10.6402ZM12.8882 6.25102C13.12 6.25102 13.3466 6.31975 13.5393 6.44851C13.732 6.57728 13.8822 6.7603 13.9709 6.97443C14.0596 7.18857 14.0828 7.42419 14.0376 7.65151C13.9924 7.87883 13.8807 8.08764 13.7169 8.25153C13.553 8.41542 13.3442 8.52703 13.1168 8.57225C12.8895 8.61747 12.6539 8.59426 12.4398 8.50556C12.2256 8.41687 12.0426 8.26666 11.9138 8.07395C11.7851 7.88124 11.7163 7.65467 11.7163 7.42289C11.7167 7.11219 11.8403 6.81432 12.0599 6.59462C12.2796 6.37492 12.5775 6.25135 12.8882 6.25102ZM8.98197 6.25102C9.21374 6.25102 9.44031 6.31975 9.63303 6.44851C9.82574 6.57728 9.97594 6.7603 10.0646 6.97443C10.1533 7.18857 10.1765 7.42419 10.1313 7.65151C10.0861 7.87883 9.9745 8.08764 9.81061 8.25153C9.64672 8.41542 9.43791 8.52703 9.21059 8.57225C8.98327 8.61747 8.74764 8.59426 8.53351 8.50556C8.31938 8.41687 8.13636 8.26666 8.00759 8.07395C7.87882 7.88124 7.81009 7.65467 7.81009 7.42289C7.81043 7.11219 7.934 6.81432 8.1537 6.59462C8.37339 6.37492 8.67127 6.25135 8.98197 6.25102Z" fill="#7D97F4" />
    <path d="M44.5312 7.8125H37.421C37.2398 6.9309 36.7602 6.13872 36.063 5.56948C35.3659 5.00024 34.4938 4.68875 33.5938 4.6875H25V6.25H33.5938C34.0769 6.25148 34.5477 6.40246 34.9416 6.68223C35.3354 6.96199 35.6331 7.35682 35.7936 7.8125H28.9062C27.8706 7.81371 26.8778 8.22566 26.1455 8.95796C25.4132 9.69026 25.0012 10.6831 25 11.7188V21.0938C25.0012 22.1294 25.4132 23.1222 26.1455 23.8545C26.8778 24.5868 27.8706 24.9988 28.9062 25H34.9846L34.3902 27.9717C34.3595 28.1253 34.3756 28.2846 34.4365 28.4289C34.4975 28.5732 34.6004 28.6959 34.7319 28.781C34.8634 28.8661 35.0175 28.9097 35.1741 28.9061C35.3307 28.9025 35.4827 28.8519 35.6102 28.7609L35.9375 28.5271V31.7078L33.7555 29.5258C33.4264 29.1968 33.0358 28.9358 32.6059 28.7577C32.1761 28.5796 31.7153 28.488 31.25 28.488C30.7847 28.488 30.3239 28.5796 29.8941 28.7577C29.4642 28.9358 29.0736 29.1968 28.7445 29.5258C28.4155 29.8548 28.1545 30.2454 27.9764 30.6753C27.7984 31.1052 27.7067 31.5659 27.7067 32.0312C27.7067 32.4966 27.7984 32.9573 27.9764 33.3872C28.1545 33.8171 28.4155 34.2077 28.7445 34.5367L33.368 39.1602C33.0695 39.6195 32.8234 40.1109 32.6343 40.625H12.5V44.5312C12.5012 45.5669 12.9132 46.5597 13.6455 47.292C14.3778 48.0243 15.3706 48.4363 16.4062 48.4375H43.75C43.9572 48.4375 44.1559 48.3552 44.3024 48.2087C44.4489 48.0622 44.5312 47.8635 44.5312 47.6562V32.8438C44.5343 30.7801 43.7914 28.7849 42.4393 27.2259L40.777 25.0702L40.8752 25H44.5312C45.5669 24.9988 46.5597 24.5868 47.292 23.8545C48.0243 23.1222 48.4363 22.1294 48.4375 21.0938V11.7188C48.4363 10.6831 48.0243 9.69026 47.292 8.95796C46.5597 8.22566 45.5669 7.81371 44.5312 7.8125ZM28.9062 9.375H44.5312C45.1526 9.3757 45.7484 9.62285 46.1878 10.0622C46.6271 10.5016 46.8743 11.0974 46.875 11.7188V19.634L43.4021 17.3187C43.2738 17.2333 43.123 17.1877 42.9688 17.1877C42.8145 17.1877 42.6637 17.2333 42.5354 17.3187L38.3079 20.1367L32.5 15.7813C32.3649 15.6798 32.2005 15.625 32.0315 15.625C31.8626 15.625 31.6982 15.6798 31.5631 15.7813L26.5625 19.5312V11.7188C26.5632 11.0974 26.8104 10.5016 27.2497 10.0622C27.6891 9.62285 28.2849 9.3757 28.9062 9.375V9.375ZM14.0625 44.5312V42.1875H32.1988C31.9464 43.7913 32.2135 45.4338 32.9611 46.875H16.4062C15.7849 46.8743 15.1891 46.6271 14.7497 46.1878C14.3104 45.7484 14.0632 45.1526 14.0625 44.5312V44.5312ZM41.2323 28.2169C42.3519 29.4983 42.9689 31.1422 42.9688 32.8438V46.875H34.7694C34.2382 46.1226 33.8856 45.2589 33.7386 44.3497C33.5916 43.4405 33.654 42.5097 33.9211 41.6282C34.0884 41.0577 34.3415 40.5159 34.6718 40.0215L35.0233 39.4981C35.1243 39.3478 35.1699 39.1671 35.1523 38.9869C35.1348 38.8067 35.0552 38.6382 34.9271 38.5102L29.849 33.432C29.6651 33.2481 29.5192 33.0297 29.4197 32.7894C29.3201 32.549 29.2689 32.2914 29.2689 32.0313C29.269 31.5059 29.4777 31.0021 29.8492 30.6307C30.2207 30.2592 30.7246 30.0505 31.2499 30.0506C31.5101 30.0506 31.7677 30.1019 32.008 30.2014C32.2483 30.301 32.4667 30.4469 32.6506 30.6309L39.2912 37.2715L40.3959 36.1668L37.5 33.2703V27.4109L39.5047 25.979L41.2323 28.2169ZM44.5312 23.4375H40.625C40.4623 23.4375 40.3036 23.4883 40.1711 23.5828L36.3098 26.3408L36.7035 24.3721C36.7262 24.2587 36.7235 24.1418 36.6955 24.0296C36.6675 23.9174 36.615 23.8129 36.5417 23.7235C36.4684 23.6341 36.3762 23.5621 36.2717 23.5126C36.1672 23.4632 36.0531 23.4375 35.9375 23.4375H28.9062C28.3488 23.436 27.8102 23.2357 27.3873 22.8726C26.9643 22.5095 26.6849 22.0073 26.5991 21.4565L32.0312 17.3828L37.8125 21.7187C37.9417 21.8158 38.0979 21.8704 38.2594 21.8749C38.421 21.8794 38.5799 21.8336 38.7144 21.7439L42.9688 18.9075L46.8359 21.4856C46.7438 22.0306 46.4619 22.5254 46.0402 22.8826C45.6184 23.2398 45.0839 23.4363 44.5312 23.4375V23.4375Z" fill="#E54799" />
    <path d="M38.2813 17.1875C38.8993 17.1875 39.5035 17.0042 40.0174 16.6608C40.5313 16.3175 40.9319 15.8294 41.1684 15.2584C41.4049 14.6874 41.4668 14.059 41.3462 13.4528C41.2256 12.8467 40.928 12.2898 40.491 11.8528C40.0539 11.4158 39.4971 11.1181 38.8909 10.9975C38.2847 10.877 37.6564 10.9389 37.0854 11.1754C36.5143 11.4119 36.0263 11.8124 35.6829 12.3263C35.3395 12.8402 35.1562 13.4444 35.1562 14.0625C35.1571 14.891 35.4867 15.6854 36.0725 16.2712C36.6584 16.8571 37.4527 17.1866 38.2813 17.1875V17.1875ZM38.2813 12.5C38.5903 12.5 38.8924 12.5916 39.1493 12.7633C39.4063 12.935 39.6066 13.179 39.7248 13.4646C39.8431 13.7501 39.874 14.0642 39.8137 14.3673C39.7534 14.6704 39.6046 14.9488 39.3861 15.1674C39.1676 15.3859 38.8892 15.5347 38.5861 15.595C38.283 15.6553 37.9688 15.6243 37.6833 15.5061C37.3978 15.3878 37.1538 15.1875 36.9821 14.9306C36.8104 14.6736 36.7188 14.3715 36.7188 14.0625C36.7192 13.6483 36.884 13.2511 37.1769 12.9582C37.4699 12.6653 37.867 12.5005 38.2813 12.5V12.5Z" fill="#7D97F4" />
    <path d="M5.46875 39.0622H17.9688C19.0044 39.061 19.9972 38.649 20.7295 37.9167C21.4618 37.1844 21.8738 36.1916 21.875 35.1559V30.4684C21.8738 29.4328 21.4618 28.4399 20.7295 27.7076C19.9972 26.9753 19.0044 26.5634 17.9688 26.5622H17.4072L17.9451 24.408C17.9822 24.2595 17.9748 24.1034 17.924 23.9591C17.8731 23.8147 17.7809 23.6885 17.659 23.5961C17.537 23.5036 17.3905 23.4491 17.2378 23.4391C17.0851 23.4292 16.9328 23.4644 16.7999 23.5402L11.5112 26.5622H5.46875C4.43312 26.5634 3.44026 26.9753 2.70796 27.7076C1.97565 28.4399 1.56371 29.4328 1.5625 30.4684V35.1559C1.56371 36.1916 1.97565 37.1844 2.70796 37.9167C3.44026 38.649 4.43312 39.061 5.46875 39.0622V39.0622ZM3.125 30.4684C3.1257 29.8471 3.37285 29.2513 3.81224 28.8119C4.25163 28.3725 4.84736 28.1254 5.46875 28.1247H11.7188C11.8547 28.1247 11.9883 28.0892 12.1063 28.0217L15.9858 25.8049L15.6486 27.1538C15.6198 27.269 15.6176 27.3892 15.6422 27.5053C15.6668 27.6215 15.7176 27.7305 15.7906 27.8241C15.8636 27.9177 15.957 27.9934 16.0637 28.0455C16.1704 28.0976 16.2875 28.1247 16.4062 28.1247H17.9688C18.5901 28.1254 19.1859 28.3725 19.6253 28.8119C20.0646 29.2513 20.3118 29.8471 20.3125 30.4684V35.1559C20.3118 35.7773 20.0646 36.3731 19.6253 36.8125C19.1859 37.2518 18.5901 37.499 17.9688 37.4997H5.46875C4.84736 37.499 4.25163 37.2518 3.81224 36.8125C3.37285 36.3731 3.1257 35.7773 3.125 35.1559V30.4684Z" fill="#7D97F4" />
    <path d="M12.5 30.4688H5.46875C5.03728 30.4688 4.6875 30.8185 4.6875 31.25C4.6875 31.6815 5.03728 32.0313 5.46875 32.0313H12.5C12.9315 32.0313 13.2812 31.6815 13.2812 31.25C13.2812 30.8185 12.9315 30.4688 12.5 30.4688Z" fill="#E54799" />
    <path d="M17.9688 30.4688H15.625C15.1935 30.4688 14.8438 30.8185 14.8438 31.25C14.8438 31.6815 15.1935 32.0312 15.625 32.0312H17.9688C18.4002 32.0312 18.75 31.6815 18.75 31.25C18.75 30.8185 18.4002 30.4688 17.9688 30.4688Z" fill="#7D97F4" />
    <path d="M17.9688 33.5938H5.46875C5.03728 33.5938 4.6875 33.9435 4.6875 34.375C4.6875 34.8065 5.03728 35.1562 5.46875 35.1562H17.9688C18.4002 35.1562 18.75 34.8065 18.75 34.375C18.75 33.9435 18.4002 33.5938 17.9688 33.5938Z" fill="#7D97F4" />
</svg>
