<svg width="186" height="46" viewBox="0 0 186 46" fill="none" xmlns="http://www.w3.org/2000/svg">
    <path d="M0 16C0 7.1634 7.163 0 16 0H170C178.837 0 186 7.1634 186 16V30C186 38.8366 178.837 46 170 46H16C7.163 46 0 38.8366 0 30V16Z" fill="white" />
    <path d="M22.0938 38H20.6878V32.8672H14.4998V38H13.0938V26.7266H14.4998V31.6016H20.6878V26.7266H22.0938V38ZM26.9178 30.9141C26.2878 30.9141 25.7638 31.1328 25.3478 31.5703C24.9358 32.0026 24.7098 32.5599 24.6678 33.2422H29.0818C29.0668 32.5547 28.8608 31.9948 28.4648 31.5625C28.0688 31.1302 27.5538 30.9141 26.9178 30.9141ZM29.0508 35.6719H30.3867C30.2667 36.3906 29.8917 36.9818 29.2617 37.4453C28.6367 37.9089 27.8838 38.1406 27.0038 38.1406C25.8428 38.1406 24.9287 37.7656 24.2617 37.0156C23.5947 36.2656 23.2617 35.25 23.2617 33.9688C23.2617 32.6979 23.5947 31.6745 24.2617 30.8984C24.9337 30.1224 25.8268 29.7344 26.9418 29.7344C28.0348 29.7344 28.8998 30.1016 29.5348 30.8359C30.1708 31.5703 30.4878 32.5547 30.4878 33.7891V34.3047H24.6598V34.3828C24.6598 35.1641 24.8738 35.7891 25.3008 36.2578C25.7278 36.7266 26.3058 36.9609 27.0348 36.9609C27.5458 36.9609 27.9808 36.8438 28.3398 36.6094C28.6988 36.375 28.9358 36.0625 29.0508 35.6719ZM32.1248 41.0391C31.8858 41.0391 31.6898 41.0234 31.5388 40.9922V39.8516C31.6638 39.8776 31.8408 39.8906 32.0708 39.8906C32.4508 39.8906 32.7558 39.7891 32.9848 39.5859C33.2138 39.388 33.4068 39.0521 33.5628 38.5781L33.7498 38.0078L30.7498 29.875H32.2028L34.4528 36.6406H34.4768L36.7268 29.875H38.1568L34.9608 38.5703C34.6118 39.5182 34.2348 40.1667 33.8278 40.5156C33.4268 40.8646 32.8598 41.0391 32.1248 41.0391ZM47.7578 31.1641C47.2378 31.1641 46.8288 31.3568 46.5318 31.7422C46.2398 32.1276 46.0938 32.6615 46.0938 33.3438C46.0938 34.0208 46.2398 34.5547 46.5318 34.9453C46.8288 35.3359 47.2318 35.5312 47.7428 35.5312C48.2788 35.5312 48.7058 35.3333 49.0238 34.9375C49.3418 34.5417 49.5008 34.0104 49.5008 33.3438C49.5008 32.6771 49.3418 32.1484 49.0238 31.7578C48.7118 31.362 48.2898 31.1641 47.7578 31.1641ZM48.0318 26.7891C48.9328 26.7891 49.7687 26.9297 50.5397 27.2109C51.3158 27.487 51.9798 27.875 52.5318 28.375C53.0838 28.8698 53.5158 29.4766 53.8288 30.1953C54.1408 30.9089 54.2978 31.6901 54.2978 32.5391C54.2978 33.7995 54.0338 34.8099 53.5078 35.5703C52.9818 36.3255 52.2658 36.7031 51.3598 36.7031C50.9068 36.7031 50.5137 36.5807 50.1797 36.3359C49.8467 36.0911 49.6568 35.776 49.6098 35.3906H49.5478C49.3808 35.7865 49.1228 36.0938 48.7738 36.3125C48.4298 36.526 48.0268 36.6328 47.5628 36.6328C46.7508 36.6328 46.0938 36.3281 45.5938 35.7188C45.0938 35.1094 44.8438 34.3073 44.8438 33.3125C44.8438 32.3646 45.0968 31.5911 45.6018 30.9922C46.1068 30.388 46.7608 30.0859 47.5628 30.0859C47.9798 30.0859 48.3628 30.1875 48.7118 30.3906C49.0608 30.5885 49.3078 30.8542 49.4538 31.1875H49.5158V30.2344H50.6958V34.8203C50.6958 35.0859 50.7687 35.2969 50.9147 35.4531C51.0658 35.6094 51.2868 35.6875 51.5788 35.6875C52.0578 35.6875 52.4458 35.4089 52.7428 34.8516C53.0448 34.2891 53.1958 33.513 53.1958 32.5234C53.1958 31.5911 52.9748 30.7656 52.5318 30.0469C52.0888 29.3229 51.4667 28.763 50.6647 28.3672C49.8677 27.9714 48.9557 27.7734 47.9297 27.7734C46.9297 27.7734 46.0288 28.0104 45.2268 28.4844C44.4298 28.9531 43.8048 29.6146 43.3518 30.4688C42.9038 31.3177 42.6797 32.2786 42.6797 33.3516C42.6797 34.2161 42.8178 34.9974 43.0938 35.6953C43.3757 36.3932 43.7608 36.9714 44.2508 37.4297C44.7448 37.8828 45.3258 38.2292 45.9928 38.4688C46.6648 38.7135 47.3937 38.8359 48.1797 38.8359C48.7057 38.8359 49.2118 38.8021 49.6958 38.7344C50.1798 38.6667 50.5478 38.5755 50.7978 38.4609V39.4453C50.0738 39.7005 49.1957 39.8281 48.1647 39.8281C47.2057 39.8281 46.3258 39.6823 45.5238 39.3906C44.7218 39.1042 44.0268 38.6901 43.4378 38.1484C42.8548 37.6068 42.3988 36.9219 42.0708 36.0938C41.7428 35.2656 41.5788 34.3359 41.5788 33.3047C41.5788 32.3411 41.7377 31.4557 42.0547 30.6484C42.3727 29.8359 42.8128 29.1484 43.3758 28.5859C43.9428 28.0182 44.6258 27.5781 45.4228 27.2656C46.2248 26.9479 47.0938 26.7891 48.0318 26.7891ZM57.6028 35.3516H59.0008C59.0168 35.8307 59.1878 36.2214 59.5168 36.5234C59.8498 36.8203 60.2718 36.9688 60.7818 36.9688C61.4018 36.9688 61.8758 36.7891 62.2038 36.4297C62.5317 36.0651 62.6958 35.5391 62.6958 34.8516V26.7266H64.1028V34.8594C64.1028 35.9271 63.8108 36.763 63.2278 37.3672C62.6438 37.9661 61.8317 38.2656 60.7897 38.2656C59.8527 38.2656 59.0868 37.9948 58.4928 37.4531C57.8988 36.9062 57.6028 36.2057 57.6028 35.3516ZM65.6688 38V29.875H66.9498V31.1719H66.9818C67.1787 30.7292 67.4788 30.3802 67.8798 30.125C68.2808 29.8646 68.7498 29.7344 69.2858 29.7344C69.8377 29.7344 70.3117 29.8698 70.7077 30.1406C71.1037 30.4062 71.3897 30.7865 71.5677 31.2812H71.5988C71.8228 30.7969 72.1587 30.4193 72.6068 30.1484C73.0597 29.8724 73.5728 29.7344 74.1458 29.7344C74.9478 29.7344 75.5877 29.9766 76.0677 30.4609C76.5518 30.9401 76.7938 31.5833 76.7938 32.3906V38H75.4348V32.7031C75.4348 32.1458 75.2858 31.7135 74.9888 31.4062C74.6978 31.0938 74.2837 30.9375 73.7467 30.9375C73.2108 30.9375 72.7708 31.1172 72.4268 31.4766C72.0828 31.8307 71.9108 32.2839 71.9108 32.8359V38H70.5518V32.5547C70.5518 32.0651 70.4008 31.6745 70.0988 31.3828C69.7968 31.0859 69.3928 30.9375 68.8878 30.9375C68.3508 30.9375 67.9058 31.125 67.5518 31.5C67.2028 31.875 67.0278 32.3438 67.0278 32.9062V38H65.6688ZM80.7978 36.9844C81.4388 36.9844 81.9748 36.7865 82.4078 36.3906C82.8448 35.9896 83.0638 35.4974 83.0638 34.9141V34.25L80.8918 34.3828C80.3448 34.4193 79.9208 34.5521 79.6178 34.7812C79.3218 35.0104 79.1728 35.3177 79.1728 35.7031C79.1728 36.0885 79.3218 36.3984 79.6178 36.6328C79.9147 36.8672 80.3088 36.9844 80.7978 36.9844ZM80.4928 38.1406C79.6858 38.1406 79.0328 37.9167 78.5328 37.4688C78.0378 37.0208 77.7897 36.4323 77.7897 35.7031C77.7897 35.0052 78.0458 34.4479 78.5558 34.0312C79.0718 33.6146 79.7977 33.3802 80.7357 33.3281L83.0638 33.1953V32.5156C83.0638 32.0208 82.9078 31.6328 82.5948 31.3516C82.2828 31.0703 81.8448 30.9297 81.2828 30.9297C80.7668 30.9297 80.3477 31.0443 80.0247 31.2734C79.7018 31.4974 79.4958 31.8125 79.4078 32.2188H78.0948C78.1418 31.4948 78.4538 30.901 79.0328 30.4375C79.6158 29.9688 80.3757 29.7344 81.3138 29.7344C82.2668 29.7344 83.0218 29.974 83.5788 30.4531C84.1418 30.9323 84.4228 31.5755 84.4228 32.3828V38H83.1338V36.6016H83.1028C82.8577 37.0651 82.4987 37.4375 82.0247 37.7188C81.5508 38 81.0397 38.1406 80.4928 38.1406ZM85.8098 38V26.7266H87.1688V38H85.8098Z" fill="#11151B" />
    <path d="M14.9803 15.0702C14.5203 15.0702 14.1073 14.9902 13.7403 14.8302C13.3803 14.6635 13.0973 14.4369 12.8903 14.1502C12.6833 13.8569 12.5773 13.5202 12.5703 13.1402H13.5403C13.5733 13.4669 13.7073 13.7435 13.9403 13.9702C14.1803 14.1902 14.5273 14.3002 14.9803 14.3002C15.4133 14.3002 15.7533 14.1935 16.0003 13.9802C16.2533 13.7602 16.3803 13.4802 16.3803 13.1402C16.3803 12.8735 16.3073 12.6569 16.1603 12.4902C16.0133 12.3235 15.8303 12.1969 15.6103 12.1102C15.3903 12.0235 15.0933 11.9302 14.7203 11.8302C14.2603 11.7102 13.8903 11.5902 13.6103 11.4702C13.3373 11.3502 13.1003 11.1635 12.9003 10.9102C12.7073 10.6502 12.6103 10.3035 12.6103 9.87016C12.6103 9.49016 12.7073 9.15346 12.9003 8.86016C13.0933 8.56686 13.3633 8.34016 13.7103 8.18016C14.0633 8.02016 14.4673 7.94016 14.9203 7.94016C15.5733 7.94016 16.1073 8.10346 16.5203 8.43016C16.9403 8.75686 17.1773 9.19016 17.2303 9.73016H16.2303C16.1973 9.46346 16.0573 9.23016 15.8103 9.03016C15.5633 8.82346 15.2373 8.72016 14.8303 8.72016C14.4503 8.72016 14.1403 8.82016 13.9003 9.02016C13.6603 9.21346 13.5403 9.48686 13.5403 9.84016C13.5403 10.0935 13.6103 10.3002 13.7503 10.4602C13.8973 10.6202 14.0733 10.7435 14.2803 10.8302C14.4933 10.9102 14.7903 11.0035 15.1703 11.1102C15.6303 11.2369 16.0003 11.3635 16.2803 11.4902C16.5603 11.6102 16.8003 11.8002 17.0003 12.0602C17.2003 12.3135 17.3003 12.6602 17.3003 13.1002C17.3003 13.4402 17.2103 13.7602 17.0303 14.0602C16.8503 14.3602 16.5833 14.6035 16.2303 14.7902C15.8773 14.9769 15.4603 15.0702 14.9803 15.0702ZM21.0293 15.0902C20.5163 15.0902 20.0493 14.9735 19.6293 14.7402C19.2163 14.5069 18.8893 14.1769 18.6493 13.7502C18.4163 13.3169 18.2993 12.8169 18.2993 12.2502C18.2993 11.6902 18.4193 11.1969 18.6593 10.7702C18.9063 10.3369 19.2393 10.0069 19.6593 9.78016C20.0793 9.54686 20.5493 9.43016 21.0693 9.43016C21.5893 9.43016 22.0593 9.54686 22.4793 9.78016C22.8993 10.0069 23.2293 10.3335 23.4693 10.7602C23.7163 11.1869 23.8393 11.6835 23.8393 12.2502C23.8393 12.8169 23.7123 13.3169 23.4593 13.7502C23.2123 14.1769 22.8763 14.5069 22.4493 14.7402C22.0223 14.9735 21.5493 15.0902 21.0293 15.0902ZM21.0293 14.2902C21.3563 14.2902 21.6623 14.2135 21.9493 14.0602C22.2363 13.9069 22.4663 13.6769 22.6393 13.3702C22.8193 13.0635 22.9093 12.6902 22.9093 12.2502C22.9093 11.8102 22.8223 11.4369 22.6493 11.1302C22.4763 10.8235 22.2493 10.5969 21.9693 10.4502C21.6893 10.2969 21.3863 10.2202 21.0593 10.2202C20.7263 10.2202 20.4193 10.2969 20.1393 10.4502C19.8663 10.5969 19.6463 10.8235 19.4793 11.1302C19.3123 11.4369 19.2293 11.8102 19.2293 12.2502C19.2293 12.6969 19.3093 13.0735 19.4693 13.3802C19.6363 13.6869 19.8563 13.9169 20.1293 14.0702C20.4023 14.2169 20.7023 14.2902 21.0293 14.2902ZM25.9463 10.5302C26.1263 10.2169 26.3923 9.95686 26.7463 9.75016C27.1063 9.53686 27.5223 9.43016 27.9963 9.43016C28.4823 9.43016 28.9223 9.54686 29.3163 9.78016C29.7163 10.0135 30.0293 10.3435 30.2563 10.7702C30.4823 11.1902 30.5963 11.6802 30.5963 12.2402C30.5963 12.7935 30.4823 13.2869 30.2563 13.7202C30.0293 14.1535 29.7163 14.4902 29.3163 14.7302C28.9223 14.9702 28.4823 15.0902 27.9963 15.0902C27.5293 15.0902 27.1163 14.9869 26.7563 14.7802C26.4023 14.5669 26.1323 14.3035 25.9463 13.9902V17.6002H25.0363V9.52016H25.9463V10.5302ZM29.6663 12.2402C29.6663 11.8269 29.5823 11.4669 29.4163 11.1602C29.2493 10.8535 29.0223 10.6202 28.7363 10.4602C28.4563 10.3002 28.1463 10.2202 27.8063 10.2202C27.4723 10.2202 27.1623 10.3035 26.8763 10.4702C26.5963 10.6302 26.3693 10.8669 26.1963 11.1802C26.0293 11.4869 25.9463 11.8435 25.9463 12.2502C25.9463 12.6635 26.0293 13.0269 26.1963 13.3402C26.3693 13.6469 26.5963 13.8835 26.8763 14.0502C27.1623 14.2102 27.4723 14.2902 27.8063 14.2902C28.1463 14.2902 28.4563 14.2102 28.7363 14.0502C29.0223 13.8835 29.2493 13.6469 29.4163 13.3402C29.5823 13.0269 29.6663 12.6602 29.6663 12.2402ZM34.5133 9.42015C34.9273 9.42015 35.3003 9.51015 35.6333 9.69016C35.9673 9.86345 36.2273 10.1269 36.4133 10.4802C36.6073 10.8335 36.7033 11.2635 36.7033 11.7702V15.0002H35.8033V11.9002C35.8033 11.3535 35.6673 10.9369 35.3933 10.6502C35.1203 10.3569 34.7473 10.2102 34.2733 10.2102C33.7933 10.2102 33.4103 10.3602 33.1233 10.6602C32.8433 10.9602 32.7033 11.3969 32.7033 11.9702V15.0002H31.7933V7.60015H32.7033V10.3002C32.8833 10.0202 33.1303 9.80346 33.4433 9.65016C33.7633 9.49686 34.1203 9.42015 34.5133 9.42015ZM38.6603 8.63016C38.4873 8.63016 38.3403 8.57016 38.2203 8.45016C38.1003 8.33016 38.0403 8.18345 38.0403 8.01015C38.0403 7.83685 38.1003 7.69016 38.2203 7.57016C38.3403 7.45016 38.4873 7.39016 38.6603 7.39016C38.8273 7.39016 38.9673 7.45016 39.0803 7.57016C39.2003 7.69016 39.2603 7.83685 39.2603 8.01015C39.2603 8.18345 39.2003 8.33016 39.0803 8.45016C38.9673 8.57016 38.8273 8.63016 38.6603 8.63016ZM39.1003 9.52016V15.0002H38.1903V9.52016H39.1003ZM40.3113 12.2402C40.3113 11.6802 40.4243 11.1902 40.6513 10.7702C40.8783 10.3435 41.1883 10.0135 41.5813 9.78016C41.9813 9.54686 42.4243 9.43016 42.9113 9.43016C43.3913 9.43016 43.8083 9.53346 44.1613 9.74016C44.5143 9.94686 44.7783 10.2069 44.9513 10.5202V9.52016H45.8713V15.0002H44.9513V13.9802C44.7713 14.3002 44.5013 14.5669 44.1413 14.7802C43.7883 14.9869 43.3743 15.0902 42.9013 15.0902C42.4143 15.0902 41.9743 14.9702 41.5813 14.7302C41.1883 14.4902 40.8783 14.1535 40.6513 13.7202C40.4243 13.2869 40.3113 12.7935 40.3113 12.2402ZM44.9513 12.2502C44.9513 11.8369 44.8683 11.4769 44.7013 11.1702C44.5343 10.8635 44.3083 10.6302 44.0213 10.4702C43.7413 10.3035 43.4313 10.2202 43.0913 10.2202C42.7513 10.2202 42.4413 10.3002 42.1613 10.4602C41.8813 10.6202 41.6583 10.8535 41.4913 11.1602C41.3243 11.4669 41.2413 11.8269 41.2413 12.2402C41.2413 12.6602 41.3243 13.0269 41.4913 13.3402C41.6583 13.6469 41.8813 13.8835 42.1613 14.0502C42.4413 14.2102 42.7513 14.2902 43.0913 14.2902C43.4313 14.2902 43.7413 14.2102 44.0213 14.0502C44.3083 13.8835 44.5343 13.6469 44.7013 13.3402C44.8683 13.0269 44.9513 12.6635 44.9513 12.2502ZM49.7493 16.8602C49.1093 16.2335 48.6093 15.4369 48.2493 14.4702C47.8953 13.5035 47.7193 12.4602 47.7193 11.3402C47.7193 10.1935 47.9053 9.12346 48.2793 8.13016C48.6593 7.13016 49.1993 6.30686 49.8993 5.66016H50.8493V5.75016C50.1023 6.45016 49.5393 7.29346 49.1593 8.28016C48.7853 9.26016 48.5993 10.2802 48.5993 11.3402C48.5993 12.3735 48.7753 13.3602 49.1293 14.3002C49.4893 15.2402 50.0123 16.0635 50.6993 16.7702V16.8602H49.7493ZM51.6103 12.2502C51.6103 11.6835 51.7233 11.1902 51.9503 10.7702C52.1763 10.3435 52.4903 10.0135 52.8903 9.78016C53.2963 9.54686 53.7603 9.43016 54.2803 9.43016C54.9533 9.43016 55.5063 9.59345 55.9403 9.92015C56.3803 10.2469 56.6703 10.7002 56.8103 11.2802H55.8303C55.7363 10.9469 55.5533 10.6835 55.2803 10.4902C55.0133 10.2969 54.6803 10.2002 54.2803 10.2002C53.7603 10.2002 53.3403 10.3802 53.0203 10.7402C52.7003 11.0935 52.5403 11.5969 52.5403 12.2502C52.5403 12.9102 52.7003 13.4202 53.0203 13.7802C53.3403 14.1402 53.7603 14.3202 54.2803 14.3202C54.6803 14.3202 55.0133 14.2269 55.2803 14.0402C55.5463 13.8535 55.7303 13.5869 55.8303 13.2402H56.8103C56.6633 13.8002 56.3703 14.2502 55.9303 14.5902C55.4903 14.9235 54.9403 15.0902 54.2803 15.0902C53.7603 15.0902 53.2963 14.9735 52.8903 14.7402C52.4903 14.5069 52.1763 14.1769 51.9503 13.7502C51.7233 13.3235 51.6103 12.8235 51.6103 12.2502ZM60.4143 15.0902C59.9013 15.0902 59.4343 14.9735 59.0143 14.7402C58.6013 14.5069 58.2743 14.1769 58.0343 13.7502C57.8013 13.3169 57.6843 12.8169 57.6843 12.2502C57.6843 11.6902 57.8043 11.1969 58.0443 10.7702C58.2913 10.3369 58.6243 10.0069 59.0443 9.78016C59.4643 9.54686 59.9343 9.43016 60.4543 9.43016C60.9743 9.43016 61.4443 9.54686 61.8643 9.78016C62.2843 10.0069 62.6143 10.3335 62.8543 10.7602C63.1013 11.1869 63.2243 11.6835 63.2243 12.2502C63.2243 12.8169 63.0973 13.3169 62.8443 13.7502C62.5973 14.1769 62.2613 14.5069 61.8343 14.7402C61.4073 14.9735 60.9343 15.0902 60.4143 15.0902ZM60.4143 14.2902C60.7413 14.2902 61.0473 14.2135 61.3343 14.0602C61.6213 13.9069 61.8513 13.6769 62.0243 13.3702C62.2043 13.0635 62.2943 12.6902 62.2943 12.2502C62.2943 11.8102 62.2073 11.4369 62.0343 11.1302C61.8613 10.8235 61.6343 10.5969 61.3543 10.4502C61.0743 10.2969 60.7713 10.2202 60.4443 10.2202C60.1113 10.2202 59.8043 10.2969 59.5243 10.4502C59.2513 10.5969 59.0313 10.8235 58.8643 11.1302C58.6973 11.4369 58.6143 11.8102 58.6143 12.2502C58.6143 12.6969 58.6943 13.0735 58.8543 13.3802C59.0213 13.6869 59.2413 13.9169 59.5143 14.0702C59.7873 14.2169 60.0873 14.2902 60.4143 14.2902ZM65.3303 10.5302C65.5103 10.2169 65.7773 9.95686 66.1303 9.75016C66.4903 9.53686 66.9073 9.43016 67.3803 9.43016C67.8673 9.43016 68.3073 9.54686 68.7003 9.78016C69.1003 10.0135 69.4143 10.3435 69.6403 10.7702C69.8673 11.1902 69.9803 11.6802 69.9803 12.2402C69.9803 12.7935 69.8673 13.2869 69.6403 13.7202C69.4143 14.1535 69.1003 14.4902 68.7003 14.7302C68.3073 14.9702 67.8673 15.0902 67.3803 15.0902C66.9143 15.0902 66.5003 14.9869 66.1403 14.7802C65.7873 14.5669 65.5173 14.3035 65.3303 13.9902V17.6002H64.4203V9.52016H65.3303V10.5302ZM69.0503 12.2402C69.0503 11.8269 68.9673 11.4669 68.8003 11.1602C68.6343 10.8535 68.4073 10.6202 68.1203 10.4602C67.8403 10.3002 67.5303 10.2202 67.1903 10.2202C66.8573 10.2202 66.5473 10.3035 66.2603 10.4702C65.9803 10.6302 65.7543 10.8669 65.5803 11.1802C65.4143 11.4869 65.3303 11.8435 65.3303 12.2502C65.3303 12.6635 65.4143 13.0269 65.5803 13.3402C65.7543 13.6469 65.9803 13.8835 66.2603 14.0502C66.5473 14.2102 66.8573 14.2902 67.1903 14.2902C67.5303 14.2902 67.8403 14.2102 68.1203 14.0502C68.4073 13.8835 68.6343 13.6469 68.8003 13.3402C68.9673 13.0269 69.0503 12.6602 69.0503 12.2402ZM75.8983 9.52016L72.5983 17.5802H71.6583L72.7383 14.9402L70.5283 9.52016H71.5383L73.2583 13.9602L74.9583 9.52016H75.8983ZM84.1133 9.52016L82.4033 15.0002H81.4633L80.1433 10.6502L78.8233 15.0002H77.8833L76.1633 9.52016H77.0933L78.3533 14.1202L79.7133 9.52016H80.6433L81.9733 14.1302L83.2133 9.52016H84.1133ZM85.9263 10.4102C86.0863 10.0969 86.3133 9.85346 86.6063 9.68016C86.9063 9.50686 87.2693 9.42015 87.6963 9.42015V10.3602H87.4563C86.4363 10.3602 85.9263 10.9135 85.9263 12.0202V15.0002H85.0163V9.52016H85.9263V10.4102ZM89.2173 8.63016C89.0433 8.63016 88.8973 8.57016 88.7773 8.45016C88.6573 8.33016 88.5973 8.18345 88.5973 8.01015C88.5973 7.83685 88.6573 7.69016 88.7773 7.57016C88.8973 7.45016 89.0433 7.39016 89.2173 7.39016C89.3833 7.39016 89.5233 7.45016 89.6373 7.57016C89.7573 7.69016 89.8173 7.83685 89.8173 8.01015C89.8173 8.18345 89.7573 8.33016 89.6373 8.45016C89.5233 8.57016 89.3833 8.63016 89.2173 8.63016ZM89.6573 9.52016V15.0002H88.7473V9.52016H89.6573ZM92.3183 10.2702V13.5002C92.3183 13.7669 92.3743 13.9569 92.4883 14.0702C92.6013 14.1769 92.7983 14.2302 93.0773 14.2302H93.7483V15.0002H92.9283C92.4213 15.0002 92.0413 14.8835 91.7883 14.6502C91.5343 14.4169 91.4083 14.0335 91.4083 13.5002V10.2702H90.6983V9.52016H91.4083V8.14016H92.3183V9.52016H93.7483V10.2702H92.3183ZM99.8503 12.0502C99.8503 12.2235 99.8403 12.4069 99.8203 12.6002H95.4403C95.4733 13.1402 95.6573 13.5635 95.9903 13.8702C96.3303 14.1702 96.7403 14.3202 97.2203 14.3202C97.6133 14.3202 97.9403 14.2302 98.2003 14.0502C98.4673 13.8635 98.6533 13.6169 98.7603 13.3102H99.7403C99.5933 13.8369 99.3003 14.2669 98.8603 14.6002C98.4203 14.9269 97.8733 15.0902 97.2203 15.0902C96.7003 15.0902 96.2333 14.9735 95.8203 14.7402C95.4133 14.5069 95.0933 14.1769 94.8603 13.7502C94.6273 13.3169 94.5103 12.8169 94.5103 12.2502C94.5103 11.6835 94.6233 11.1869 94.8503 10.7602C95.0773 10.3335 95.3933 10.0069 95.8003 9.78016C96.2133 9.54686 96.6873 9.43016 97.2203 9.43016C97.7403 9.43016 98.2003 9.54346 98.6003 9.77016C99.0003 9.99686 99.3073 10.3102 99.5203 10.7102C99.7403 11.1035 99.8503 11.5502 99.8503 12.0502ZM98.9103 11.8602C98.9103 11.5135 98.8333 11.2169 98.6803 10.9702C98.5273 10.7169 98.3173 10.5269 98.0503 10.4002C97.7903 10.2669 97.5003 10.2002 97.1803 10.2002C96.7203 10.2002 96.3273 10.3469 96.0003 10.6402C95.6803 10.9335 95.4973 11.3402 95.4503 11.8602H98.9103ZM101.961 10.4102C102.121 10.0969 102.348 9.85346 102.641 9.68016C102.941 9.50686 103.305 9.42015 103.731 9.42015V10.3602H103.491C102.471 10.3602 101.961 10.9135 101.961 12.0202V15.0002H101.051V9.52016H101.961V10.4102ZM104.492 16.8602V16.7702C105.178 16.0635 105.698 15.2402 106.052 14.3002C106.412 13.3602 106.592 12.3735 106.592 11.3402C106.592 10.2802 106.402 9.26016 106.022 8.28016C105.648 7.29346 105.088 6.45016 104.342 5.75016V5.66016H105.292C105.992 6.30686 106.528 7.13016 106.902 8.13016C107.282 9.12346 107.472 10.1935 107.472 11.3402C107.472 12.4602 107.292 13.5035 106.932 14.4702C106.578 15.4369 106.082 16.2335 105.442 16.8602H104.492Z" fill="#E54799" />
</svg>
