<svg width="238" height="75" viewBox="0 0 238 75" fill="none" xmlns="http://www.w3.org/2000/svg">
    <g filter="url(#filter0_d_33_572)">
        <path d="M9 24C9 15.163 16.163 8 25 8H213C221.837 8 229 15.163 229 24V49C229 57.837 221.837 65 213 65H25C16.163 65 9 57.837 9 49V24Z" fill="white" />
        <path d="M29.4223 48.0001L28.2893 44.7731H23.8053L22.6723 48.0001H21.1953L25.3523 36.7271H26.7423L30.8983 48.0001H29.4223ZM26.0233 38.438L24.2193 43.5781H27.8753L26.0703 38.438H26.0233ZM35.6063 48.1411C35.0223 48.1411 34.5013 48.0081 34.0433 47.7421C33.5903 47.4771 33.2313 47.1041 32.9653 46.6251H32.9343V48.0001H31.6373V36.7271H32.9963V41.2341H33.0283C33.2833 40.7661 33.6373 40.3981 34.0903 40.1331C34.5483 39.8671 35.0613 39.7341 35.6293 39.7341C36.6553 39.7341 37.4833 40.1171 38.1133 40.8831C38.7443 41.6481 39.0593 42.667 39.0593 43.938C39.0593 45.214 38.7443 46.2341 38.1133 47.0001C37.4833 47.7601 36.6473 48.1411 35.6063 48.1411ZM35.3403 40.9301C34.6473 40.9301 34.0823 41.2081 33.6453 41.7661C33.2073 42.3181 32.9883 43.042 32.9883 43.938C32.9883 44.839 33.2073 45.5651 33.6453 46.1171C34.0823 46.6691 34.6473 46.9451 35.3403 46.9451C36.0593 46.9451 36.6263 46.6771 37.0433 46.1411C37.4603 45.5991 37.6683 44.865 37.6683 43.938C37.6683 43.016 37.4603 42.2841 37.0433 41.7421C36.6263 41.2011 36.0593 40.9301 35.3403 40.9301ZM43.3993 48.1411C42.2633 48.1411 41.3523 47.7631 40.6643 47.0081C39.9773 46.2471 39.6333 45.224 39.6333 43.938C39.6333 42.651 39.9773 41.6301 40.6643 40.8751C41.3523 40.1151 42.2633 39.7341 43.3993 39.7341C44.5293 39.7341 45.4383 40.1151 46.1253 40.8751C46.8133 41.6301 47.1573 42.651 47.1573 43.938C47.1573 45.219 46.8133 46.2401 46.1253 47.0001C45.4383 47.7601 44.5293 48.1411 43.3993 48.1411ZM41.6573 46.1481C42.0893 46.6801 42.6703 46.9451 43.3993 46.9451C44.1283 46.9451 44.7063 46.6821 45.1333 46.1561C45.5603 45.6251 45.7743 44.885 45.7743 43.938C45.7743 42.99 45.5603 42.2531 45.1333 41.7271C44.7063 41.1951 44.1283 40.9301 43.3993 40.9301C42.6703 40.9301 42.0893 41.1951 41.6573 41.7271C41.2293 42.2581 41.0163 42.995 41.0163 43.938C41.0163 44.88 41.2293 45.6171 41.6573 46.1481ZM54.7933 39.8751V48.0001H53.5043V46.6801H53.4733C52.9683 47.6541 52.1093 48.1411 50.8953 48.1411C50.0153 48.1411 49.3253 47.8751 48.8253 47.3441C48.3303 46.8071 48.0833 46.0761 48.0833 45.1481V39.8751H49.4423V44.9061C49.4423 46.2601 50.0673 46.938 51.3173 46.938C51.9733 46.938 52.4893 46.7321 52.8643 46.3201C53.2443 45.9041 53.4343 45.3461 53.4343 44.6481V39.8751H54.7933ZM56.5873 37.9141H57.9463V39.8751H59.5243V40.9921H57.9463V45.8201C57.9463 46.1901 58.0273 46.4641 58.1883 46.6411C58.3503 46.8121 58.6053 46.8981 58.9543 46.8981C59.1733 46.8981 59.3603 46.8851 59.5163 46.8591V48.0001C59.3393 48.0421 59.0533 48.0621 58.6573 48.0621C57.9123 48.0621 57.3813 47.8961 57.0633 47.5621C56.7453 47.2291 56.5873 46.6721 56.5873 45.8911V40.9921H55.3763V39.8751H56.5873V37.9141ZM63.3993 39.9771C63.3993 38.9921 63.7543 38.1741 64.4623 37.5231C65.1703 36.8671 66.0563 36.5391 67.1183 36.5391C68.1233 36.5391 68.9753 36.839 69.6733 37.438C70.3713 38.036 70.7203 38.7681 70.7203 39.6331C70.7203 40.2581 70.5483 40.859 70.2043 41.438C69.8603 42.016 69.2143 42.7941 68.2673 43.7731L65.4153 46.7191V46.7501H70.9073V48.0001H63.4703V47.0311L67.4383 42.8521C68.1943 42.0551 68.6943 41.4511 68.9383 41.0391C69.1883 40.6281 69.3133 40.1881 69.3133 39.7191C69.3133 39.1771 69.0953 38.7161 68.6573 38.3361C68.2253 37.9561 67.6993 37.7661 67.0793 37.7661C66.4183 37.7661 65.8663 37.9771 65.4233 38.3981C64.9803 38.8201 64.7593 39.3461 64.7593 39.9771V39.9841H63.3993V39.9771ZM74.4193 42.7971V41.6091H75.7713C76.4163 41.6091 76.9453 41.4241 77.3573 41.0551C77.7683 40.6801 77.9743 40.2061 77.9743 39.6331C77.9743 39.0601 77.7843 38.6041 77.4033 38.2661C77.0233 37.9271 76.4843 37.7581 75.7863 37.7581C75.1403 37.7581 74.6143 37.9301 74.2083 38.2731C73.8023 38.6171 73.5683 39.0861 73.5053 39.6801H72.1533C72.2323 38.7211 72.6013 37.9581 73.2633 37.3911C73.9293 36.8231 74.7913 36.5391 75.8493 36.5391C76.8643 36.5391 77.7083 36.8121 78.3803 37.3591C79.0523 37.9061 79.3883 38.6021 79.3883 39.4451C79.3883 40.1481 79.1793 40.7401 78.7633 41.2191C78.3463 41.6981 77.7843 42.0001 77.0753 42.1251V42.1561C77.9293 42.2081 78.6093 42.4821 79.1143 42.9771C79.6203 43.4661 79.8723 44.1071 79.8723 44.8981C79.8723 45.5291 79.6953 46.0961 79.3413 46.6021C78.9873 47.1071 78.5083 47.4971 77.9033 47.7731C77.2993 48.0491 76.6303 48.188 75.8963 48.188C74.7293 48.188 73.7893 47.8961 73.0753 47.3121C72.3623 46.7291 71.9793 45.9641 71.9273 45.0161H73.2783C73.3413 45.6041 73.6043 46.078 74.0683 46.438C74.5313 46.792 75.1353 46.9691 75.8803 46.9691C76.6253 46.9691 77.2373 46.7791 77.7163 46.3981C78.2003 46.0181 78.4433 45.5341 78.4433 44.9451C78.4433 44.2841 78.2083 43.7601 77.7393 43.3751C77.2763 42.9901 76.6403 42.7971 75.8333 42.7971H74.4193ZM84.0913 48.0001V36.7271H85.4513V48.0001H84.0913ZM90.1343 40.9141C89.5043 40.9141 88.9813 41.1331 88.5643 41.5701C88.1533 42.0031 87.9263 42.5601 87.8843 43.2421H92.2983C92.2833 42.5551 92.0773 41.9951 91.6813 41.5621C91.2853 41.1301 90.7703 40.9141 90.1343 40.9141ZM92.2673 45.6721H93.6033C93.4833 46.3911 93.1083 46.9821 92.4783 47.4451C91.8533 47.9091 91.1013 48.1411 90.2203 48.1411C89.0593 48.1411 88.1453 47.7661 87.4783 47.0161C86.8113 46.2661 86.4783 45.2501 86.4783 43.9691C86.4783 42.6981 86.8113 41.6741 87.4783 40.8981C88.1503 40.1221 89.0433 39.7341 90.1583 39.7341C91.2523 39.7341 92.1163 40.1021 92.7523 40.8361C93.3873 41.5701 93.7053 42.5551 93.7053 43.7891V44.3051H87.8773V44.3831C87.8773 45.1641 88.0903 45.7891 88.5173 46.2581C88.9443 46.7271 89.5223 46.9611 90.2523 46.9611C90.7623 46.9611 91.1973 46.8441 91.5563 46.6091C91.9163 46.3751 92.1533 46.0621 92.2673 45.6721ZM97.3493 46.9841C97.9903 46.9841 98.5263 46.7861 98.9593 46.3911C99.3963 45.9901 99.6153 45.4971 99.6153 44.9141V44.2501L97.4433 44.3831C96.8963 44.4191 96.4723 44.5521 96.1703 44.7811C95.8733 45.0101 95.7243 45.3181 95.7243 45.7031C95.7243 46.0891 95.8733 46.3981 96.1703 46.6331C96.4673 46.8671 96.8603 46.9841 97.3493 46.9841ZM97.0453 48.1411C96.2373 48.1411 95.5843 47.9171 95.0843 47.4691C94.5893 47.0211 94.3423 46.4321 94.3423 45.7031C94.3423 45.0051 94.5973 44.4481 95.1073 44.0311C95.6233 43.6151 96.3493 43.3801 97.2873 43.3281L99.6153 43.1951V42.5161C99.6153 42.0211 99.4593 41.6331 99.1463 41.3521C98.8343 41.0701 98.3963 40.9301 97.8343 40.9301C97.3183 40.9301 96.8993 41.0441 96.5763 41.2731C96.2533 41.4971 96.0473 41.8121 95.9593 42.2191H94.6463C94.6933 41.4951 95.0063 40.901 95.5843 40.438C96.1673 39.969 96.9273 39.7341 97.8653 39.7341C98.8183 39.7341 99.5733 39.9741 100.131 40.4531C100.693 40.9321 100.974 41.5761 100.974 42.3831V48.0001H99.6853V46.6021H99.6543C99.4093 47.0651 99.0503 47.4381 98.5763 47.7191C98.1023 48.0001 97.5923 48.1411 97.0453 48.1411ZM105.369 48.1411C104.327 48.1411 103.486 47.7581 102.846 46.9921C102.21 46.2271 101.893 45.208 101.893 43.938C101.893 42.672 102.21 41.6561 102.846 40.8911C103.481 40.1201 104.312 39.7341 105.338 39.7341C105.911 39.7341 106.424 39.8651 106.877 40.1251C107.33 40.3851 107.679 40.7421 107.924 41.1951H107.955V36.7271H109.314V48.0001H108.018V46.6251H107.994C107.728 47.0991 107.369 47.4711 106.916 47.7421C106.463 48.0081 105.947 48.1411 105.369 48.1411ZM105.627 40.9301C104.908 40.9301 104.338 41.2031 103.916 41.7501C103.494 42.2921 103.283 43.021 103.283 43.938C103.283 44.859 103.494 45.5911 103.916 46.1331C104.338 46.6741 104.908 46.9451 105.627 46.9451C106.33 46.9451 106.895 46.6721 107.322 46.1251C107.749 45.5731 107.963 44.844 107.963 43.938C107.963 43.031 107.747 42.3051 107.314 41.7581C106.887 41.2061 106.325 40.9301 105.627 40.9301ZM110.6 42.1171C110.6 41.4191 110.881 40.8491 111.443 40.4061C112.011 39.9581 112.74 39.7341 113.631 39.7341C114.469 39.7341 115.167 39.9581 115.725 40.4061C116.282 40.8541 116.576 41.4221 116.607 42.1091H115.311C115.264 41.7141 115.087 41.4041 114.779 41.1801C114.477 40.9561 114.079 40.8441 113.584 40.8441C113.089 40.8441 112.691 40.9561 112.389 41.1801C112.087 41.3981 111.936 41.6881 111.936 42.0471C111.936 42.5991 112.386 42.9901 113.287 43.2191L114.545 43.5231C115.363 43.7321 115.938 44.0031 116.272 44.3361C116.61 44.6641 116.779 45.1281 116.779 45.7271C116.779 46.4351 116.477 47.0161 115.873 47.4691C115.269 47.9171 114.493 48.1411 113.545 48.1411C112.66 48.1411 111.928 47.9221 111.35 47.4841C110.777 47.0421 110.454 46.4581 110.381 45.7341H111.74C111.891 46.5991 112.522 47.0311 113.631 47.0311C114.178 47.0311 114.61 46.9241 114.928 46.7111C115.251 46.4921 115.412 46.1981 115.412 45.8281C115.412 45.5361 115.316 45.3051 115.123 45.1331C114.936 44.9611 114.615 44.8151 114.162 44.6951L112.732 44.3281C111.311 43.9641 110.6 43.2271 110.6 42.1171ZM121.092 37.9141H122.452V39.8751H124.03V40.9921H122.452V45.8201C122.452 46.1901 122.532 46.4641 122.694 46.6411C122.855 46.8121 123.11 46.8981 123.459 46.8981C123.678 46.8981 123.866 46.8851 124.022 46.8591V48.0001C123.845 48.0421 123.558 48.0621 123.162 48.0621C122.418 48.0621 121.886 47.8961 121.569 47.5621C121.251 47.2291 121.092 46.6721 121.092 45.8911V40.9921H119.881V39.8751H121.092V37.9141ZM128.206 48.1411C127.07 48.1411 126.159 47.7631 125.471 47.0081C124.784 46.2471 124.44 45.224 124.44 43.938C124.44 42.651 124.784 41.6301 125.471 40.8751C126.159 40.1151 127.07 39.7341 128.206 39.7341C129.336 39.7341 130.245 40.1151 130.932 40.8751C131.62 41.6301 131.963 42.651 131.963 43.938C131.963 45.219 131.62 46.2401 130.932 47.0001C130.245 47.7601 129.336 48.1411 128.206 48.1411ZM126.463 46.1481C126.896 46.6801 127.476 46.9451 128.206 46.9451C128.935 46.9451 129.513 46.6821 129.94 46.1561C130.367 45.6251 130.581 44.885 130.581 43.938C130.581 42.99 130.367 42.2531 129.94 41.7271C129.513 41.1951 128.935 40.9301 128.206 40.9301C127.476 40.9301 126.896 41.1951 126.463 41.7271C126.036 42.2581 125.823 42.995 125.823 43.938C125.823 44.88 126.036 45.6171 126.463 46.1481ZM136.007 48.1411C134.965 48.1411 134.124 47.7581 133.483 46.9921C132.848 46.2271 132.53 45.208 132.53 43.938C132.53 42.672 132.848 41.6561 133.483 40.8911C134.119 40.1201 134.949 39.7341 135.975 39.7341C136.548 39.7341 137.061 39.8651 137.514 40.1251C137.967 40.3851 138.316 40.7421 138.561 41.1951H138.592V36.7271H139.952V48.0001H138.655V46.6251H138.632C138.366 47.0991 138.007 47.4711 137.553 47.7421C137.1 48.0081 136.585 48.1411 136.007 48.1411ZM136.264 40.9301C135.546 40.9301 134.975 41.2031 134.553 41.7501C134.132 42.2921 133.921 43.021 133.921 43.938C133.921 44.859 134.132 45.5911 134.553 46.1331C134.975 46.6741 135.546 46.9451 136.264 46.9451C136.967 46.9451 137.533 46.6721 137.96 46.1251C138.387 45.5731 138.6 44.844 138.6 43.938C138.6 43.031 138.384 42.3051 137.952 41.7581C137.525 41.2061 136.962 40.9301 136.264 40.9301ZM144.058 46.9841C144.698 46.9841 145.235 46.7861 145.667 46.3911C146.104 45.9901 146.323 45.4971 146.323 44.9141V44.2501L144.151 44.3831C143.604 44.4191 143.18 44.5521 142.878 44.7811C142.581 45.0101 142.433 45.3181 142.433 45.7031C142.433 46.0891 142.581 46.3981 142.878 46.6331C143.175 46.8671 143.568 46.9841 144.058 46.9841ZM143.753 48.1411C142.946 48.1411 142.292 47.9171 141.792 47.4691C141.297 47.0211 141.05 46.4321 141.05 45.7031C141.05 45.0051 141.305 44.4481 141.815 44.0311C142.331 43.6151 143.058 43.3801 143.995 43.3281L146.323 43.1951V42.5161C146.323 42.0211 146.167 41.6331 145.854 41.3521C145.542 41.0701 145.104 40.9301 144.542 40.9301C144.026 40.9301 143.607 41.0441 143.284 41.2731C142.961 41.4971 142.755 41.8121 142.667 42.2191H141.354C141.401 41.4951 141.714 40.901 142.292 40.438C142.875 39.969 143.636 39.7341 144.573 39.7341C145.526 39.7341 146.281 39.9741 146.839 40.4531C147.401 40.9321 147.683 41.5761 147.683 42.3831V48.0001H146.393V46.6021H146.362C146.117 47.0651 145.758 47.4381 145.284 47.7191C144.81 48.0001 144.3 48.1411 143.753 48.1411ZM149.671 51.0391C149.431 51.0391 149.236 51.0231 149.085 50.9921V49.8521C149.21 49.8781 149.387 49.8911 149.616 49.8911C149.996 49.8911 150.301 49.7891 150.53 49.5861C150.759 49.3881 150.952 49.0521 151.108 48.5781L151.296 48.0081L148.296 39.8751H149.749L151.999 46.6411H152.022L154.272 39.8751H155.702L152.507 48.5701C152.158 49.5181 151.78 50.1671 151.374 50.5161C150.973 50.8651 150.405 51.0391 149.671 51.0391Z" fill="#11151B" />
        <path d="M25.8901 23.4502H22.8501L22.2901 25.0002H21.3301L23.8501 18.0702H24.9001L27.4101 25.0002H26.4501L25.8901 23.4502ZM25.6301 22.7101L24.3701 19.1902L23.1101 22.7101H25.6301ZM29.0081 17.6002V25.0002H28.0981V17.6002H29.0081ZM29.8091 22.2401C29.8091 21.6801 29.9231 21.1901 30.1491 20.7701C30.3761 20.3431 30.6861 20.0132 31.0791 19.7802C31.4791 19.5472 31.9231 19.4301 32.4091 19.4301C32.8891 19.4301 33.3061 19.5331 33.6591 19.7401C34.0131 19.9471 34.2761 20.2071 34.4491 20.5201V19.5201H35.3691V25.0002H34.4491V23.9802C34.2691 24.3002 33.9991 24.5672 33.6391 24.7802C33.2861 24.9872 32.8731 25.0901 32.3991 25.0901C31.9131 25.0901 31.4731 24.9702 31.0791 24.7302C30.6861 24.4902 30.3761 24.1532 30.1491 23.7202C29.9231 23.2872 29.8091 22.7931 29.8091 22.2401ZM34.4491 22.2502C34.4491 21.8372 34.3661 21.4772 34.1991 21.1702C34.0331 20.8632 33.8061 20.6302 33.5191 20.4702C33.2391 20.3032 32.9291 20.2202 32.5891 20.2202C32.2491 20.2202 31.9391 20.3001 31.6591 20.4601C31.3791 20.6201 31.1561 20.8532 30.9891 21.1602C30.8231 21.4672 30.7391 21.8271 30.7391 22.2401C30.7391 22.6601 30.8231 23.0271 30.9891 23.3401C31.1561 23.6471 31.3791 23.8831 31.6591 24.0501C31.9391 24.2101 32.2491 24.2902 32.5891 24.2902C32.9291 24.2902 33.2391 24.2101 33.5191 24.0501C33.8061 23.8831 34.0331 23.6471 34.1991 23.3401C34.3661 23.0271 34.4491 22.6632 34.4491 22.2502ZM39.1671 19.4202C39.8341 19.4202 40.3741 19.6232 40.7871 20.0302C41.2001 20.4302 41.4071 21.0101 41.4071 21.7701V25.0002H40.5071V21.9001C40.5071 21.3531 40.3701 20.9371 40.0971 20.6501C39.8241 20.3571 39.4501 20.2101 38.9771 20.2101C38.4971 20.2101 38.1141 20.3602 37.8271 20.6602C37.5471 20.9602 37.4071 21.3972 37.4071 21.9702V25.0002H36.4971V19.5201H37.4071V20.3001C37.5871 20.0201 37.8301 19.8031 38.1371 19.6501C38.4501 19.4971 38.7941 19.4202 39.1671 19.4202ZM47.0801 26.8601C46.4401 26.2331 45.9401 25.4372 45.5801 24.4702C45.2261 23.5032 45.0501 22.4601 45.0501 21.3401C45.0501 20.1931 45.2361 19.1232 45.6101 18.1302C45.9901 17.1302 46.5301 16.3072 47.2301 15.6602H48.1801V15.7502C47.4331 16.4502 46.8701 17.2932 46.4901 18.2802C46.1161 19.2602 45.9301 20.2801 45.9301 21.3401C45.9301 22.3731 46.1061 23.3601 46.4601 24.3001C46.8201 25.2401 47.3431 26.0631 48.0301 26.7701V26.8601H47.0801ZM55.9411 18.0801V25.0002H55.0311V19.8401L52.7311 25.0002H52.0911L49.7811 19.8301V25.0002H48.8711V18.0801H49.8511L52.4111 23.8001L54.9711 18.0801H55.9411ZM62.0741 22.0501C62.0741 22.2231 62.0641 22.4072 62.0441 22.6002H57.6641C57.6971 23.1402 57.8801 23.5631 58.2141 23.8701C58.5541 24.1701 58.9641 24.3202 59.4441 24.3202C59.8371 24.3202 60.1641 24.2301 60.4241 24.0501C60.6901 23.8631 60.8771 23.6172 60.9841 23.3102H61.9641C61.8171 23.8372 61.5241 24.2672 61.0841 24.6002C60.6441 24.9272 60.0971 25.0901 59.4441 25.0901C58.9241 25.0901 58.4571 24.9731 58.0441 24.7401C57.6371 24.5071 57.3171 24.1772 57.0841 23.7502C56.8501 23.3172 56.7341 22.8172 56.7341 22.2502C56.7341 21.6832 56.8471 21.1872 57.0741 20.7602C57.3001 20.3332 57.6171 20.0072 58.0241 19.7802C58.4371 19.5472 58.9101 19.4301 59.4441 19.4301C59.9641 19.4301 60.4241 19.5431 60.8241 19.7701C61.2241 19.9971 61.5301 20.3101 61.7441 20.7101C61.9641 21.1031 62.0741 21.5501 62.0741 22.0501ZM61.1341 21.8601C61.1341 21.5131 61.0571 21.2172 60.9041 20.9702C60.7501 20.7172 60.5401 20.5271 60.2741 20.4001C60.0141 20.2671 59.7241 20.2002 59.4041 20.2002C58.9441 20.2002 58.5501 20.3472 58.2241 20.6402C57.9041 20.9332 57.7201 21.3401 57.6741 21.8601H61.1341ZM62.5251 22.2401C62.5251 21.6801 62.6381 21.1901 62.8651 20.7701C63.0921 20.3431 63.4021 20.0132 63.7951 19.7802C64.1951 19.5472 64.6421 19.4301 65.1351 19.4301C65.5621 19.4301 65.9581 19.5302 66.3251 19.7302C66.6921 19.9232 66.9721 20.1802 67.1651 20.5002V17.6002H68.0851V25.0002H67.1651V23.9702C66.9851 24.2972 66.7181 24.5672 66.3651 24.7802C66.0121 24.9872 65.5981 25.0901 65.1251 25.0901C64.6381 25.0901 64.1951 24.9702 63.7951 24.7302C63.4021 24.4902 63.0921 24.1532 62.8651 23.7202C62.6381 23.2872 62.5251 22.7931 62.5251 22.2401ZM67.1651 22.2502C67.1651 21.8372 67.0821 21.4772 66.9151 21.1702C66.7481 20.8632 66.5221 20.6302 66.2351 20.4702C65.9551 20.3032 65.6451 20.2202 65.3051 20.2202C64.9651 20.2202 64.6551 20.3001 64.3751 20.4601C64.0951 20.6201 63.8721 20.8532 63.7051 21.1602C63.5381 21.4672 63.4551 21.8271 63.4551 22.2401C63.4551 22.6601 63.5381 23.0271 63.7051 23.3401C63.8721 23.6471 64.0951 23.8831 64.3751 24.0501C64.6551 24.2101 64.9651 24.2902 65.3051 24.2902C65.6451 24.2902 65.9551 24.2101 66.2351 24.0501C66.5221 23.8831 66.7481 23.6471 66.9151 23.3401C67.0821 23.0271 67.1651 22.6632 67.1651 22.2502ZM69.6831 18.6302C69.5091 18.6302 69.3631 18.5702 69.2431 18.4502C69.1231 18.3302 69.0631 18.1832 69.0631 18.0102C69.0631 17.8372 69.1231 17.6902 69.2431 17.5702C69.3631 17.4502 69.5091 17.3902 69.6831 17.3902C69.8491 17.3902 69.9891 17.4502 70.1031 17.5702C70.2231 17.6902 70.2831 17.8372 70.2831 18.0102C70.2831 18.1832 70.2231 18.3302 70.1031 18.4502C69.9891 18.5702 69.8491 18.6302 69.6831 18.6302ZM70.1231 19.5201V25.0002H69.2131V19.5201H70.1231ZM70.9241 22.2401C70.9241 21.6801 71.0371 21.1901 71.2641 20.7701C71.4901 20.3431 71.8001 20.0132 72.1941 19.7802C72.5941 19.5472 73.0371 19.4301 73.5241 19.4301C74.0041 19.4301 74.4201 19.5331 74.7741 19.7401C75.1271 19.9471 75.3901 20.2071 75.5641 20.5201V19.5201H76.4841V25.0002H75.5641V23.9802C75.3841 24.3002 75.1141 24.5672 74.7541 24.7802C74.4001 24.9872 73.9871 25.0901 73.5141 25.0901C73.0271 25.0901 72.5871 24.9702 72.1941 24.7302C71.8001 24.4902 71.4901 24.1532 71.2641 23.7202C71.0371 23.2872 70.9241 22.7931 70.9241 22.2401ZM75.5641 22.2502C75.5641 21.8372 75.4801 21.4772 75.3141 21.1702C75.1471 20.8632 74.9201 20.6302 74.6341 20.4702C74.3541 20.3032 74.0441 20.2202 73.7041 20.2202C73.3641 20.2202 73.0541 20.3001 72.7741 20.4601C72.4941 20.6201 72.2701 20.8532 72.1041 21.1602C71.9371 21.4672 71.8541 21.8271 71.8541 22.2401C71.8541 22.6601 71.9371 23.0271 72.1041 23.3401C72.2701 23.6471 72.4941 23.8831 72.7741 24.0501C73.0541 24.2101 73.3641 24.2902 73.7041 24.2902C74.0441 24.2902 74.3541 24.2101 74.6341 24.0501C74.9201 23.8831 75.1471 23.6471 75.3141 23.3401C75.4801 23.0271 75.5641 22.6632 75.5641 22.2502ZM80.7781 20.5402C80.9641 20.2132 81.2381 19.9471 81.5981 19.7401C81.9581 19.5331 82.3681 19.4301 82.8281 19.4301C83.3211 19.4301 83.7641 19.5472 84.1581 19.7802C84.5511 20.0132 84.8611 20.3431 85.0881 20.7701C85.3141 21.1901 85.4281 21.6801 85.4281 22.2401C85.4281 22.7931 85.3141 23.2872 85.0881 23.7202C84.8611 24.1532 84.5481 24.4902 84.1481 24.7302C83.7541 24.9702 83.3141 25.0901 82.8281 25.0901C82.3541 25.0901 81.9381 24.9872 81.5781 24.7802C81.2241 24.5732 80.9581 24.3101 80.7781 23.9901V25.0002H79.8681V17.6002H80.7781V20.5402ZM84.4981 22.2401C84.4981 21.8271 84.4141 21.4672 84.2481 21.1602C84.0811 20.8532 83.8541 20.6201 83.5681 20.4601C83.2881 20.3001 82.9781 20.2202 82.6381 20.2202C82.3041 20.2202 81.9941 20.3032 81.7081 20.4702C81.4281 20.6302 81.2011 20.8671 81.0281 21.1801C80.8611 21.4871 80.7781 21.8432 80.7781 22.2502C80.7781 22.6632 80.8611 23.0271 81.0281 23.3401C81.2011 23.6471 81.4281 23.8831 81.7081 24.0501C81.9941 24.2101 82.3041 24.2902 82.6381 24.2902C82.9781 24.2902 83.2881 24.2101 83.5681 24.0501C83.8541 23.8831 84.0811 23.6471 84.2481 23.3401C84.4141 23.0271 84.4981 22.6601 84.4981 22.2401ZM91.0751 19.5201V25.0002H90.1651V24.1902C89.9921 24.4702 89.7491 24.6902 89.4351 24.8502C89.1291 25.0032 88.7891 25.0801 88.4151 25.0801C87.9891 25.0801 87.6051 24.9932 87.2651 24.8202C86.9251 24.6402 86.6551 24.3731 86.4551 24.0201C86.2621 23.6671 86.1651 23.2372 86.1651 22.7302V19.5201H87.0651V22.6101C87.0651 23.1501 87.2021 23.5671 87.4751 23.8601C87.7491 24.1471 88.1221 24.2902 88.5951 24.2902C89.0821 24.2902 89.4651 24.1401 89.7451 23.8401C90.0251 23.5401 90.1651 23.1032 90.1651 22.5302V19.5201H91.0751ZM96.9221 19.5201L93.6221 27.5801H92.6821L93.7621 24.9402L91.5521 19.5201H92.5621L94.2821 23.9601L95.9821 19.5201H96.9221ZM102.427 22.0501C102.427 22.2231 102.417 22.4072 102.397 22.6002H98.0171C98.0501 23.1402 98.2331 23.5631 98.5671 23.8701C98.9071 24.1701 99.3171 24.3202 99.7971 24.3202C100.19 24.3202 100.517 24.2301 100.777 24.0501C101.043 23.8631 101.23 23.6172 101.337 23.3102H102.317C102.17 23.8372 101.877 24.2672 101.437 24.6002C100.997 24.9272 100.45 25.0901 99.7971 25.0901C99.2771 25.0901 98.8101 24.9731 98.3971 24.7401C97.9901 24.5071 97.6701 24.1772 97.4371 23.7502C97.2031 23.3172 97.0871 22.8172 97.0871 22.2502C97.0871 21.6832 97.2001 21.1872 97.4271 20.7602C97.6531 20.3332 97.9701 20.0072 98.3771 19.7802C98.7901 19.5472 99.2631 19.4301 99.7971 19.4301C100.317 19.4301 100.777 19.5431 101.177 19.7701C101.577 19.9971 101.883 20.3101 102.097 20.7101C102.317 21.1031 102.427 21.5501 102.427 22.0501ZM101.487 21.8601C101.487 21.5131 101.41 21.2172 101.257 20.9702C101.103 20.7172 100.893 20.5271 100.627 20.4001C100.367 20.2671 100.077 20.2002 99.7571 20.2002C99.2971 20.2002 98.9031 20.3472 98.5771 20.6402C98.2571 20.9332 98.0731 21.3401 98.0271 21.8601H101.487ZM104.128 20.4102C104.288 20.0972 104.514 19.8531 104.808 19.6801C105.108 19.5071 105.471 19.4202 105.898 19.4202V20.3601H105.658C104.638 20.3601 104.128 20.9131 104.128 22.0201V25.0002H103.218V19.5201H104.128V20.4102ZM106.248 26.8601V26.7701C106.935 26.0631 107.455 25.2401 107.808 24.3001C108.168 23.3601 108.348 22.3731 108.348 21.3401C108.348 20.2801 108.158 19.2602 107.778 18.2802C107.405 17.2932 106.845 16.4502 106.098 15.7502V15.6602H107.048C107.748 16.3072 108.285 17.1302 108.658 18.1302C109.038 19.1232 109.228 20.1931 109.228 21.3401C109.228 22.4601 109.048 23.5032 108.688 24.4702C108.335 25.4372 107.838 26.2331 107.198 26.8601H106.248Z" fill="#4262FE" />
    </g>
    <defs>
        <filter id="filter0_d_33_572" x="0" y="0" width="238" height="75" filterUnits="userSpaceOnUse" color-interpolation-filters="sRGB">
            <feFlood flood-opacity="0" result="BackgroundImageFix" />
            <feColorMatrix in="SourceAlpha" type="matrix" values="0 0 0 0 0 0 0 0 0 0 0 0 0 0 0 0 0 0 127 0" result="hardAlpha" />
            <feOffset dy="1" />
            <feGaussianBlur stdDeviation="4.5" />
            <feColorMatrix type="matrix" values="0 0 0 0 0 0 0 0 0 0 0 0 0 0 0 0 0 0 0.08 0" />
            <feBlend mode="normal" in2="BackgroundImageFix" result="effect1_dropShadow_33_572" />
            <feBlend mode="normal" in="SourceGraphic" in2="effect1_dropShadow_33_572" result="shape" />
        </filter>
    </defs>
</svg>
