<svg width="45" height="45" viewBox="0 0 45 45" fill="none" xmlns="http://www.w3.org/2000/svg">
    <g clip-path="url(#clip0_48_146)">
        <path d="M45.0016 5.63291C45.0016 5.26935 44.7069 4.97461 44.3433 4.97461H36.0255C35.6618 4.97461 35.3672 5.26935 35.3672 5.63291V7.83077C35.3672 8.68191 36.6838 8.68191 36.6838 7.83077V6.29122H43.685V12.567H41.2239C40.8602 12.567 40.5656 12.8617 40.5656 13.2253V15.7503H36.6838V11.3378C36.6838 10.4866 35.3672 10.4866 35.3672 11.3378V16.4086C35.3672 16.7722 35.6618 17.0669 36.0255 17.0669H41.2239C41.4004 17.0669 41.5711 16.9948 41.694 16.8694L44.8134 13.686C44.933 13.5643 45.0016 13.3952 45.0016 13.2253V5.63291ZM41.8822 13.8836H42.7765L41.8822 14.7962V13.8836Z" fill="#7D97F4" />
        <path d="M26.872 9.61662C27.5887 9.89872 28.3726 9.88336 29.0798 9.57414C30.5347 8.93786 31.2069 7.23839 30.5781 5.78556C30.2738 5.08232 29.7136 4.5404 29.0006 4.2597C28.2841 3.97768 27.5001 3.99269 26.7927 4.3021C25.3379 4.93837 24.6657 6.63793 25.2943 8.09067C25.5986 8.79392 26.1589 9.33583 26.872 9.61662ZM27.3202 5.50846C27.704 5.34063 28.1295 5.33177 28.5182 5.48476C28.9032 5.63634 29.2055 5.92881 29.3698 6.30843C29.7113 7.09751 29.3445 8.02133 28.5522 8.36777C28.1678 8.53586 27.7423 8.5442 27.3543 8.39147C26.9693 8.23989 26.6669 7.94743 26.5026 7.5678C26.1612 6.77881 26.528 5.85499 27.3202 5.50846V5.50846Z" fill="#7D97F4" />
        <path d="M41.8283 17.8436H26.3778C27.3562 16.4397 27.7052 14.5737 27.3095 12.8957L27.6684 12.532C27.8605 12.5356 28.053 12.5294 28.2446 12.5135L29.0438 13.268C29.2699 13.4541 29.5084 13.4955 29.7594 13.3924L31.2487 12.7411C31.4892 12.636 31.6442 12.3979 31.6432 12.1355L31.639 11.0302C31.7821 10.8995 31.9187 10.7614 32.0477 10.6167L33.143 10.5822C33.4053 10.574 33.6377 10.4106 33.7342 10.1666L34.3326 8.65561C34.4298 8.41011 34.371 8.1302 34.183 7.94464L33.4684 7.23947C33.4835 7.00125 33.4828 6.76242 33.4665 6.52482L34.1535 5.79735C34.3343 5.606 34.3837 5.32548 34.2791 5.08392L33.6363 3.59826C33.5312 3.35531 33.2912 3.19521 33.026 3.20144L32.0312 3.21074C31.87 3.03774 31.6974 2.87527 31.5145 2.72457L31.4884 1.71771C31.4817 1.45299 31.3169 1.21819 31.0703 1.12164L29.5626 0.531627C29.3174 0.435691 29.0389 0.495026 28.8542 0.682247L28.082 1.46466C27.8898 1.46098 27.6974 1.46729 27.5058 1.48318L26.7065 0.728679C26.5145 0.547514 26.233 0.498273 25.9909 0.604304L24.5017 1.2555C24.2612 1.36065 24.1062 1.59869 24.1071 1.86114L24.1113 2.96638C23.9682 3.09716 23.8316 3.23523 23.7027 3.3798L22.6073 3.41429C22.3451 3.42254 22.1126 3.58589 22.0161 3.8299L21.4177 5.34084C21.3205 5.58643 21.3793 5.86625 21.5673 6.0518L22.282 6.75706C22.2669 6.99537 22.2676 7.2342 22.2838 7.47172L21.7349 8.05287C16.5016 7.57924 13.0341 13.532 16.0114 17.8434H3.48811C0.144633 17.9817 0.144545 22.7468 3.48811 22.885H4.43431L11.6916 30.3626C12.2864 30.9753 13.2279 30.0551 12.6364 29.4456L6.26913 22.8851H39.0347L31.2885 30.7748C30.6157 29.8536 29.0488 29.8909 28.5271 30.9542L26.3349 35.4364C24.8746 33.9023 22.3619 35.0691 22.3727 37.0981H20.0634L15.0926 31.9764C14.4998 31.3656 13.555 32.2825 14.1478 32.8933L19.1266 38.0232V41.0007C19.1266 41.2347 19.2508 41.451 19.4528 41.5691L22.4737 43.3339C23.0396 45.1746 25.6189 45.4996 26.6284 43.8623C27.4015 44.5508 28.3884 44.9566 29.4303 44.9566C30.9551 44.9566 32.4799 44.9489 34.0047 44.9543C34.8199 44.9203 35.4767 44.4099 35.707 43.6276C35.8834 42.9388 37.2566 37.5753 37.3801 37.0934C37.6681 35.9993 36.8285 34.8932 35.6924 34.8932C34.3255 34.898 32.9585 34.8972 31.5916 34.8977V32.345C31.595 32.3417 31.5983 32.3384 31.6017 32.335L40.8797 22.8851H41.8283C45.1725 22.7466 45.1711 17.9814 41.8283 17.8436V17.8436ZM20.4432 38.4148H22.3726V41.7502L20.4432 40.623V38.4148ZM24.6708 43.6412C24.1296 43.6412 23.6892 43.201 23.6892 42.6598V37.0199C23.6892 35.7575 25.6412 35.7553 25.6412 37.007V42.6702C25.6413 43.2002 25.211 43.6412 24.6708 43.6412ZM35.6924 36.2098C36.0224 36.2098 36.1459 36.4908 36.1045 36.7668C35.9811 37.2487 34.6078 42.6124 34.4313 43.3017C34.3694 43.5123 34.2281 43.6249 34.0092 43.6378C33.21 43.635 30.105 43.6401 29.4302 43.6401C28.4325 43.6401 27.6412 43.0661 26.9688 42.39V37.1369L29.6993 31.5542C29.8489 31.3116 30.2749 31.4216 30.2749 31.7128V35.5563C30.2749 35.9199 30.5695 36.2146 30.9332 36.2146C31.7541 36.2146 35.4147 36.2098 35.6924 36.2098V36.2098ZM20.1671 15.1563C19.0722 14.1839 19.841 12.3721 21.2942 12.4563C22.0627 12.5039 22.6973 13.1438 22.7391 13.9131C22.7648 14.3878 22.5763 14.841 22.2218 15.1564C21.839 15.497 22.0042 16.1071 22.4301 16.2652C23.2121 16.5558 23.8708 17.125 24.2814 17.8436H18.1054C18.5141 17.1203 19.1655 16.5599 19.9588 16.2652C20.3848 16.107 20.55 15.497 20.1671 15.1563ZM23.6209 7.6226C23.5771 7.28107 23.5767 6.9334 23.6195 6.58915C23.6448 6.38613 23.5742 6.18294 23.4287 6.03916L22.8022 5.42089L23.081 4.71685L24.0369 4.68675C24.2297 4.68069 24.4103 4.59028 24.5307 4.43949C24.7245 4.19653 24.9453 3.97367 25.1866 3.77724C25.3408 3.65163 25.4299 3.46309 25.4292 3.26429L25.4255 2.28877L26.1196 1.98525L26.8238 2.65005C26.9693 2.78741 27.1693 2.85113 27.3678 2.82314C27.675 2.77969 27.9874 2.76942 28.2959 2.79233C28.489 2.80663 28.6778 2.73562 28.8134 2.59826L29.4868 1.91591L30.1837 2.18862L30.2066 3.07066C30.2119 3.27543 30.3122 3.46608 30.4779 3.58633C30.7573 3.78908 31.0096 4.02607 31.228 4.2908C31.3544 4.44405 31.5453 4.53218 31.7419 4.53016L32.6016 4.52208L32.8987 5.20865L32.304 5.83842C32.1684 5.98185 32.1045 6.17846 32.1295 6.3742C32.1733 6.71599 32.1739 7.06357 32.131 7.40747C32.1056 7.61049 32.1762 7.81377 32.3218 7.95755L32.9483 8.57582L32.6695 9.27986L31.7137 9.30996C31.5208 9.31602 31.3404 9.40643 31.22 9.55722C31.0259 9.80027 30.8052 10.0231 30.5639 10.2196C30.4098 10.3451 30.3206 10.5336 30.3213 10.7325L30.325 11.708L29.6309 12.0115L28.9267 11.3468C28.7812 11.2094 28.5808 11.1458 28.3827 11.1737C28.0755 11.2172 27.7631 11.2275 27.4545 11.2045C27.2133 11.187 26.9683 11.3408 26.8169 11.5204C26.0888 10.0559 24.8051 8.91437 23.2434 8.37333C23.4475 8.20024 23.6555 7.89294 23.6209 7.6226V7.6226ZM21.1944 9.34656C25.1004 9.31137 27.5109 13.8056 25.3352 17.0341C24.9253 16.3685 24.3614 15.8129 23.6867 15.4121C23.954 14.9415 24.0839 14.3996 24.0538 13.8418C23.9752 12.3924 22.8238 11.2319 21.3757 11.1422C19.1483 10.9935 17.573 13.4743 18.7037 15.4118C18.0297 15.8124 17.4648 16.3687 17.0542 17.0346C14.8774 13.8051 17.2896 9.3111 21.1944 9.34656V9.34656ZM41.8283 21.5685H3.48811C1.89045 21.5023 1.8915 19.2258 3.48811 19.1602H41.8284C43.426 19.2265 43.4249 21.5029 41.8283 21.5685Z" fill="#E54799" />
        <path d="M4.20866 14.9406L6.59453 16.7167C7.02471 17.0369 7.64597 16.7186 7.64597 16.1886V14.9406H8.83785C10.0618 14.9406 11.0575 13.9448 11.0575 12.7208V11.0054C11.3496 11.0479 11.6424 11.0672 11.9361 11.0634C19.2307 10.6643 19.0858 0.249874 11.7936 0.0449219C8.10415 0.0443953 5.42556 3.87449 6.66132 7.34418H2.21962C0.995705 7.34418 0 8.33998 0 9.56398V12.7208C0 13.9449 0.995705 14.9406 2.21962 14.9406H4.20866V14.9406ZM11.8106 1.36144C14.1107 1.32958 16.0186 3.18748 16.0469 5.50006C16.0767 7.81193 14.225 9.71706 11.9191 9.7469C11.4806 9.75331 11.0518 9.69187 10.6441 9.56767C10.6145 9.55573 10.5837 9.54599 10.5521 9.53844C9.95652 9.34156 9.40899 9.00925 8.9466 8.55765C8.68266 8.29995 8.457 8.01328 8.2725 7.70476C8.26082 7.68176 8.24783 7.65947 8.23353 7.63814C7.88322 7.02671 7.69214 6.33277 7.68275 5.60828C7.65281 3.29641 9.50458 1.39128 11.8106 1.36144V1.36144ZM1.31661 12.7208V9.56389C1.31661 9.06586 1.72168 8.6607 2.21962 8.6607H7.32138C7.91017 9.52738 8.7829 10.2424 9.74086 10.6394V12.7208C9.74086 13.2188 9.33579 13.624 8.83785 13.624H6.98758C6.62393 13.624 6.32928 13.9187 6.32928 14.2823V14.8779L4.81992 13.7542C4.70634 13.6697 4.56845 13.624 4.42678 13.624H2.21962C1.72168 13.624 1.31661 13.2188 1.31661 12.7208V12.7208Z" fill="#7D97F4" />
        <path d="M11.8593 8.50764C11.8733 8.50764 11.8874 8.50755 11.9014 8.50738C12.7503 8.49641 13.5444 8.15444 14.1374 7.54459C14.7307 6.93439 13.7866 6.01636 13.1934 6.62674C12.846 6.98407 12.3811 7.18445 11.8844 7.19086C11.3899 7.19859 10.9177 7.00908 10.5612 6.6608C9.95214 6.06613 9.03245 7.00803 9.64134 7.6027C10.2399 8.18727 11.0261 8.50764 11.8593 8.50764Z" fill="#7D97F4" />
        <path d="M10.2609 5.15254C11.1081 5.15254 11.1095 3.83594 10.2609 3.83594C9.41373 3.83594 9.41232 5.15254 10.2609 5.15254Z" fill="#7D97F4" />
        <path d="M13.4406 5.11153C14.2878 5.11153 14.2892 3.79492 13.4406 3.79492C12.5934 3.79492 12.592 5.11153 13.4406 5.11153Z" fill="#7D97F4" />
    </g>
    <defs>
        <clipPath id="clip0_48_146">
            <rect width="45" height="45" fill="white" />
        </clipPath>
    </defs>
</svg>
