<svg width="673" height="285" viewBox="0 0 673 285" fill="none" xmlns="http://www.w3.org/2000/svg">
    <defs>
        <linearGradient id="linear-gradient" x2="1" gradientUnits="objectBoundingBox">
            <stop offset="0" stop-color="#fff" stop-opacity="0.251" />
            <stop offset="0.143" stop-color="#fff" stop-opacity="0.302" />
            <stop offset="0.286" stop-color="#fff" stop-opacity="0.4" />
            <stop offset="0.429" stop-color="#fff" stop-opacity="0.502" />
            <stop offset="0.571" stop-color="#fff" stop-opacity="0.6" />
            <stop offset="0.714" stop-color="#fff" stop-opacity="0.702" />
            <stop offset="0.857" stop-color="#fff" stop-opacity="0.8" />
            <stop offset="1" stop-color="#fff" stop-opacity="0.902" />
        </linearGradient>
    </defs>

    <path d="M245.62 153.247L240.616 164.983H238.96L244.036 153.409H237.088V152.005H245.62V153.247ZM249.812 158.215C249.14 157.951 248.624 157.567 248.264 157.063C247.904 156.559 247.724 155.947 247.724 155.227C247.724 154.579 247.886 153.997 248.21 153.481C248.534 152.953 249.014 152.539 249.65 152.239C250.298 151.927 251.078 151.771 251.99 151.771C252.902 151.771 253.676 151.927 254.312 152.239C254.96 152.539 255.446 152.953 255.77 153.481C256.106 153.997 256.274 154.579 256.274 155.227C256.274 155.923 256.088 156.535 255.716 157.063C255.344 157.579 254.834 157.963 254.186 158.215C254.93 158.443 255.518 158.845 255.95 159.421C256.394 159.985 256.616 160.669 256.616 161.473C256.616 162.253 256.424 162.937 256.04 163.525C255.656 164.101 255.11 164.551 254.402 164.875C253.706 165.187 252.902 165.343 251.99 165.343C251.078 165.343 250.274 165.187 249.578 164.875C248.894 164.551 248.36 164.101 247.976 163.525C247.592 162.937 247.4 162.253 247.4 161.473C247.4 160.669 247.616 159.979 248.048 159.403C248.48 158.827 249.068 158.431 249.812 158.215ZM254.69 155.425C254.69 154.693 254.45 154.129 253.97 153.733C253.49 153.337 252.83 153.139 251.99 153.139C251.162 153.139 250.508 153.337 250.028 153.733C249.548 154.129 249.308 154.699 249.308 155.443C249.308 156.115 249.554 156.655 250.046 157.063C250.55 157.471 251.198 157.675 251.99 157.675C252.794 157.675 253.442 157.471 253.934 157.063C254.438 156.643 254.69 156.097 254.69 155.425ZM251.99 158.935C251.102 158.935 250.376 159.145 249.812 159.565C249.248 159.973 248.966 160.591 248.966 161.419C248.966 162.187 249.236 162.805 249.776 163.273C250.328 163.741 251.066 163.975 251.99 163.975C252.914 163.975 253.646 163.741 254.186 163.273C254.726 162.805 254.996 162.187 254.996 161.419C254.996 160.615 254.72 160.003 254.168 159.583C253.616 159.151 252.89 158.935 251.99 158.935ZM258.792 158.341C258.792 156.277 259.128 154.669 259.8 153.517C260.472 152.353 261.648 151.771 263.328 151.771C264.996 151.771 266.166 152.353 266.838 153.517C267.51 154.669 267.846 156.277 267.846 158.341C267.846 160.441 267.51 162.073 266.838 163.237C266.166 164.401 264.996 164.983 263.328 164.983C261.648 164.983 260.472 164.401 259.8 163.237C259.128 162.073 258.792 160.441 258.792 158.341ZM266.226 158.341C266.226 157.297 266.154 156.415 266.01 155.695C265.878 154.963 265.596 154.375 265.164 153.931C264.744 153.487 264.132 153.265 263.328 153.265C262.512 153.265 261.888 153.487 261.456 153.931C261.036 154.375 260.754 154.963 260.61 155.695C260.478 156.415 260.412 157.297 260.412 158.341C260.412 159.421 260.478 160.327 260.61 161.059C260.754 161.791 261.036 162.379 261.456 162.823C261.888 163.267 262.512 163.489 263.328 163.489C264.132 163.489 264.744 163.267 265.164 162.823C265.596 162.379 265.878 161.791 266.01 161.059C266.154 160.327 266.226 159.421 266.226 158.341Z" fill="#2848B9" />
    <path d="M233.178 240.462V238.968H236.562V251.982H234.906V240.462H233.178ZM246.63 242.064C246.366 240.732 245.544 240.066 244.164 240.066C243.096 240.066 242.298 240.48 241.77 241.308C241.242 242.124 240.984 243.474 240.996 245.358C241.272 244.734 241.728 244.248 242.364 243.9C243.012 243.54 243.732 243.36 244.524 243.36C245.76 243.36 246.744 243.744 247.476 244.512C248.22 245.28 248.592 246.342 248.592 247.698C248.592 248.514 248.43 249.246 248.106 249.894C247.794 250.542 247.314 251.058 246.666 251.442C246.03 251.826 245.256 252.018 244.344 252.018C243.108 252.018 242.142 251.742 241.446 251.19C240.75 250.638 240.264 249.876 239.988 248.904C239.712 247.932 239.574 246.732 239.574 245.304C239.574 240.9 241.11 238.698 244.182 238.698C245.358 238.698 246.282 239.016 246.954 239.652C247.626 240.288 248.022 241.092 248.142 242.064H246.63ZM244.182 244.746C243.666 244.746 243.18 244.854 242.724 245.07C242.268 245.274 241.896 245.592 241.608 246.024C241.332 246.444 241.194 246.96 241.194 247.572C241.194 248.484 241.458 249.228 241.986 249.804C242.514 250.368 243.27 250.65 244.254 250.65C245.094 250.65 245.76 250.392 246.252 249.876C246.756 249.348 247.008 248.64 247.008 247.752C247.008 246.816 246.768 246.084 246.288 245.556C245.808 245.016 245.106 244.746 244.182 244.746ZM252.908 248.49C253.028 249.174 253.304 249.702 253.736 250.074C254.18 250.446 254.774 250.632 255.518 250.632C256.514 250.632 257.246 250.242 257.714 249.462C258.194 248.682 258.422 247.368 258.398 245.52C258.146 246.06 257.726 246.486 257.138 246.798C256.55 247.098 255.896 247.248 255.176 247.248C254.372 247.248 253.652 247.086 253.016 246.762C252.392 246.426 251.9 245.94 251.54 245.304C251.18 244.668 251 243.9 251 243C251 241.716 251.372 240.684 252.116 239.904C252.86 239.112 253.916 238.716 255.284 238.716C256.964 238.716 258.14 239.262 258.812 240.354C259.496 241.446 259.838 243.072 259.838 245.232C259.838 246.744 259.7 247.992 259.424 248.976C259.16 249.96 258.704 250.71 258.056 251.226C257.42 251.742 256.544 252 255.428 252C254.204 252 253.25 251.67 252.566 251.01C251.882 250.35 251.492 249.51 251.396 248.49H252.908ZM255.446 245.862C256.25 245.862 256.91 245.616 257.426 245.124C257.942 244.62 258.2 243.942 258.2 243.09C258.2 242.19 257.948 241.464 257.444 240.912C256.94 240.36 256.232 240.084 255.32 240.084C254.48 240.084 253.808 240.348 253.304 240.876C252.812 241.404 252.566 242.1 252.566 242.964C252.566 243.84 252.812 244.542 253.304 245.07C253.796 245.598 254.51 245.862 255.446 245.862ZM261.744 249.084V247.842L268.062 239.094H270.024V247.662H271.824V249.084H270.024V251.982H268.404V249.084H261.744ZM268.476 240.804L263.634 247.662H268.476V240.804Z" fill="#2848B9" />
    <path d="M588.869 35.8578C588.505 35.8578 588.155 36.0027 587.897 36.2606C587.639 36.5184 587.494 36.8682 587.494 37.2328C587.494 37.5975 587.639 37.9472 587.897 38.2051C588.155 38.463 588.505 38.6078 588.869 38.6078C589.234 38.6078 589.584 38.463 589.842 38.2051C590.099 37.9472 590.244 37.5975 590.244 37.2328C590.244 36.8682 590.099 36.5184 589.842 36.2606C589.584 36.0027 589.234 35.8578 588.869 35.8578ZM584.978 35.8578C585.262 35.0527 585.789 34.3556 586.486 33.8624C587.183 33.3693 588.016 33.1045 588.869 33.1045C589.723 33.1045 590.556 33.3693 591.253 33.8624C591.95 34.3556 592.476 35.0527 592.761 35.8578H602.619C602.984 35.8578 603.334 36.0027 603.592 36.2606C603.849 36.5184 603.994 36.8682 603.994 37.2328C603.994 37.5975 603.849 37.9472 603.592 38.2051C603.334 38.463 602.984 38.6078 602.619 38.6078H592.761C592.476 39.4129 591.95 40.1101 591.253 40.6033C590.556 41.0964 589.723 41.3612 588.869 41.3612C588.016 41.3612 587.183 41.0964 586.486 40.6033C585.789 40.1101 585.262 39.4129 584.978 38.6078H583.369C583.005 38.6078 582.655 38.463 582.397 38.2051C582.139 37.9472 581.994 37.5975 581.994 37.2328C581.994 36.8682 582.139 36.5184 582.397 36.2606C582.655 36.0027 583.005 35.8578 583.369 35.8578H584.978ZM597.119 44.1078C596.755 44.1078 596.405 44.2527 596.147 44.5106C595.889 44.7684 595.744 45.1182 595.744 45.4828C595.744 45.8475 595.889 46.1972 596.147 46.4551C596.405 46.713 596.755 46.8578 597.119 46.8578C597.484 46.8578 597.834 46.713 598.092 46.4551C598.349 46.1972 598.494 45.8475 598.494 45.4828C598.494 45.1182 598.349 44.7684 598.092 44.5106C597.834 44.2527 597.484 44.1078 597.119 44.1078ZM593.228 44.1078C593.512 43.3027 594.039 42.6056 594.736 42.1124C595.433 41.6193 596.266 41.3545 597.119 41.3545C597.973 41.3545 598.806 41.6193 599.503 42.1124C600.2 42.6056 600.726 43.3027 601.011 44.1078H602.619C602.984 44.1078 603.334 44.2527 603.592 44.5106C603.849 44.7684 603.994 45.1182 603.994 45.4828C603.994 45.8475 603.849 46.1972 603.592 46.4551C603.334 46.713 602.984 46.8578 602.619 46.8578H601.011C600.726 47.6629 600.2 48.3601 599.503 48.8533C598.806 49.3464 597.973 49.6112 597.119 49.6112C596.266 49.6112 595.433 49.3464 594.736 48.8533C594.039 48.3601 593.512 47.6629 593.228 46.8578H583.369C583.005 46.8578 582.655 46.713 582.397 46.4551C582.139 46.1972 581.994 45.8475 581.994 45.4828C581.994 45.1182 582.139 44.7684 582.397 44.5106C582.655 44.2527 583.005 44.1078 583.369 44.1078H593.228ZM588.869 52.3578C588.505 52.3578 588.155 52.5027 587.897 52.7606C587.639 53.0184 587.494 53.3682 587.494 53.7328C587.494 54.0975 587.639 54.4473 587.897 54.7051C588.155 54.963 588.505 55.1078 588.869 55.1078C589.234 55.1078 589.584 54.963 589.842 54.7051C590.099 54.4473 590.244 54.0975 590.244 53.7328C590.244 53.3682 590.099 53.0184 589.842 52.7606C589.584 52.5027 589.234 52.3578 588.869 52.3578ZM584.978 52.3578C585.262 51.5527 585.789 50.8556 586.486 50.3624C587.183 49.8693 588.016 49.6045 588.869 49.6045C589.723 49.6045 590.556 49.8693 591.253 50.3624C591.95 50.8556 592.476 51.5527 592.761 52.3578H602.619C602.984 52.3578 603.334 52.5027 603.592 52.7606C603.849 53.0184 603.994 53.3682 603.994 53.7328C603.994 54.0975 603.849 54.4473 603.592 54.7051C603.334 54.963 602.984 55.1078 602.619 55.1078H592.761C592.476 55.9129 591.95 56.6101 591.253 57.1033C590.556 57.5964 589.723 57.8612 588.869 57.8612C588.016 57.8612 587.183 57.5964 586.486 57.1033C585.789 56.6101 585.262 55.9129 584.978 55.1078H583.369C583.005 55.1078 582.655 54.963 582.397 54.7051C582.139 54.4473 581.994 54.0975 581.994 53.7328C581.994 53.3682 582.139 53.0184 582.397 52.7606C582.655 52.5027 583.005 52.3578 583.369 52.3578H584.978Z" fill="#2848B9" />
    <path d="M96.5986 102.983L93.9426 98.4226H92.1826V102.983H90.7266V91.8306H94.3266C95.1692 91.8306 95.8786 91.9746 96.4546 92.2626C97.0412 92.5506 97.4786 92.9399 97.7666 93.4306C98.0546 93.9213 98.1986 94.4813 98.1986 95.1106C98.1986 95.8786 97.9746 96.5559 97.5266 97.1426C97.0892 97.7293 96.4279 98.1186 95.5426 98.3106L98.3426 102.983H96.5986ZM92.1826 97.2546H94.3266C95.1159 97.2546 95.7079 97.0626 96.1026 96.6786C96.4972 96.2839 96.6946 95.7613 96.6946 95.1106C96.6946 94.4493 96.4972 93.9373 96.1026 93.5746C95.7186 93.2119 95.1266 93.0306 94.3266 93.0306H92.1826V97.2546ZM108.461 98.2626C108.461 98.5399 108.445 98.8333 108.413 99.1426H101.405C101.458 100.007 101.752 100.684 102.285 101.175C102.829 101.655 103.485 101.895 104.253 101.895C104.882 101.895 105.405 101.751 105.821 101.463C106.248 101.164 106.546 100.769 106.717 100.279H108.285C108.05 101.121 107.581 101.809 106.877 102.343C106.173 102.865 105.298 103.127 104.253 103.127C103.421 103.127 102.674 102.94 102.013 102.567C101.362 102.193 100.85 101.665 100.477 100.983C100.104 100.289 99.9169 99.4893 99.9169 98.5826C99.9169 97.6759 100.098 96.8813 100.461 96.1986C100.824 95.5159 101.33 94.9933 101.981 94.6306C102.642 94.2573 103.4 94.0706 104.253 94.0706C105.085 94.0706 105.821 94.2519 106.461 94.6146C107.101 94.9773 107.591 95.4786 107.933 96.1186C108.285 96.7479 108.461 97.4626 108.461 98.2626ZM106.957 97.9586C106.957 97.4039 106.834 96.9293 106.589 96.5346C106.344 96.1293 106.008 95.8253 105.581 95.6226C105.165 95.4093 104.701 95.3026 104.189 95.3026C103.453 95.3026 102.824 95.5373 102.301 96.0066C101.789 96.4759 101.496 97.1266 101.421 97.9586H106.957ZM109.839 98.5666C109.839 97.6706 110.02 96.8866 110.383 96.2146C110.745 95.5319 111.241 95.0039 111.871 94.6306C112.511 94.2573 113.22 94.0706 113.999 94.0706C114.767 94.0706 115.433 94.2359 115.999 94.5666C116.564 94.8973 116.985 95.3133 117.263 95.8146V94.2146H118.735V102.983H117.263V101.351C116.975 101.863 116.543 102.289 115.967 102.631C115.401 102.961 114.74 103.127 113.983 103.127C113.204 103.127 112.5 102.935 111.871 102.551C111.241 102.167 110.745 101.628 110.383 100.935C110.02 100.241 109.839 99.4519 109.839 98.5666ZM117.263 98.5826C117.263 97.9213 117.129 97.3453 116.863 96.8546C116.596 96.3639 116.233 95.9906 115.775 95.7346C115.327 95.4679 114.831 95.3346 114.287 95.3346C113.743 95.3346 113.247 95.4626 112.799 95.7186C112.351 95.9746 111.993 96.3479 111.727 96.8386C111.46 97.3293 111.327 97.9053 111.327 98.5666C111.327 99.2386 111.46 99.8253 111.727 100.327C111.993 100.817 112.351 101.196 112.799 101.463C113.247 101.719 113.743 101.847 114.287 101.847C114.831 101.847 115.327 101.719 115.775 101.463C116.233 101.196 116.596 100.817 116.863 100.327C117.129 99.8253 117.263 99.2439 117.263 98.5826ZM120.651 98.5826C120.651 97.6759 120.832 96.8866 121.195 96.2146C121.558 95.5319 122.059 95.0039 122.699 94.6306C123.35 94.2573 124.091 94.0706 124.923 94.0706C126 94.0706 126.886 94.3319 127.579 94.8546C128.283 95.3773 128.747 96.1026 128.971 97.0306H127.403C127.254 96.4973 126.96 96.0759 126.523 95.7666C126.096 95.4573 125.563 95.3026 124.923 95.3026C124.091 95.3026 123.419 95.5906 122.907 96.1666C122.395 96.7319 122.139 97.5373 122.139 98.5826C122.139 99.6386 122.395 100.455 122.907 101.031C123.419 101.607 124.091 101.895 124.923 101.895C125.563 101.895 126.096 101.745 126.523 101.447C126.95 101.148 127.243 100.721 127.403 100.167H128.971C128.736 101.063 128.267 101.783 127.563 102.327C126.859 102.86 125.979 103.127 124.923 103.127C124.091 103.127 123.35 102.94 122.699 102.567C122.059 102.193 121.558 101.665 121.195 100.983C120.832 100.3 120.651 99.4999 120.651 98.5826ZM135.266 94.0546C135.927 94.0546 136.524 94.1986 137.058 94.4866C137.591 94.7639 138.007 95.1853 138.306 95.7506C138.615 96.3159 138.77 97.0039 138.77 97.8146V102.983H137.33V98.0226C137.33 97.1479 137.111 96.4813 136.674 96.0226C136.236 95.5533 135.639 95.3186 134.882 95.3186C134.114 95.3186 133.5 95.5586 133.042 96.0386C132.594 96.5186 132.37 97.2173 132.37 98.1346V102.983H130.914V91.1426H132.37V95.4626C132.658 95.0146 133.052 94.6679 133.554 94.4226C134.066 94.1773 134.636 94.0546 135.266 94.0546Z" fill="white" />
    <path d="M233.183 102.265H237.087V103.449H231.727V92.2974H233.183V102.265ZM246.634 98.7294C246.634 99.0067 246.618 99.3001 246.586 99.6094H239.578C239.631 100.473 239.924 101.151 240.458 101.641C241.002 102.121 241.658 102.361 242.426 102.361C243.055 102.361 243.578 102.217 243.994 101.929C244.42 101.631 244.719 101.236 244.89 100.745H246.458C246.223 101.588 245.754 102.276 245.05 102.809C244.346 103.332 243.471 103.593 242.426 103.593C241.594 103.593 240.847 103.407 240.186 103.033C239.535 102.66 239.023 102.132 238.65 101.449C238.276 100.756 238.09 99.9561 238.09 99.0494C238.09 98.1427 238.271 97.3481 238.634 96.6654C238.996 95.9827 239.503 95.4601 240.154 95.0974C240.815 94.7241 241.572 94.5374 242.426 94.5374C243.258 94.5374 243.994 94.7187 244.634 95.0814C245.274 95.4441 245.764 95.9454 246.106 96.5854C246.458 97.2147 246.634 97.9294 246.634 98.7294ZM245.13 98.4254C245.13 97.8707 245.007 97.3961 244.762 97.0014C244.516 96.5961 244.18 96.2921 243.754 96.0894C243.338 95.8761 242.874 95.7694 242.362 95.7694C241.626 95.7694 240.996 96.0041 240.474 96.4734C239.962 96.9427 239.668 97.5934 239.594 98.4254H245.13ZM248.011 99.0334C248.011 98.1374 248.193 97.3534 248.555 96.6814C248.918 95.9987 249.414 95.4707 250.043 95.0974C250.683 94.7241 251.393 94.5374 252.171 94.5374C252.939 94.5374 253.606 94.7027 254.171 95.0334C254.737 95.3641 255.158 95.7801 255.435 96.2814V94.6814H256.907V103.449H255.435V101.817C255.147 102.329 254.715 102.756 254.139 103.097C253.574 103.428 252.913 103.593 252.155 103.593C251.377 103.593 250.673 103.401 250.043 103.017C249.414 102.633 248.918 102.095 248.555 101.401C248.193 100.708 248.011 99.9187 248.011 99.0334ZM255.435 99.0494C255.435 98.3881 255.302 97.8121 255.035 97.3214C254.769 96.8307 254.406 96.4574 253.947 96.2014C253.499 95.9347 253.003 95.8014 252.459 95.8014C251.915 95.8014 251.419 95.9294 250.971 96.1854C250.523 96.4414 250.166 96.8147 249.899 97.3054C249.633 97.7961 249.499 98.3721 249.499 99.0334C249.499 99.7054 249.633 100.292 249.899 100.793C250.166 101.284 250.523 101.663 250.971 101.929C251.419 102.185 251.915 102.313 252.459 102.313C253.003 102.313 253.499 102.185 253.947 101.929C254.406 101.663 254.769 101.284 255.035 100.793C255.302 100.292 255.435 99.7107 255.435 99.0494ZM258.824 99.0334C258.824 98.1374 259.005 97.3534 259.368 96.6814C259.731 95.9987 260.227 95.4707 260.856 95.0974C261.496 94.7241 262.211 94.5374 263 94.5374C263.683 94.5374 264.317 94.6974 264.904 95.0174C265.491 95.3267 265.939 95.7374 266.248 96.2494V91.6094H267.72V103.449H266.248V101.801C265.96 102.324 265.533 102.756 264.968 103.097C264.403 103.428 263.741 103.593 262.984 103.593C262.205 103.593 261.496 103.401 260.856 103.017C260.227 102.633 259.731 102.095 259.368 101.401C259.005 100.708 258.824 99.9187 258.824 99.0334ZM266.248 99.0494C266.248 98.3881 266.115 97.8121 265.848 97.3214C265.581 96.8307 265.219 96.4574 264.76 96.2014C264.312 95.9347 263.816 95.8014 263.272 95.8014C262.728 95.8014 262.232 95.9294 261.784 96.1854C261.336 96.4414 260.979 96.8147 260.712 97.3054C260.445 97.7961 260.312 98.3721 260.312 99.0334C260.312 99.7054 260.445 100.292 260.712 100.793C260.979 101.284 261.336 101.663 261.784 101.929C262.232 102.185 262.728 102.313 263.272 102.313C263.816 102.313 264.312 102.185 264.76 101.929C265.219 101.663 265.581 101.284 265.848 100.793C266.115 100.292 266.248 99.7107 266.248 99.0494ZM273.284 103.593C272.612 103.593 272.01 103.481 271.476 103.257C270.943 103.023 270.522 102.703 270.212 102.297C269.903 101.881 269.732 101.407 269.7 100.873H271.204C271.247 101.311 271.45 101.668 271.812 101.945C272.186 102.223 272.671 102.361 273.268 102.361C273.823 102.361 274.26 102.239 274.58 101.993C274.9 101.748 275.06 101.439 275.06 101.065C275.06 100.681 274.89 100.399 274.548 100.217C274.207 100.025 273.679 99.8387 272.964 99.6574C272.314 99.4867 271.78 99.3161 271.364 99.1454C270.959 98.9641 270.607 98.7027 270.308 98.3614C270.02 98.0094 269.876 97.5507 269.876 96.9854C269.876 96.5374 270.01 96.1267 270.276 95.7534C270.543 95.3801 270.922 95.0867 271.412 94.8734C271.903 94.6494 272.463 94.5374 273.092 94.5374C274.063 94.5374 274.847 94.7827 275.444 95.2734C276.042 95.7641 276.362 96.4361 276.404 97.2894H274.948C274.916 96.8307 274.73 96.4627 274.388 96.1854C274.058 95.9081 273.61 95.7694 273.044 95.7694C272.522 95.7694 272.106 95.8814 271.796 96.1054C271.487 96.3294 271.332 96.6227 271.332 96.9854C271.332 97.2734 271.423 97.5134 271.604 97.7054C271.796 97.8867 272.031 98.0361 272.308 98.1534C272.596 98.2601 272.991 98.3827 273.492 98.5214C274.122 98.6921 274.634 98.8627 275.028 99.0334C275.423 99.1934 275.759 99.4387 276.036 99.7694C276.324 100.1 276.474 100.532 276.484 101.065C276.484 101.545 276.351 101.977 276.084 102.361C275.818 102.745 275.439 103.049 274.948 103.273C274.468 103.487 273.914 103.593 273.284 103.593Z" fill="white" />
    <path d="M375.318 100.969H370.454L369.558 103.449H368.022L372.054 92.3613H373.734L377.75 103.449H376.214L375.318 100.969ZM374.902 99.7853L372.886 94.1533L370.87 99.7853H374.902ZM390.052 94.5213C390.734 94.5213 391.342 94.6653 391.876 94.9533C392.409 95.2306 392.83 95.652 393.14 96.2173C393.449 96.7826 393.604 97.4706 393.604 98.2813V103.449H392.164V98.4893C392.164 97.6146 391.945 96.948 391.508 96.4893C391.081 96.02 390.5 95.7853 389.764 95.7853C389.006 95.7853 388.404 96.0306 387.956 96.5213C387.508 97.0013 387.284 97.7 387.284 98.6173V103.449H385.844V98.4893C385.844 97.6146 385.625 96.948 385.188 96.4893C384.761 96.02 384.18 95.7853 383.444 95.7853C382.686 95.7853 382.084 96.0306 381.636 96.5213C381.188 97.0013 380.964 97.7 380.964 98.6173V103.449H379.508V94.6813H380.964V95.9453C381.252 95.4866 381.636 95.1346 382.116 94.8893C382.606 94.644 383.145 94.5213 383.732 94.5213C384.468 94.5213 385.118 94.6866 385.684 95.0173C386.249 95.348 386.67 95.8333 386.948 96.4733C387.193 95.8546 387.598 95.3746 388.164 95.0333C388.729 94.692 389.358 94.5213 390.052 94.5213ZM399.816 103.593C398.995 103.593 398.248 103.407 397.576 103.033C396.915 102.66 396.392 102.132 396.008 101.449C395.635 100.756 395.448 99.956 395.448 99.0493C395.448 98.1533 395.64 97.364 396.024 96.6813C396.419 95.988 396.952 95.46 397.624 95.0973C398.296 94.724 399.048 94.5373 399.88 94.5373C400.712 94.5373 401.464 94.724 402.136 95.0973C402.808 95.46 403.336 95.9826 403.72 96.6653C404.115 97.348 404.312 98.1426 404.312 99.0493C404.312 99.956 404.109 100.756 403.704 101.449C403.309 102.132 402.771 102.66 402.088 103.033C401.405 103.407 400.648 103.593 399.816 103.593ZM399.816 102.313C400.339 102.313 400.829 102.191 401.288 101.945C401.747 101.7 402.115 101.332 402.392 100.841C402.68 100.351 402.824 99.7533 402.824 99.0493C402.824 98.3453 402.685 97.748 402.408 97.2573C402.131 96.7666 401.768 96.404 401.32 96.1693C400.872 95.924 400.387 95.8013 399.864 95.8013C399.331 95.8013 398.84 95.924 398.392 96.1693C397.955 96.404 397.603 96.7666 397.336 97.2573C397.069 97.748 396.936 98.3453 396.936 99.0493C396.936 99.764 397.064 100.367 397.32 100.857C397.587 101.348 397.939 101.716 398.376 101.961C398.813 102.196 399.293 102.313 399.816 102.313ZM414.002 94.6813V103.449H412.546V102.153C412.269 102.601 411.88 102.953 411.378 103.209C410.888 103.455 410.344 103.577 409.746 103.577C409.064 103.577 408.45 103.439 407.906 103.161C407.362 102.873 406.93 102.447 406.61 101.881C406.301 101.316 406.146 100.628 406.146 99.8173V94.6813H407.586V99.6253C407.586 100.489 407.805 101.156 408.242 101.625C408.68 102.084 409.277 102.313 410.034 102.313C410.813 102.313 411.426 102.073 411.874 101.593C412.322 101.113 412.546 100.415 412.546 99.4973V94.6813H414.002ZM420.733 94.5213C421.799 94.5213 422.663 94.8466 423.325 95.4973C423.986 96.1373 424.317 97.0653 424.317 98.2813V103.449H422.877V98.4893C422.877 97.6146 422.658 96.948 422.221 96.4893C421.783 96.02 421.186 95.7853 420.429 95.7853C419.661 95.7853 419.047 96.0253 418.589 96.5053C418.141 96.9853 417.917 97.684 417.917 98.6013V103.449H416.461V94.6813H417.917V95.9293C418.205 95.4813 418.594 95.1346 419.085 94.8893C419.586 94.644 420.135 94.5213 420.733 94.5213ZM428.471 95.8813V101.049C428.471 101.476 428.562 101.78 428.743 101.961C428.924 102.132 429.239 102.217 429.687 102.217H430.759V103.449H429.447C428.636 103.449 428.028 103.263 427.623 102.889C427.218 102.516 427.015 101.903 427.015 101.049V95.8813H425.879V94.6813H427.015V92.4733H428.471V94.6813H430.759V95.8813H428.471ZM439.893 103.593C439.221 103.593 438.618 103.481 438.085 103.257C437.551 103.023 437.13 102.703 436.821 102.297C436.511 101.881 436.341 101.407 436.309 100.873H437.813C437.855 101.311 438.058 101.668 438.421 101.945C438.794 102.223 439.279 102.361 439.877 102.361C440.431 102.361 440.869 102.239 441.189 101.993C441.509 101.748 441.669 101.439 441.669 101.065C441.669 100.681 441.498 100.399 441.157 100.217C440.815 100.025 440.287 99.8386 439.573 99.6573C438.922 99.4866 438.389 99.316 437.973 99.1453C437.567 98.964 437.215 98.7026 436.917 98.3613C436.629 98.0093 436.485 97.5506 436.485 96.9853C436.485 96.5373 436.618 96.1266 436.885 95.7533C437.151 95.38 437.53 95.0866 438.021 94.8733C438.511 94.6493 439.071 94.5373 439.701 94.5373C440.671 94.5373 441.455 94.7826 442.053 95.2733C442.65 95.764 442.97 96.436 443.013 97.2893H441.557C441.525 96.8306 441.338 96.4626 440.997 96.1853C440.666 95.908 440.218 95.7693 439.653 95.7693C439.13 95.7693 438.714 95.8813 438.405 96.1053C438.095 96.3293 437.941 96.6226 437.941 96.9853C437.941 97.2733 438.031 97.5133 438.213 97.7053C438.405 97.8866 438.639 98.036 438.917 98.1533C439.205 98.26 439.599 98.3826 440.101 98.5213C440.73 98.692 441.242 98.8626 441.637 99.0333C442.031 99.1933 442.367 99.4386 442.645 99.7693C442.933 100.1 443.082 100.532 443.093 101.065C443.093 101.545 442.959 101.977 442.693 102.361C442.426 102.745 442.047 103.049 441.557 103.273C441.077 103.487 440.522 103.593 439.893 103.593ZM446.604 96.2973C446.892 95.796 447.319 95.38 447.884 95.0493C448.46 94.708 449.127 94.5373 449.884 94.5373C450.663 94.5373 451.367 94.724 451.996 95.0973C452.636 95.4706 453.137 95.9986 453.5 96.6813C453.863 97.3533 454.044 98.1373 454.044 99.0333C454.044 99.9186 453.863 100.708 453.5 101.401C453.137 102.095 452.636 102.633 451.996 103.017C451.367 103.401 450.663 103.593 449.884 103.593C449.137 103.593 448.476 103.428 447.9 103.097C447.335 102.756 446.903 102.335 446.604 101.833V107.61H445.148V94.6813H446.604V96.2973ZM452.556 99.0333C452.556 98.372 452.423 97.796 452.156 97.3053C451.889 96.8146 451.527 96.4413 451.068 96.1853C450.62 95.9293 450.124 95.8013 449.58 95.8013C449.047 95.8013 448.551 95.9346 448.092 96.2013C447.644 96.4573 447.281 96.836 447.004 97.3373C446.737 97.828 446.604 98.3986 446.604 99.0493C446.604 99.7106 446.737 100.292 447.004 100.793C447.281 101.284 447.644 101.663 448.092 101.929C448.551 102.185 449.047 102.313 449.58 102.313C450.124 102.313 450.62 102.185 451.068 101.929C451.527 101.663 451.889 101.284 452.156 100.793C452.423 100.292 452.556 99.7053 452.556 99.0333ZM463.961 98.7293C463.961 99.0066 463.945 99.3 463.913 99.6093H456.905C456.958 100.473 457.251 101.151 457.785 101.641C458.329 102.121 458.985 102.361 459.753 102.361C460.382 102.361 460.905 102.217 461.321 101.929C461.747 101.631 462.046 101.236 462.217 100.745H463.785C463.55 101.588 463.081 102.276 462.377 102.809C461.673 103.332 460.798 103.593 459.753 103.593C458.921 103.593 458.174 103.407 457.513 103.033C456.862 102.66 456.35 102.132 455.977 101.449C455.603 100.756 455.417 99.956 455.417 99.0493C455.417 98.1426 455.598 97.348 455.961 96.6653C456.323 95.9826 456.83 95.46 457.481 95.0973C458.142 94.724 458.899 94.5373 459.753 94.5373C460.585 94.5373 461.321 94.7186 461.961 95.0813C462.601 95.444 463.091 95.9453 463.433 96.5853C463.785 97.2146 463.961 97.9293 463.961 98.7293ZM462.457 98.4253C462.457 97.8706 462.334 97.396 462.089 97.0013C461.843 96.596 461.507 96.292 461.081 96.0893C460.665 95.876 460.201 95.7693 459.689 95.7693C458.953 95.7693 458.323 96.004 457.801 96.4733C457.289 96.9426 456.995 97.5933 456.921 98.4253H462.457ZM470.155 94.5213C471.221 94.5213 472.085 94.8466 472.747 95.4973C473.408 96.1373 473.739 97.0653 473.739 98.2813V103.449H472.299V98.4893C472.299 97.6146 472.08 96.948 471.643 96.4893C471.205 96.02 470.608 95.7853 469.851 95.7853C469.083 95.7853 468.469 96.0253 468.011 96.5053C467.563 96.9853 467.339 97.684 467.339 98.6013V103.449H465.883V94.6813H467.339V95.9293C467.627 95.4813 468.016 95.1346 468.507 94.8893C469.008 94.644 469.557 94.5213 470.155 94.5213ZM477.893 95.8813V101.049C477.893 101.476 477.984 101.78 478.165 101.961C478.346 102.132 478.661 102.217 479.109 102.217H480.181V103.449H478.869C478.058 103.449 477.45 103.263 477.045 102.889C476.64 102.516 476.437 101.903 476.437 101.049V95.8813H475.301V94.6813H476.437V92.4733H477.893V94.6813H480.181V95.8813H477.893Z" fill="white" />
    <path d="M565.599 103.449L562.943 98.8894H561.183V103.449H559.727V92.2974H563.327C564.17 92.2974 564.879 92.4414 565.455 92.7294C566.042 93.0174 566.479 93.4067 566.767 93.8974C567.055 94.3881 567.199 94.9481 567.199 95.5774C567.199 96.3454 566.975 97.0227 566.527 97.6094C566.09 98.1961 565.429 98.5854 564.543 98.7774L567.343 103.449H565.599ZM561.183 97.7214H563.327C564.117 97.7214 564.709 97.5294 565.103 97.1454C565.498 96.7507 565.695 96.2281 565.695 95.5774C565.695 94.9161 565.498 94.4041 565.103 94.0414C564.719 93.6787 564.127 93.4974 563.327 93.4974H561.183V97.7214ZM577.462 98.7294C577.462 99.0067 577.446 99.3001 577.414 99.6094H570.406C570.459 100.473 570.752 101.151 571.286 101.641C571.83 102.121 572.486 102.361 573.254 102.361C573.883 102.361 574.406 102.217 574.822 101.929C575.248 101.631 575.547 101.236 575.718 100.745H577.286C577.051 101.588 576.582 102.276 575.878 102.809C575.174 103.332 574.299 103.593 573.254 103.593C572.422 103.593 571.675 103.407 571.014 103.033C570.363 102.66 569.851 102.132 569.478 101.449C569.104 100.756 568.918 99.9561 568.918 99.0494C568.918 98.1427 569.099 97.3481 569.462 96.6654C569.824 95.9827 570.331 95.4601 570.982 95.0974C571.643 94.7241 572.4 94.5374 573.254 94.5374C574.086 94.5374 574.822 94.7187 575.462 95.0814C576.102 95.4441 576.592 95.9454 576.934 96.5854C577.286 97.2147 577.462 97.9294 577.462 98.7294ZM575.958 98.4254C575.958 97.8707 575.835 97.3961 575.59 97.0014C575.344 96.5961 575.008 96.2921 574.582 96.0894C574.166 95.8761 573.702 95.7694 573.19 95.7694C572.454 95.7694 571.824 96.0041 571.302 96.4734C570.79 96.9427 570.496 97.5934 570.422 98.4254H575.958ZM582.488 103.593C581.816 103.593 581.213 103.481 580.68 103.257C580.146 103.023 579.725 102.703 579.416 102.297C579.106 101.881 578.936 101.407 578.904 100.873H580.408C580.45 101.311 580.653 101.668 581.016 101.945C581.389 102.223 581.874 102.361 582.472 102.361C583.026 102.361 583.464 102.239 583.784 101.993C584.104 101.748 584.264 101.439 584.264 101.065C584.264 100.681 584.093 100.399 583.752 100.217C583.41 100.025 582.882 99.8387 582.168 99.6574C581.517 99.4867 580.984 99.3161 580.568 99.1454C580.162 98.9641 579.81 98.7027 579.512 98.3614C579.224 98.0094 579.08 97.5507 579.08 96.9854C579.08 96.5374 579.213 96.1267 579.48 95.7534C579.746 95.3801 580.125 95.0867 580.616 94.8734C581.106 94.6494 581.666 94.5374 582.296 94.5374C583.266 94.5374 584.05 94.7827 584.648 95.2734C585.245 95.7641 585.565 96.4361 585.608 97.2894H584.152C584.12 96.8307 583.933 96.4627 583.592 96.1854C583.261 95.9081 582.813 95.7694 582.248 95.7694C581.725 95.7694 581.309 95.8814 581 96.1054C580.69 96.3294 580.536 96.6227 580.536 96.9854C580.536 97.2734 580.626 97.5134 580.808 97.7054C581 97.8867 581.234 98.0361 581.512 98.1534C581.8 98.2601 582.194 98.3827 582.696 98.5214C583.325 98.6921 583.837 98.8627 584.232 99.0334C584.626 99.1934 584.962 99.4387 585.24 99.7694C585.528 100.1 585.677 100.532 585.688 101.065C585.688 101.545 585.554 101.977 585.288 102.361C585.021 102.745 584.642 103.049 584.152 103.273C583.672 103.487 583.117 103.593 582.488 103.593ZM595.519 94.6814V103.449H594.063V102.153C593.786 102.601 593.396 102.953 592.895 103.209C592.404 103.455 591.86 103.577 591.263 103.577C590.58 103.577 589.967 103.439 589.423 103.161C588.879 102.873 588.447 102.447 588.127 101.881C587.818 101.316 587.663 100.628 587.663 99.8174V94.6814H589.103V99.6254C589.103 100.489 589.322 101.156 589.759 101.625C590.196 102.084 590.794 102.313 591.551 102.313C592.33 102.313 592.943 102.073 593.391 101.593C593.839 101.113 594.063 100.415 594.063 99.4974V94.6814H595.519ZM599.433 91.6094V103.449H597.977V91.6094H599.433ZM603.691 95.8814V101.049C603.691 101.476 603.781 101.78 603.963 101.961C604.144 102.132 604.459 102.217 604.907 102.217H605.979V103.449H604.667C603.856 103.449 603.248 103.263 602.843 102.889C602.437 102.516 602.235 101.903 602.235 101.049V95.8814H601.099V94.6814H602.235V92.4734H603.691V94.6814H605.979V95.8814H603.691ZM610.847 103.593C610.175 103.593 609.572 103.481 609.039 103.257C608.506 103.023 608.084 102.703 607.775 102.297C607.466 101.881 607.295 101.407 607.263 100.873H608.767C608.81 101.311 609.012 101.668 609.375 101.945C609.748 102.223 610.234 102.361 610.831 102.361C611.386 102.361 611.823 102.239 612.143 101.993C612.463 101.748 612.623 101.439 612.623 101.065C612.623 100.681 612.452 100.399 612.111 100.217C611.77 100.025 611.242 99.8387 610.527 99.6574C609.876 99.4867 609.343 99.3161 608.927 99.1454C608.522 98.9641 608.17 98.7027 607.871 98.3614C607.583 98.0094 607.439 97.5507 607.439 96.9854C607.439 96.5374 607.572 96.1267 607.839 95.7534C608.106 95.3801 608.484 95.0867 608.975 94.8734C609.466 94.6494 610.026 94.5374 610.655 94.5374C611.626 94.5374 612.41 94.7827 613.007 95.2734C613.604 95.7641 613.924 96.4361 613.967 97.2894H612.511C612.479 96.8307 612.292 96.4627 611.951 96.1854C611.62 95.9081 611.172 95.7694 610.607 95.7694C610.084 95.7694 609.668 95.8814 609.359 96.1054C609.05 96.3294 608.895 96.6227 608.895 96.9854C608.895 97.2734 608.986 97.5134 609.167 97.7054C609.359 97.8867 609.594 98.0361 609.871 98.1534C610.159 98.2601 610.554 98.3827 611.055 98.5214C611.684 98.6921 612.196 98.8627 612.591 99.0334C612.986 99.1934 613.322 99.4387 613.599 99.7694C613.887 100.1 614.036 100.532 614.047 101.065C614.047 101.545 613.914 101.977 613.647 102.361C613.38 102.745 613.002 103.049 612.511 103.273C612.031 103.487 611.476 103.593 610.847 103.593Z" fill="white" />
    <path opacity="0.5" d="M539.884 38.9824H420.104C416.495 38.9824 413.033 39.7199 410.481 41.0326C407.928 42.3454 406.494 44.1259 406.494 45.9824C406.494 47.8389 407.928 49.6194 410.481 50.9321C413.033 52.2449 416.495 52.9824 420.104 52.9824H539.884C543.494 52.9824 546.956 52.2449 549.508 50.9321C552.06 49.6194 553.494 47.8389 553.494 45.9824C553.494 44.1259 552.06 42.3454 549.508 41.0326C546.956 39.7199 543.494 38.9824 539.884 38.9824Z" fill="#2848B9" />
    <path d="M100.412 164.668C101.936 163.444 103.13 162.442 103.994 161.662C104.858 160.87 105.584 160.048 106.172 159.196C106.772 158.332 107.072 157.486 107.072 156.658C107.072 155.878 106.88 155.266 106.496 154.822C106.124 154.366 105.518 154.138 104.678 154.138C103.862 154.138 103.226 154.396 102.77 154.912C102.326 155.416 102.086 156.094 102.05 156.946H100.466C100.514 155.602 100.922 154.564 101.69 153.832C102.458 153.1 103.448 152.734 104.66 152.734C105.896 152.734 106.874 153.076 107.594 153.76C108.326 154.444 108.692 155.386 108.692 156.586C108.692 157.582 108.392 158.554 107.792 159.502C107.204 160.438 106.532 161.266 105.776 161.986C105.02 162.694 104.054 163.522 102.878 164.47H109.07V165.838H100.412V164.668ZM113.34 159.214C112.668 158.95 112.152 158.566 111.792 158.062C111.432 157.558 111.252 156.946 111.252 156.226C111.252 155.578 111.414 154.996 111.738 154.48C112.062 153.952 112.542 153.538 113.178 153.238C113.826 152.926 114.606 152.77 115.518 152.77C116.43 152.77 117.204 152.926 117.84 153.238C118.488 153.538 118.974 153.952 119.298 154.48C119.634 154.996 119.802 155.578 119.802 156.226C119.802 156.922 119.616 157.534 119.244 158.062C118.872 158.578 118.362 158.962 117.714 159.214C118.458 159.442 119.046 159.844 119.478 160.42C119.922 160.984 120.144 161.668 120.144 162.472C120.144 163.252 119.952 163.936 119.568 164.524C119.184 165.1 118.638 165.55 117.93 165.874C117.234 166.186 116.43 166.342 115.518 166.342C114.606 166.342 113.802 166.186 113.106 165.874C112.422 165.55 111.888 165.1 111.504 164.524C111.12 163.936 110.928 163.252 110.928 162.472C110.928 161.668 111.144 160.978 111.576 160.402C112.008 159.826 112.596 159.43 113.34 159.214ZM118.218 156.424C118.218 155.692 117.978 155.128 117.498 154.732C117.018 154.336 116.358 154.138 115.518 154.138C114.69 154.138 114.036 154.336 113.556 154.732C113.076 155.128 112.836 155.698 112.836 156.442C112.836 157.114 113.082 157.654 113.574 158.062C114.078 158.47 114.726 158.674 115.518 158.674C116.322 158.674 116.97 158.47 117.462 158.062C117.966 157.642 118.218 157.096 118.218 156.424ZM115.518 159.934C114.63 159.934 113.904 160.144 113.34 160.564C112.776 160.972 112.494 161.59 112.494 162.418C112.494 163.186 112.764 163.804 113.304 164.272C113.856 164.74 114.594 164.974 115.518 164.974C116.442 164.974 117.174 164.74 117.714 164.272C118.254 163.804 118.524 163.186 118.524 162.418C118.524 161.614 118.248 161.002 117.696 160.582C117.144 160.15 116.418 159.934 115.518 159.934ZM128.097 165.982L124.227 161.626V165.982H122.589V152.662H124.227V160.492L128.025 156.118H130.311L125.667 161.032L130.329 165.982H128.097Z" fill="#2848B9" />
    <path d="M574.214 163.084V161.842L580.532 153.094H582.494V161.662H584.294V163.084H582.494V165.982H580.874V163.084H574.214ZM580.946 154.804L576.104 161.662H580.946V154.804ZM594.229 154.39H587.911V158.494C588.187 158.11 588.595 157.798 589.135 157.558C589.675 157.306 590.257 157.18 590.881 157.18C591.877 157.18 592.687 157.39 593.311 157.81C593.935 158.218 594.379 158.752 594.643 159.412C594.919 160.06 595.057 160.75 595.057 161.482C595.057 162.346 594.895 163.12 594.571 163.804C594.247 164.488 593.749 165.028 593.077 165.424C592.417 165.82 591.595 166.018 590.611 166.018C589.351 166.018 588.331 165.694 587.551 165.046C586.771 164.398 586.297 163.534 586.129 162.454H587.731C587.887 163.138 588.217 163.672 588.721 164.056C589.225 164.44 589.861 164.632 590.629 164.632C591.577 164.632 592.291 164.35 592.771 163.786C593.251 163.21 593.491 162.454 593.491 161.518C593.491 160.582 593.251 159.862 592.771 159.358C592.291 158.842 591.583 158.584 590.647 158.584C590.011 158.584 589.453 158.74 588.973 159.052C588.505 159.352 588.163 159.766 587.947 160.294H586.399V152.95H594.229V154.39ZM603.011 165.982L599.141 161.626V165.982H597.503V152.662H599.141V160.492L602.939 156.118H605.225L600.581 161.032L605.243 165.982H603.011Z" fill="#2848B9" />
    <path d="M94.4121 251.668C95.9361 250.444 97.1301 249.442 97.9941 248.662C98.8581 247.87 99.5841 247.048 100.172 246.196C100.772 245.332 101.072 244.486 101.072 243.658C101.072 242.878 100.88 242.266 100.496 241.822C100.124 241.366 99.5181 241.138 98.6781 241.138C97.8621 241.138 97.2261 241.396 96.7701 241.912C96.3261 242.416 96.0861 243.094 96.0501 243.946H94.4661C94.5141 242.602 94.9221 241.564 95.6901 240.832C96.4581 240.1 97.4481 239.734 98.6601 239.734C99.8961 239.734 100.874 240.076 101.594 240.76C102.326 241.444 102.692 242.386 102.692 243.586C102.692 244.582 102.392 245.554 101.792 246.502C101.204 247.438 100.532 248.266 99.7761 248.986C99.0201 249.694 98.0541 250.522 96.8781 251.47H103.07V252.838H94.4121V251.668ZM104.964 246.34C104.964 244.276 105.3 242.668 105.972 241.516C106.644 240.352 107.82 239.77 109.5 239.77C111.168 239.77 112.338 240.352 113.01 241.516C113.682 242.668 114.018 244.276 114.018 246.34C114.018 248.44 113.682 250.072 113.01 251.236C112.338 252.4 111.168 252.982 109.5 252.982C107.82 252.982 106.644 252.4 105.972 251.236C105.3 250.072 104.964 248.44 104.964 246.34ZM112.398 246.34C112.398 245.296 112.326 244.414 112.182 243.694C112.05 242.962 111.768 242.374 111.336 241.93C110.916 241.486 110.304 241.264 109.5 241.264C108.684 241.264 108.06 241.486 107.628 241.93C107.208 242.374 106.926 242.962 106.782 243.694C106.65 244.414 106.584 245.296 106.584 246.34C106.584 247.42 106.65 248.326 106.782 249.058C106.926 249.79 107.208 250.378 107.628 250.822C108.06 251.266 108.684 251.488 109.5 251.488C110.304 251.488 110.916 251.266 111.336 250.822C111.768 250.378 112.05 249.79 112.182 249.058C112.326 248.326 112.398 247.42 112.398 246.34ZM116.267 246.34C116.267 244.276 116.603 242.668 117.275 241.516C117.947 240.352 119.123 239.77 120.803 239.77C122.471 239.77 123.641 240.352 124.313 241.516C124.985 242.668 125.321 244.276 125.321 246.34C125.321 248.44 124.985 250.072 124.313 251.236C123.641 252.4 122.471 252.982 120.803 252.982C119.123 252.982 117.947 252.4 117.275 251.236C116.603 250.072 116.267 248.44 116.267 246.34ZM123.701 246.34C123.701 245.296 123.629 244.414 123.485 243.694C123.353 242.962 123.071 242.374 122.639 241.93C122.219 241.486 121.607 241.264 120.803 241.264C119.987 241.264 119.363 241.486 118.931 241.93C118.511 242.374 118.229 242.962 118.085 243.694C117.953 244.414 117.887 245.296 117.887 246.34C117.887 247.42 117.953 248.326 118.085 249.058C118.229 249.79 118.511 250.378 118.931 250.822C119.363 251.266 119.987 251.488 120.803 251.488C121.607 251.488 122.219 251.266 122.639 250.822C123.071 250.378 123.353 249.79 123.485 249.058C123.629 248.326 123.701 247.42 123.701 246.34ZM133.347 252.982L129.477 248.626V252.982H127.839V239.662H129.477V247.492L133.275 243.118H135.561L130.917 248.032L135.579 252.982H133.347Z" fill="#2848B9" />
    <path d="M568.178 241.462V239.968H571.562V252.982H569.906V241.462H568.178ZM576.752 246.214C576.08 245.95 575.564 245.566 575.204 245.062C574.844 244.558 574.664 243.946 574.664 243.226C574.664 242.578 574.826 241.996 575.15 241.48C575.474 240.952 575.954 240.538 576.59 240.238C577.238 239.926 578.018 239.77 578.93 239.77C579.842 239.77 580.616 239.926 581.252 240.238C581.9 240.538 582.386 240.952 582.71 241.48C583.046 241.996 583.214 242.578 583.214 243.226C583.214 243.922 583.028 244.534 582.656 245.062C582.284 245.578 581.774 245.962 581.126 246.214C581.87 246.442 582.458 246.844 582.89 247.42C583.334 247.984 583.556 248.668 583.556 249.472C583.556 250.252 583.364 250.936 582.98 251.524C582.596 252.1 582.05 252.55 581.342 252.874C580.646 253.186 579.842 253.342 578.93 253.342C578.018 253.342 577.214 253.186 576.518 252.874C575.834 252.55 575.3 252.1 574.916 251.524C574.532 250.936 574.34 250.252 574.34 249.472C574.34 248.668 574.556 247.978 574.988 247.402C575.42 246.826 576.008 246.43 576.752 246.214ZM581.63 243.424C581.63 242.692 581.39 242.128 580.91 241.732C580.43 241.336 579.77 241.138 578.93 241.138C578.102 241.138 577.448 241.336 576.968 241.732C576.488 242.128 576.248 242.698 576.248 243.442C576.248 244.114 576.494 244.654 576.986 245.062C577.49 245.47 578.138 245.674 578.93 245.674C579.734 245.674 580.382 245.47 580.874 245.062C581.378 244.642 581.63 244.096 581.63 243.424ZM578.93 246.934C578.042 246.934 577.316 247.144 576.752 247.564C576.188 247.972 575.906 248.59 575.906 249.418C575.906 250.186 576.176 250.804 576.716 251.272C577.268 251.74 578.006 251.974 578.93 251.974C579.854 251.974 580.586 251.74 581.126 251.272C581.666 250.804 581.936 250.186 581.936 249.418C581.936 248.614 581.66 248.002 581.108 247.582C580.556 247.15 579.83 246.934 578.93 246.934ZM585.731 246.34C585.731 244.276 586.067 242.668 586.739 241.516C587.411 240.352 588.587 239.77 590.267 239.77C591.935 239.77 593.105 240.352 593.777 241.516C594.449 242.668 594.785 244.276 594.785 246.34C594.785 248.44 594.449 250.072 593.777 251.236C593.105 252.4 591.935 252.982 590.267 252.982C588.587 252.982 587.411 252.4 586.739 251.236C586.067 250.072 585.731 248.44 585.731 246.34ZM593.165 246.34C593.165 245.296 593.093 244.414 592.949 243.694C592.817 242.962 592.535 242.374 592.103 241.93C591.683 241.486 591.071 241.264 590.267 241.264C589.451 241.264 588.827 241.486 588.395 241.93C587.975 242.374 587.693 242.962 587.549 243.694C587.417 244.414 587.351 245.296 587.351 246.34C587.351 247.42 587.417 248.326 587.549 249.058C587.693 249.79 587.975 250.378 588.395 250.822C588.827 251.266 589.451 251.488 590.267 251.488C591.071 251.488 591.683 251.266 592.103 250.822C592.535 250.378 592.817 249.79 592.949 249.058C593.093 248.326 593.165 247.42 593.165 246.34ZM602.812 252.982L598.942 248.626V252.982H597.304V239.662H598.942V247.492L602.74 243.118H605.026L600.382 248.032L605.044 252.982H602.812Z" fill="#2848B9" />
    <path d="M92.5189 45.6501H96.9109V46.9821H90.8809V34.4361H92.5189V45.6501ZM107.651 41.6721C107.651 41.9841 107.633 42.3141 107.597 42.6621H99.7124C99.7724 43.6341 100.102 44.3961 100.702 44.9481C101.314 45.4881 102.052 45.7581 102.916 45.7581C103.624 45.7581 104.212 45.5961 104.68 45.2721C105.16 44.9361 105.496 44.4921 105.688 43.9401H107.452C107.188 44.8881 106.66 45.6621 105.868 46.2621C105.076 46.8501 104.092 47.1441 102.916 47.1441C101.98 47.1441 101.14 46.9341 100.396 46.5141C99.6644 46.0941 99.0884 45.5001 98.6684 44.7321C98.2484 43.9521 98.0384 43.0521 98.0384 42.0321C98.0384 41.0121 98.2424 40.1181 98.6504 39.3501C99.0584 38.5821 99.6284 37.9941 100.36 37.5861C101.104 37.1661 101.956 36.9561 102.916 36.9561C103.852 36.9561 104.68 37.1601 105.4 37.5681C106.12 37.9761 106.672 38.5401 107.056 39.2601C107.452 39.9681 107.651 40.7721 107.651 41.6721ZM105.958 41.3301C105.958 40.7061 105.82 40.1721 105.544 39.7281C105.268 39.2721 104.89 38.9301 104.41 38.7021C103.942 38.4621 103.42 38.3421 102.844 38.3421C102.016 38.3421 101.308 38.6061 100.72 39.1341C100.144 39.6621 99.8144 40.3941 99.7304 41.3301H105.958ZM109.201 42.0141C109.201 41.0061 109.405 40.1241 109.813 39.3681C110.221 38.6001 110.779 38.0061 111.487 37.5861C112.207 37.1661 113.005 36.9561 113.881 36.9561C114.745 36.9561 115.495 37.1421 116.131 37.5141C116.767 37.8861 117.241 38.3541 117.553 38.9181V37.1181H119.209V46.9821H117.553V45.1461C117.229 45.7221 116.743 46.2021 116.095 46.5861C115.459 46.9581 114.715 47.1441 113.863 47.1441C112.987 47.1441 112.195 46.9281 111.487 46.4961C110.779 46.0641 110.221 45.4581 109.813 44.6781C109.405 43.8981 109.201 43.0101 109.201 42.0141ZM117.553 42.0321C117.553 41.2881 117.403 40.6401 117.103 40.0881C116.803 39.5361 116.395 39.1161 115.879 38.8281C115.375 38.5281 114.817 38.3781 114.205 38.3781C113.593 38.3781 113.035 38.5221 112.531 38.8101C112.027 39.0981 111.625 39.5181 111.325 40.0701C111.025 40.6221 110.875 41.2701 110.875 42.0141C110.875 42.7701 111.025 43.4301 111.325 43.9941C111.625 44.5461 112.027 44.9721 112.531 45.2721C113.035 45.5601 113.593 45.7041 114.205 45.7041C114.817 45.7041 115.375 45.5601 115.879 45.2721C116.395 44.9721 116.803 44.5461 117.103 43.9941C117.403 43.4301 117.553 42.7761 117.553 42.0321ZM121.365 42.0141C121.365 41.0061 121.569 40.1241 121.977 39.3681C122.385 38.6001 122.943 38.0061 123.651 37.5861C124.371 37.1661 125.175 36.9561 126.063 36.9561C126.831 36.9561 127.545 37.1361 128.205 37.4961C128.865 37.8441 129.369 38.3061 129.717 38.8821V33.6621H131.373V46.9821H129.717V45.1281C129.393 45.7161 128.913 46.2021 128.277 46.5861C127.641 46.9581 126.897 47.1441 126.045 47.1441C125.169 47.1441 124.371 46.9281 123.651 46.4961C122.943 46.0641 122.385 45.4581 121.977 44.6781C121.569 43.8981 121.365 43.0101 121.365 42.0141ZM129.717 42.0321C129.717 41.2881 129.567 40.6401 129.267 40.0881C128.967 39.5361 128.559 39.1161 128.043 38.8281C127.539 38.5281 126.981 38.3781 126.369 38.3781C125.757 38.3781 125.199 38.5221 124.695 38.8101C124.191 39.0981 123.789 39.5181 123.489 40.0701C123.189 40.6221 123.039 41.2701 123.039 42.0141C123.039 42.7701 123.189 43.4301 123.489 43.9941C123.789 44.5461 124.191 44.9721 124.695 45.2721C125.199 45.5601 125.757 45.7041 126.369 45.7041C126.981 45.7041 127.539 45.5601 128.043 45.2721C128.559 44.9721 128.967 44.5461 129.267 43.9941C129.567 43.4301 129.717 42.7761 129.717 42.0321ZM138.328 42.0141C138.328 41.0061 138.532 40.1241 138.94 39.3681C139.348 38.6001 139.906 38.0061 140.614 37.5861C141.334 37.1661 142.132 36.9561 143.008 36.9561C143.872 36.9561 144.622 37.1421 145.258 37.5141C145.894 37.8861 146.368 38.3541 146.68 38.9181V37.1181H148.336V46.9821H146.68V45.1461C146.356 45.7221 145.87 46.2021 145.222 46.5861C144.586 46.9581 143.842 47.1441 142.99 47.1441C142.114 47.1441 141.322 46.9281 140.614 46.4961C139.906 46.0641 139.348 45.4581 138.94 44.6781C138.532 43.8981 138.328 43.0101 138.328 42.0141ZM146.68 42.0321C146.68 41.2881 146.53 40.6401 146.23 40.0881C145.93 39.5361 145.522 39.1161 145.006 38.8281C144.502 38.5281 143.944 38.3781 143.332 38.3781C142.72 38.3781 142.162 38.5221 141.658 38.8101C141.154 39.0981 140.752 39.5181 140.452 40.0701C140.152 40.6221 140.002 41.2701 140.002 42.0141C140.002 42.7701 140.152 43.4301 140.452 43.9941C140.752 44.5461 141.154 44.9721 141.658 45.2721C142.162 45.5601 142.72 45.7041 143.332 45.7041C143.944 45.7041 144.502 45.5601 145.006 45.2721C145.522 44.9721 145.93 44.5461 146.23 43.9941C146.53 43.4301 146.68 42.7761 146.68 42.0321ZM150.492 42.0141C150.492 41.0061 150.696 40.1241 151.104 39.3681C151.512 38.6001 152.07 38.0061 152.778 37.5861C153.498 37.1661 154.302 36.9561 155.19 36.9561C155.958 36.9561 156.672 37.1361 157.332 37.4961C157.992 37.8441 158.496 38.3061 158.844 38.8821V33.6621H160.5V46.9821H158.844V45.1281C158.52 45.7161 158.04 46.2021 157.404 46.5861C156.768 46.9581 156.024 47.1441 155.172 47.1441C154.296 47.1441 153.498 46.9281 152.778 46.4961C152.07 46.0641 151.512 45.4581 151.104 44.6781C150.696 43.8981 150.492 43.0101 150.492 42.0141ZM158.844 42.0321C158.844 41.2881 158.694 40.6401 158.394 40.0881C158.094 39.5361 157.686 39.1161 157.17 38.8281C156.666 38.5281 156.108 38.3781 155.496 38.3781C154.884 38.3781 154.326 38.5221 153.822 38.8101C153.318 39.0981 152.916 39.5181 152.616 40.0701C152.316 40.6221 152.166 41.2701 152.166 42.0141C152.166 42.7701 152.316 43.4301 152.616 43.9941C152.916 44.5461 153.318 44.9721 153.822 45.2721C154.326 45.5601 154.884 45.7041 155.496 45.7041C156.108 45.7041 156.666 45.5601 157.17 45.2721C157.686 44.9721 158.094 44.5461 158.394 43.9941C158.694 43.4301 158.844 42.7761 158.844 42.0321ZM166.76 47.1441C166.004 47.1441 165.326 47.0181 164.726 46.7661C164.126 46.5021 163.652 46.1421 163.304 45.6861C162.956 45.2181 162.764 44.6841 162.728 44.0841H164.42C164.468 44.5761 164.696 44.9781 165.104 45.2901C165.524 45.6021 166.07 45.7581 166.742 45.7581C167.366 45.7581 167.858 45.6201 168.218 45.3441C168.578 45.0681 168.758 44.7201 168.758 44.3001C168.758 43.8681 168.566 43.5501 168.182 43.3461C167.798 43.1301 167.204 42.9201 166.4 42.7161C165.668 42.5241 165.068 42.3321 164.6 42.1401C164.144 41.9361 163.748 41.6421 163.412 41.2581C163.088 40.8621 162.926 40.3461 162.926 39.7101C162.926 39.2061 163.076 38.7441 163.376 38.3241C163.676 37.9041 164.102 37.5741 164.654 37.3341C165.206 37.0821 165.836 36.9561 166.544 36.9561C167.636 36.9561 168.518 37.2321 169.19 37.7841C169.862 38.3361 170.222 39.0921 170.27 40.0521H168.632C168.596 39.5361 168.386 39.1221 168.002 38.8101C167.63 38.4981 167.126 38.3421 166.49 38.3421C165.902 38.3421 165.434 38.4681 165.086 38.7201C164.738 38.9721 164.564 39.3021 164.564 39.7101C164.564 40.0341 164.666 40.3041 164.87 40.5201C165.086 40.7241 165.35 40.8921 165.662 41.0241C165.986 41.1441 166.43 41.2821 166.994 41.4381C167.702 41.6301 168.278 41.8221 168.722 42.0141C169.166 42.1941 169.544 42.4701 169.856 42.8421C170.18 43.2141 170.348 43.7001 170.36 44.3001C170.36 44.8401 170.21 45.3261 169.91 45.7581C169.61 46.1901 169.184 46.5321 168.632 46.7841C168.092 47.0241 167.468 47.1441 166.76 47.1441ZM189.333 36.9381C190.101 36.9381 190.785 37.1001 191.385 37.4241C191.985 37.7361 192.459 38.2101 192.807 38.8461C193.155 39.4821 193.329 40.2561 193.329 41.1681V46.9821H191.709V41.4021C191.709 40.4181 191.463 39.6681 190.971 39.1521C190.491 38.6241 189.837 38.3601 189.009 38.3601C188.157 38.3601 187.479 38.6361 186.975 39.1881C186.471 39.7281 186.219 40.5141 186.219 41.5461V46.9821H184.599V41.4021C184.599 40.4181 184.353 39.6681 183.861 39.1521C183.381 38.6241 182.727 38.3601 181.899 38.3601C181.047 38.3601 180.369 38.6361 179.865 39.1881C179.361 39.7281 179.109 40.5141 179.109 41.5461V46.9821H177.471V37.1181H179.109V38.5401C179.433 38.0241 179.865 37.6281 180.405 37.3521C180.957 37.0761 181.563 36.9381 182.223 36.9381C183.051 36.9381 183.783 37.1241 184.419 37.4961C185.055 37.8681 185.529 38.4141 185.841 39.1341C186.117 38.4381 186.573 37.8981 187.209 37.5141C187.845 37.1301 188.553 36.9381 189.333 36.9381ZM195.404 42.0141C195.404 41.0061 195.608 40.1241 196.016 39.3681C196.424 38.6001 196.982 38.0061 197.69 37.5861C198.41 37.1661 199.208 36.9561 200.084 36.9561C200.948 36.9561 201.698 37.1421 202.334 37.5141C202.97 37.8861 203.444 38.3541 203.756 38.9181V37.1181H205.412V46.9821H203.756V45.1461C203.432 45.7221 202.946 46.2021 202.298 46.5861C201.662 46.9581 200.918 47.1441 200.066 47.1441C199.19 47.1441 198.398 46.9281 197.69 46.4961C196.982 46.0641 196.424 45.4581 196.016 44.6781C195.608 43.8981 195.404 43.0101 195.404 42.0141ZM203.756 42.0321C203.756 41.2881 203.606 40.6401 203.306 40.0881C203.006 39.5361 202.598 39.1161 202.082 38.8281C201.578 38.5281 201.02 38.3781 200.408 38.3781C199.796 38.3781 199.238 38.5221 198.734 38.8101C198.23 39.0981 197.828 39.5181 197.528 40.0701C197.228 40.6221 197.078 41.2701 197.078 42.0141C197.078 42.7701 197.228 43.4301 197.528 43.9941C197.828 44.5461 198.23 44.9721 198.734 45.2721C199.238 45.5601 199.796 45.7041 200.408 45.7041C201.02 45.7041 201.578 45.5601 202.082 45.2721C202.598 44.9721 203.006 44.5461 203.306 43.9941C203.606 43.4301 203.756 42.7761 203.756 42.0321ZM212.986 36.9381C214.186 36.9381 215.158 37.3041 215.902 38.0361C216.646 38.7561 217.018 39.8001 217.018 41.1681V46.9821H215.398V41.4021C215.398 40.4181 215.152 39.6681 214.66 39.1521C214.168 38.6241 213.496 38.3601 212.644 38.3601C211.78 38.3601 211.09 38.6301 210.574 39.1701C210.07 39.7101 209.818 40.4961 209.818 41.5281V46.9821H208.18V37.1181H209.818V38.5221C210.142 38.0181 210.58 37.6281 211.132 37.3521C211.696 37.0761 212.314 36.9381 212.986 36.9381ZM219.082 42.0141C219.082 41.0061 219.286 40.1241 219.694 39.3681C220.102 38.6001 220.66 38.0061 221.368 37.5861C222.088 37.1661 222.886 36.9561 223.762 36.9561C224.626 36.9561 225.376 37.1421 226.012 37.5141C226.648 37.8861 227.122 38.3541 227.434 38.9181V37.1181H229.09V46.9821H227.434V45.1461C227.11 45.7221 226.624 46.2021 225.976 46.5861C225.34 46.9581 224.596 47.1441 223.744 47.1441C222.868 47.1441 222.076 46.9281 221.368 46.4961C220.66 46.0641 220.102 45.4581 219.694 44.6781C219.286 43.8981 219.082 43.0101 219.082 42.0141ZM227.434 42.0321C227.434 41.2881 227.284 40.6401 226.984 40.0881C226.684 39.5361 226.276 39.1161 225.76 38.8281C225.256 38.5281 224.698 38.3781 224.086 38.3781C223.474 38.3781 222.916 38.5221 222.412 38.8101C221.908 39.0981 221.506 39.5181 221.206 40.0701C220.906 40.6221 220.756 41.2701 220.756 42.0141C220.756 42.7701 220.906 43.4301 221.206 43.9941C221.506 44.5461 221.908 44.9721 222.412 45.2721C222.916 45.5601 223.474 45.7041 224.086 45.7041C224.698 45.7041 225.256 45.5601 225.76 45.2721C226.276 44.9721 226.684 44.5461 226.984 43.9941C227.284 43.4301 227.434 42.7761 227.434 42.0321ZM235.926 36.9561C236.778 36.9561 237.522 37.1421 238.158 37.5141C238.806 37.8861 239.286 38.3541 239.598 38.9181V37.1181H241.254V47.1981C241.254 48.0981 241.062 48.8961 240.678 49.5921C240.294 50.3001 239.742 50.8521 239.022 51.2481C238.314 51.6441 237.486 51.8421 236.538 51.8421C235.242 51.8421 234.162 51.5361 233.298 50.9241C232.434 50.3121 231.924 49.4781 231.768 48.4221H233.388C233.568 49.0221 233.94 49.5021 234.504 49.8621C235.068 50.2341 235.746 50.4201 236.538 50.4201C237.438 50.4201 238.17 50.1381 238.734 49.5741C239.31 49.0101 239.598 48.2181 239.598 47.1981V45.1281C239.274 45.7041 238.794 46.1841 238.158 46.5681C237.522 46.9521 236.778 47.1441 235.926 47.1441C235.05 47.1441 234.252 46.9281 233.532 46.4961C232.824 46.0641 232.266 45.4581 231.858 44.6781C231.45 43.8981 231.246 43.0101 231.246 42.0141C231.246 41.0061 231.45 40.1241 231.858 39.3681C232.266 38.6001 232.824 38.0061 233.532 37.5861C234.252 37.1661 235.05 36.9561 235.926 36.9561ZM239.598 42.0321C239.598 41.2881 239.448 40.6401 239.148 40.0881C238.848 39.5361 238.44 39.1161 237.924 38.8281C237.42 38.5281 236.862 38.3781 236.25 38.3781C235.638 38.3781 235.08 38.5221 234.576 38.8101C234.072 39.0981 233.67 39.5181 233.37 40.0701C233.07 40.6221 232.92 41.2701 232.92 42.0141C232.92 42.7701 233.07 43.4301 233.37 43.9941C233.67 44.5461 234.072 44.9721 234.576 45.2721C235.08 45.5601 235.638 45.7041 236.25 45.7041C236.862 45.7041 237.42 45.5601 237.924 45.2721C238.44 44.9721 238.848 44.5461 239.148 43.9941C239.448 43.4301 239.598 42.7761 239.598 42.0321ZM253.022 41.6721C253.022 41.9841 253.004 42.3141 252.968 42.6621H245.084C245.144 43.6341 245.474 44.3961 246.074 44.9481C246.686 45.4881 247.424 45.7581 248.288 45.7581C248.996 45.7581 249.584 45.5961 250.052 45.2721C250.532 44.9361 250.868 44.4921 251.06 43.9401H252.824C252.56 44.8881 252.032 45.6621 251.24 46.2621C250.448 46.8501 249.464 47.1441 248.288 47.1441C247.352 47.1441 246.512 46.9341 245.768 46.5141C245.036 46.0941 244.46 45.5001 244.04 44.7321C243.62 43.9521 243.41 43.0521 243.41 42.0321C243.41 41.0121 243.614 40.1181 244.022 39.3501C244.43 38.5821 245 37.9941 245.732 37.5861C246.476 37.1661 247.328 36.9561 248.288 36.9561C249.224 36.9561 250.052 37.1601 250.772 37.5681C251.492 37.9761 252.044 38.5401 252.428 39.2601C252.824 39.9681 253.022 40.7721 253.022 41.6721ZM251.33 41.3301C251.33 40.7061 251.192 40.1721 250.916 39.7281C250.64 39.2721 250.262 38.9301 249.782 38.7021C249.314 38.4621 248.792 38.3421 248.216 38.3421C247.388 38.3421 246.68 38.6061 246.092 39.1341C245.516 39.6621 245.186 40.3941 245.102 41.3301H251.33ZM256.822 38.7201C257.11 38.1561 257.518 37.7181 258.046 37.4061C258.586 37.0941 259.24 36.9381 260.008 36.9381V38.6301H259.576C257.74 38.6301 256.822 39.6261 256.822 41.6181V46.9821H255.184V37.1181H256.822V38.7201Z" fill="#2848B9" />
    <path opacity="0.52" d="M60.4951 118.982H637.495" stroke="#BDD0FB" />
    <path opacity="0.52" d="M60.4951 207.982H637.495" stroke="#BDD0FB" />
</svg>
