<svg width="48" height="48" viewBox="0 0 48 48" fill="none" xmlns="http://www.w3.org/2000/svg">
    <path d="M43.7683 35.2537C43.8824 35.3181 44.0111 35.3521 44.1421 35.3522C44.2812 35.3525 44.4178 35.3146 44.537 35.2427C44.6562 35.1708 44.7534 35.0677 44.8181 34.9445L44.8184 34.9439C46.4318 31.8231 47.3242 28.38 47.4298 24.8684C47.5353 21.3568 46.8513 17.8663 45.4282 14.6542L45.4281 14.6539C45.3456 14.4694 45.1932 14.3252 45.0044 14.253C44.8156 14.1808 44.6058 14.1866 44.4212 14.2691C44.2367 14.3515 44.0925 14.5039 44.0203 14.6927C43.9481 14.8816 43.9539 15.0913 44.0364 15.2759L44.1276 15.2351L44.0362 15.2756C45.3661 18.2774 46.0053 21.5395 45.9069 24.8212C45.8084 28.103 44.9748 31.3208 43.4674 34.2375C43.4069 34.3535 43.3772 34.4831 43.3813 34.6139C43.3854 34.7449 43.4232 34.8725 43.491 34.9846C43.5588 35.0966 43.6543 35.1893 43.7683 35.2537Z" fill="#E54799" stroke="#E54799" strokeWidth="0.2" />
    <path d="M34.6893 44.7463L34.6895 44.8463C34.8122 44.8461 34.933 44.8163 35.0416 44.7594L35.0417 44.7594C35.6553 44.4376 36.2441 44.0957 36.7866 43.7428L36.7867 43.7428C36.9561 43.6326 37.0749 43.4595 37.1168 43.2617C37.1586 43.0639 37.1202 42.8575 37.01 42.688C36.8997 42.5186 36.7266 42.3998 36.5288 42.3579C36.331 42.3161 36.1247 42.3545 35.9552 42.4647L35.955 42.4649C35.4561 42.7913 34.9087 43.1088 34.3357 43.4088L34.6893 44.7463ZM34.6893 44.7463L34.6894 44.8463C34.5189 44.8463 34.3533 44.7892 34.2191 44.684C34.0849 44.5789 33.9898 44.4318 33.949 44.2662C33.9083 44.1006 33.9243 43.9262 33.9944 43.7708C34.0645 43.6153 34.1847 43.4879 34.3357 43.4088L34.6893 44.7463Z" fill="#E54799" stroke="#E54799" strokeWidth="0.2" />
    <path d="M7.71989 40.6311L7.7199 40.6311C7.58107 40.4874 7.50425 40.2948 7.50599 40.095C7.50772 39.8952 7.58788 39.704 7.72919 39.5627C7.8705 39.4214 8.06166 39.3412 8.2615 39.3395C8.46133 39.3377 8.65386 39.4146 8.7976 39.5534L8.79879 39.5545L8.79878 39.5546C11.5324 42.2832 14.9423 44.236 18.6791 45.2128C22.4159 46.1897 26.3452 46.1555 30.0645 45.1137C30.0645 45.1137 30.0645 45.1137 30.0645 45.1137L30.0915 45.21C30.2606 45.1626 30.4416 45.1843 30.5947 45.2704C30.7478 45.3564 30.8605 45.4998 30.9079 45.6689C30.9553 45.838 30.9336 46.019 30.8476 46.1721C30.7615 46.3253 30.6182 46.4379 30.449 46.4853L7.71989 40.6311ZM7.71989 40.6311L7.72118 40.6324C12.0924 44.9971 18.0177 47.4479 24.1949 47.4461L7.71989 40.6311Z" fill="#E54799" stroke="#E54799" strokeWidth="0.2" />
    <path d="M39.5047 39.604L39.5045 39.6042C39.3837 39.7043 39.2968 39.8391 39.2555 39.9904C39.2142 40.1417 39.2206 40.302 39.2738 40.4495C39.3269 40.597 39.4243 40.7246 39.5526 40.8147C39.6809 40.9049 39.8339 40.9532 39.9907 40.9532L39.9907 40.8532L39.9908 40.9532C40.1687 40.9532 40.341 40.8909 40.4778 40.7772L40.4779 40.7771C40.5333 40.7309 40.5863 40.6819 40.6367 40.6301C41.0939 40.1736 41.5299 39.6957 41.9341 39.2091C42.0009 39.1328 42.0518 39.0439 42.0839 38.9476C42.116 38.8509 42.1285 38.7487 42.1205 38.6471C42.1124 38.5455 42.0841 38.4465 42.0372 38.356C41.9902 38.2656 41.9256 38.1854 41.8471 38.1204C41.7686 38.0553 41.6779 38.0066 41.5803 37.9773C41.4827 37.9479 41.3802 37.9384 41.2789 37.9493C41.1775 37.9603 41.0794 37.9914 40.9903 38.041C40.9017 38.0902 40.8238 38.1567 40.7612 38.2364C40.3867 38.6852 39.9818 39.1283 39.5578 39.5529C39.5528 39.5579 39.5484 39.5624 39.5442 39.5667C39.5295 39.5815 39.5184 39.5927 39.5047 39.604Z" fill="#E54799" stroke="#E54799" strokeWidth="0.2" />
    <path d="M3.05095 33.9531L3.14149 33.9112L3.05096 33.9531C3.11208 34.0852 3.20972 34.197 3.33236 34.2753C3.42669 34.3356 3.53278 34.3741 3.64296 34.3886V34.3965L3.74301 34.3965C3.87094 34.3964 3.9968 34.3642 4.10898 34.3027C4.22116 34.2412 4.31606 34.1524 4.38493 34.0446C4.45379 33.9368 4.49441 33.8134 4.50304 33.6857C4.51166 33.5581 4.48802 33.4303 4.4343 33.3142C2.28945 28.6776 1.84473 23.434 3.17808 18.5024C4.51142 13.5708 7.53778 9.26565 11.7268 6.34147C15.9158 3.4173 21.0003 2.06059 26.0893 2.5091C31.1783 2.95761 35.9471 5.18272 39.5601 8.7945C39.6309 8.8653 39.715 8.92147 39.8075 8.95979C39.9 8.99811 39.9992 9.01783 40.0993 9.01783C40.1994 9.01783 40.2986 8.99811 40.3911 8.95979C40.4836 8.92147 40.5677 8.8653 40.6385 8.7945C40.7093 8.72369 40.7655 8.63963 40.8038 8.54711C40.8421 8.4546 40.8618 8.35544 40.8618 8.2553C40.8618 8.15517 40.8421 8.05601 40.8038 7.9635C40.7655 7.87098 40.7093 7.78692 40.6385 7.71611L40.5678 7.78683L40.6385 7.7161C36.7724 3.85115 31.6695 1.47002 26.2239 0.989968C20.7784 0.509917 15.3376 1.96157 10.855 5.09055C6.37237 8.21952 3.13388 12.8262 1.707 18.1034C0.280131 23.3805 0.755905 28.9915 3.05095 33.9531Z" fill="#E54799" stroke="#E54799" strokeWidth="0.2" />
    <path d="M41.2404 10.0557H36.3C36.1244 10.0557 35.9559 9.98594 35.8318 9.86176C35.7076 9.73758 35.6378 9.56915 35.6378 9.39354C35.6378 9.21792 35.7076 9.0495 35.8318 8.92532C35.9559 8.80114 36.1244 8.73137 36.3 8.73137H40.5782V4.45513C40.5782 4.27951 40.648 4.11109 40.7721 3.98691C40.8963 3.86273 41.0647 3.79297 41.2404 3.79297C41.416 3.79297 41.5844 3.86273 41.7086 3.98691C41.8328 4.11109 41.9025 4.27951 41.9025 4.45513V9.39552C41.902 9.5708 41.832 9.73871 41.7079 9.86246C41.5838 9.98621 41.4156 10.0557 41.2404 10.0557Z" fill="#E54799" />
    <path d="M7.11944 44.5557C6.94382 44.5557 6.7754 44.4859 6.65122 44.3617C6.52704 44.2376 6.45728 44.0691 6.45728 43.8935V38.9551C6.45728 38.7795 6.52704 38.6111 6.65122 38.4869C6.7754 38.3627 6.94382 38.293 7.11944 38.293H12.0598C12.2354 38.293 12.4039 38.3627 12.5281 38.4869C12.6522 38.6111 12.722 38.7795 12.722 38.9551C12.722 39.1307 12.6522 39.2992 12.5281 39.4233C12.4039 39.5475 12.2354 39.6173 12.0598 39.6173H7.7816V43.8935C7.7816 44.0691 7.71184 44.2376 7.58766 44.3617C7.46348 44.4859 7.29505 44.5557 7.11944 44.5557Z" fill="#E54799" />
    <path d="M38.8481 24.1732V24.173C38.8481 21.2721 37.9879 18.4362 36.3762 16.0242C34.7645 13.6121 32.4737 11.7321 29.7936 10.622C27.1134 9.51182 24.1643 9.22136 21.319 9.78731C18.4738 10.3533 15.8603 11.7502 13.809 13.8015C11.7577 15.8528 10.3608 18.4663 9.79482 21.3115C9.22886 24.1568 9.51933 27.1059 10.6295 29.7861C11.7396 32.4662 13.6196 34.757 16.0317 36.3687C18.4438 37.9804 21.2796 38.8406 24.1806 38.8406V38.7406L24.1807 38.8406C28.0694 38.8362 31.7975 37.2895 34.5473 34.5397C37.297 31.79 38.8437 28.0619 38.8481 24.1732ZM16.8786 13.2448C19.0399 11.8007 21.581 11.0298 24.1804 11.0298C27.665 11.0338 31.0058 12.4198 33.4698 14.8838C35.9338 17.3478 37.3198 20.6886 37.3238 24.1732C37.3238 26.7726 36.5529 29.3137 35.1088 31.475C33.6646 33.6364 31.6119 35.321 29.2103 36.3158C26.8086 37.3106 24.166 37.5709 21.6164 37.0637C19.0669 36.5566 16.725 35.3048 14.8869 33.4667C13.0488 31.6286 11.797 29.2867 11.2899 26.7372C10.7827 24.1876 11.043 21.545 12.0378 19.1433C13.0326 16.7417 14.7172 14.689 16.8786 13.2448Z" fill="#7D97F4" stroke="#7D97F4" strokeWidth="0.2" />
    <path d="M21.778 24.2069C22.4887 24.6817 23.3241 24.9351 24.1788 24.9351C24.3809 24.9351 24.5748 24.8549 24.7177 24.7119C24.8607 24.569 24.941 24.3751 24.941 24.173C24.941 23.9708 24.8607 23.777 24.7177 23.6341C24.5748 23.4911 24.3809 23.4108 24.1788 23.4108C23.6256 23.4108 23.0849 23.2468 22.6249 22.9395C22.1649 22.6321 21.8064 22.1953 21.5948 21.6842C21.3831 21.1731 21.3277 20.6108 21.4356 20.0682C21.5435 19.5256 21.8099 19.0273 22.2011 18.6361C22.5922 18.245 23.0906 17.9786 23.6331 17.8706C24.1757 17.7627 24.7381 17.8181 25.2492 18.0298C25.7602 18.2415 26.1971 18.6 26.5044 19.06C26.8117 19.5199 26.9758 20.0607 26.9758 20.6139C26.9758 20.816 27.0561 21.0099 27.199 21.1528C27.3419 21.2957 27.5358 21.376 27.7379 21.376C27.9401 21.376 28.1339 21.2957 28.2769 21.1528C28.4198 21.0099 28.5001 20.816 28.5001 20.6139C28.5001 19.7592 28.2466 18.9237 27.7718 18.2131C27.297 17.5025 26.6221 16.9486 25.8325 16.6215C25.0429 16.2945 24.174 16.2089 23.3358 16.3756C22.4975 16.5424 21.7275 16.9539 21.1232 17.5583C20.5189 18.1626 20.1073 18.9326 19.9406 19.7708C19.7738 20.6091 19.8594 21.4779 20.1865 22.2675C20.5135 23.0572 21.0674 23.7321 21.778 24.2069Z" fill="#7D97F4" stroke="#7D97F4" strokeWidth="0.2" />
    <path d="M24.1787 32.0543H24.1788C25.3249 32.0543 26.424 31.599 27.2344 30.7886C28.0448 29.9782 28.5001 28.8791 28.5001 27.733C28.5001 26.5869 28.0448 25.4878 27.2344 24.6774C26.424 23.867 25.3249 23.4117 24.1788 23.4117C23.9767 23.4117 23.7828 23.492 23.6399 23.635C23.4969 23.7779 23.4166 23.9717 23.4166 24.1739C23.4166 24.376 23.4969 24.5699 23.6399 24.7128C23.7828 24.8557 23.9767 24.936 24.1788 24.936C24.732 24.936 25.2728 25.1001 25.7327 25.4074C26.1927 25.7147 26.5512 26.1516 26.7629 26.6627C26.9746 27.1737 27.0299 27.7361 26.922 28.2787C26.8141 28.8212 26.5477 29.3196 26.1566 29.7108C25.7654 30.1019 25.267 30.3683 24.7245 30.4762C24.1819 30.5841 23.6195 30.5287 23.1085 30.3171C22.5974 30.1054 22.1605 29.7469 21.8532 29.2869C21.5459 28.827 21.3818 28.2862 21.3818 27.733C21.3818 27.5309 21.3015 27.337 21.1586 27.1941C21.0157 27.0511 20.8218 26.9708 20.6197 26.9708C20.4175 26.9708 20.2237 27.0511 20.0808 27.1941C19.9378 27.337 19.8575 27.5309 19.8575 27.733L19.8575 27.7331C19.8588 28.8788 20.3144 29.9772 21.1245 30.7873C21.9347 31.5974 23.033 32.053 24.1787 32.0543Z" fill="#7D97F4" stroke="#7D97F4" strokeWidth="0.2" />
    <path d="M23.6393 33.3216C23.7823 33.4645 23.9761 33.5448 24.1783 33.5448C24.3804 33.5448 24.5743 33.4645 24.7172 33.3216C24.8601 33.1787 24.9404 32.9848 24.9404 32.7827V15.5665C24.9404 15.3643 24.8601 15.1705 24.7172 15.0275C24.5743 14.8846 24.3804 14.8043 24.1783 14.8043C23.9761 14.8043 23.7823 14.8846 23.6393 15.0275C23.4964 15.1705 23.4161 15.3643 23.4161 15.5665V32.7827C23.4161 32.9848 23.4964 33.1787 23.6393 33.3216Z" fill="#7D97F4" stroke="#7D97F4" strokeWidth="0.2" />
</svg>
