<svg width="49" height="49" viewBox="0 0 49 49" fill="none" xmlns="http://www.w3.org/2000/svg">
    <g clip-path="url(#clip0_48_147)">
        <path d="M8.16711 31.8508C8.16618 33.6143 9.56508 35.0602 11.3276 35.1175C10.5028 36.1501 9.79862 37.2734 9.22878 38.4658C8.86398 39.2245 8.91426 40.1174 9.36192 40.8303C9.80959 41.5433 10.5919 41.9765 11.4338 41.9775C12.5853 41.9775 13.7286 40.9567 18.2203 40.8587C18.5119 41.3441 19.0342 41.6439 19.6004 41.6508H20.5069C20.4524 41.9198 20.4224 42.1931 20.4171 42.4675C20.4171 44.4683 23.2999 48.0127 23.8716 48.7068C24.0268 48.8941 24.2573 49.0024 24.5004 49.0024C24.7436 49.0024 24.9741 48.8941 25.1293 48.7068C25.7009 48.0127 28.5838 44.4683 28.5838 42.4675C28.5785 42.1931 28.5485 41.9198 28.4939 41.6508H29.4004C29.9775 41.6444 30.5084 41.334 30.7969 40.8342C35.1253 40.9322 36.5136 41.953 37.5834 41.953C38.4224 41.9464 39.1996 41.511 39.6433 40.799C40.0871 40.087 40.1357 39.1974 39.7721 38.4413C39.2022 37.2566 38.498 36.1413 37.6733 35.1175C39.4358 35.0602 40.8347 33.6143 40.8338 31.8508V15.5175C40.8338 13.7134 39.3712 12.2508 37.5671 12.2508H30.2171V9.80083C30.2171 5.43166 25.3171 0.449996 25.0803 0.237662C24.9269 0.083057 24.7182 -0.00390625 24.5004 -0.00390625C24.2827 -0.00390625 24.074 0.083057 23.9206 0.237662C23.6838 0.449996 18.7838 5.43166 18.7838 9.80083V12.2508H11.4338C9.62965 12.2508 8.16711 13.7134 8.16711 15.5175V31.8508ZM9.80045 31.8508C9.80045 13.9332 9.75145 15.3378 9.92295 14.9132L20.4171 23.6842L9.92295 32.4552C9.841 32.2643 9.7993 32.0586 9.80045 31.8508ZM39.0779 14.9132C39.2494 15.3378 39.2004 13.9413 39.2004 31.8508C39.2016 32.0586 39.1599 32.2643 39.0779 32.4552L28.5838 23.6842L39.0779 14.9132ZM27.3098 24.7132L37.7386 33.4842C37.5263 33.4842 11.6053 33.4842 11.2623 33.4842L21.6911 24.7458L22.4588 25.391C23.6347 26.3951 25.3662 26.3951 26.5421 25.391L27.3098 24.7132ZM11.7033 40.2298C11.388 40.34 11.0375 40.2472 10.8181 39.9955C10.5987 39.7437 10.5547 39.3837 10.7069 39.0865C11.4307 37.6392 12.3575 36.3027 13.4591 35.1175H17.9671V39.2008C15.8363 39.2516 13.7251 39.6204 11.7033 40.2952V40.2298ZM26.9504 42.4675C26.9504 43.3413 25.6683 45.3503 24.5004 46.8775C23.3326 45.3503 22.0504 43.3495 22.0504 42.4675C22.055 42.1876 22.1103 41.9109 22.2138 41.6508H26.7871C26.8906 41.9109 26.9459 42.1876 26.9504 42.4675ZM19.6004 40.0175V35.1175H29.4004V40.0175H19.6004ZM38.1714 40.0747C37.3548 40.8913 36.6769 39.405 31.0338 39.258V35.1175H35.5418C36.6486 36.3228 37.5756 37.6816 38.2939 39.1518C38.4496 39.4549 38.4008 39.8227 38.1714 40.0747ZM24.5004 2.018C25.6254 3.26672 26.6087 4.63618 27.4323 6.10133C26.6764 6.91862 25.6137 7.3833 24.5004 7.3833C23.3872 7.3833 22.3245 6.91862 21.5686 6.10133C22.3937 4.63714 23.3768 3.26785 24.5004 2.018ZM20.8418 7.6775C22.9671 9.4612 26.0664 9.4612 28.1918 7.6775C28.6981 9.16383 28.5838 9.80083 28.5838 12.2508H20.4171C20.4171 9.67016 20.3109 9.1475 20.8418 7.6775ZM37.7386 13.8842L25.4886 24.117C24.9146 24.6066 24.07 24.6066 23.4959 24.117L11.2623 13.8842H37.7386Z" fill="#E54799" />
        <path d="M5.71511 26.9505C6.16614 26.9505 6.53177 26.5849 6.53177 26.1339V23.6839C6.53177 23.2328 6.16614 22.8672 5.71511 22.8672C5.26407 22.8672 4.89844 23.2328 4.89844 23.6839V26.1339C4.89844 26.5849 5.26407 26.9505 5.71511 26.9505Z" fill="#7D97F4" />
        <path d="M4.89844 40.019C4.89844 40.47 5.26407 40.8357 5.71511 40.8357C6.16614 40.8357 6.53177 40.47 6.53177 40.019V30.219C6.53177 29.768 6.16614 29.4023 5.71511 29.4023C5.26407 29.4023 4.89844 29.768 4.89844 30.219V40.019Z" fill="#7D97F4" />
        <path d="M3.26615 25.3167C3.26615 24.8656 2.90051 24.5 2.44948 24.5C1.99845 24.5 1.63281 24.8656 1.63281 25.3167V35.1167C1.63281 35.5677 1.99845 35.9333 2.44948 35.9333C2.90051 35.9333 3.26615 35.5677 3.26615 35.1167V25.3167Z" fill="#7D97F4" />
        <path d="M2.44948 38.3828C1.99845 38.3828 1.63281 38.7484 1.63281 39.1995V44.0995C1.63281 44.5505 1.99845 44.9161 2.44948 44.9161C2.90051 44.9161 3.26615 44.5505 3.26615 44.0995V39.1995C3.26615 38.7484 2.90051 38.3828 2.44948 38.3828Z" fill="#7D97F4" />
        <path d="M43.2854 26.9505C43.7364 26.9505 44.1021 26.5849 44.1021 26.1339V23.6839C44.1021 23.2328 43.7364 22.8672 43.2854 22.8672C42.8344 22.8672 42.4688 23.2328 42.4688 23.6839V26.1339C42.4688 26.5849 42.8344 26.9505 43.2854 26.9505Z" fill="#7D97F4" />
        <path d="M42.4688 40.019C42.4688 40.47 42.8344 40.8357 43.2854 40.8357C43.7364 40.8357 44.1021 40.47 44.1021 40.019V30.219C44.1021 29.768 43.7364 29.4023 43.2854 29.4023C42.8344 29.4023 42.4688 29.768 42.4688 30.219V40.019Z" fill="#7D97F4" />
        <path d="M47.3673 25.3167C47.3673 24.8656 47.0016 24.5 46.5506 24.5C46.0996 24.5 45.7339 24.8656 45.7339 25.3167V35.1167C45.7339 35.5677 46.0996 35.9333 46.5506 35.9333C47.0016 35.9333 47.3673 35.5677 47.3673 35.1167V25.3167Z" fill="#7D97F4" />
        <path d="M46.5506 38.3848C46.0996 38.3848 45.7339 38.7504 45.7339 39.2014V44.1014C45.7339 44.5525 46.0996 44.9181 46.5506 44.9181C47.0016 44.9181 47.3673 44.5525 47.3673 44.1014V39.2014C47.3673 38.7504 47.0016 38.3848 46.5506 38.3848Z" fill="#7D97F4" />
        <path d="M1.05407 3.84763C1.20741 4.00223 1.41615 4.0892 1.6339 4.0892C1.85166 4.0892 2.06039 4.00223 2.21374 3.84763L2.45057 3.60263L2.6874 3.84763C3.00764 4.16786 3.52684 4.16786 3.84707 3.84763C4.1673 3.5274 4.1673 3.00819 3.84707 2.68796L3.60207 2.45113L3.84707 2.21429C4.1673 1.89406 4.1673 1.37486 3.84707 1.05463C3.52684 0.734395 3.00764 0.734395 2.6874 1.05463L2.45057 1.29963L2.21374 1.05463C1.8935 0.734395 1.3743 0.734395 1.05407 1.05463C0.733835 1.37486 0.733836 1.89406 1.05407 2.21429L1.29907 2.45113L1.05407 2.68796C0.899463 2.8413 0.8125 3.05004 0.8125 3.2678C0.8125 3.48555 0.899463 3.69429 1.05407 3.84763Z" fill="#7D97F4" />
        <path d="M9.22204 9.56443C9.37538 9.71903 9.58412 9.806 9.80187 9.806C10.0196 9.806 10.2284 9.71903 10.3817 9.56443L10.6185 9.31943L10.8554 9.56443C11.1756 9.88466 11.6948 9.88466 12.015 9.56443C12.3353 9.24419 12.3353 8.72499 12.015 8.40476L11.77 8.16793L12.015 7.93109C12.3353 7.61086 12.3353 7.09166 12.015 6.77143C11.6948 6.45119 11.1756 6.45119 10.8554 6.77143L10.6185 7.01643L10.3817 6.77143C10.0615 6.45119 9.54227 6.45119 9.22204 6.77143C8.9018 7.09166 8.9018 7.61086 9.22204 7.93109L9.46704 8.16793L9.22204 8.40476C9.06743 8.5581 8.98047 8.76684 8.98047 8.98459C8.98047 9.20235 9.06743 9.41108 9.22204 9.56443V9.56443Z" fill="#7D97F4" />
        <path d="M45.1517 3.84569C45.3051 4.0003 45.5138 4.08726 45.7316 4.08726C45.9493 4.08726 46.1581 4.0003 46.3114 3.84569L46.5482 3.60069L46.7851 3.84569C47.1053 4.16593 47.6245 4.16593 47.9447 3.84569C48.265 3.52546 48.265 3.00626 47.9447 2.68603L47.6997 2.44919L47.9447 2.21236C48.1519 2.00521 48.2328 1.70327 48.157 1.42029C48.0811 1.13731 47.8601 0.916284 47.5771 0.84046C47.2942 0.764636 46.9922 0.845539 46.7851 1.05269L46.5482 1.29769L46.3114 1.05269C45.9912 0.73246 45.472 0.73246 45.1517 1.05269C44.8315 1.37293 44.8315 1.89213 45.1517 2.21236L45.3967 2.44919L45.1517 2.68603C44.9971 2.83937 44.9102 3.04811 44.9102 3.26586C44.9102 3.48361 44.9971 3.69235 45.1517 3.84569Z" fill="#7D97F4" />
        <path d="M36.9886 9.56443C37.142 9.71903 37.3507 9.806 37.5685 9.806C37.7862 9.806 37.995 9.71903 38.1483 9.56443L38.3851 9.31943L38.622 9.56443C38.9422 9.88466 39.4614 9.88466 39.7816 9.56443C40.1019 9.24419 40.1019 8.72499 39.7816 8.40476L39.5366 8.16793L39.7816 7.93109C40.1019 7.61086 40.1019 7.09166 39.7816 6.77143C39.4614 6.45119 38.9422 6.45119 38.622 6.77143L38.3851 7.01643L38.1483 6.77143C37.8281 6.45119 37.3089 6.45119 36.9886 6.77143C36.6684 7.09166 36.6684 7.61086 36.9886 7.93109L37.2336 8.16793L36.9886 8.40476C36.834 8.5581 36.7471 8.76684 36.7471 8.98459C36.7471 9.20235 36.834 9.41108 36.9886 9.56443Z" fill="#7D97F4" />
    </g>
    <defs>
        <clipPath id="clip0_48_147">
            <rect width="49" height="49" fill="white" />
        </clipPath>
    </defs>
</svg>
