<svg width="52" height="51" viewBox="0 0 52 51" fill="none" xmlns="http://www.w3.org/2000/svg">
<path opacity="0.4" d="M26.0012 50.268C39.8823 50.268 51.1352 39.0151 51.1352 25.134C51.1352 11.2529 39.8823 0 26.0012 0C12.1201 0 0.867188 11.2529 0.867188 25.134C0.867188 39.0151 12.1201 50.268 26.0012 50.268Z" fill="#74777F"/>
<path d="M30.6516 15.8408H28.2406C27.6357 15.8064 27.0305 15.9022 26.4659 16.1217C25.9012 16.3412 25.3902 16.6792 24.9674 17.1131C24.5445 17.5469 24.2197 18.0664 24.0148 18.6365C23.8099 19.2066 23.7297 19.8141 23.7796 20.4178V22.5278H21.3556C21.2551 22.5278 21.1586 22.5677 21.0876 22.6388C21.0165 22.7099 20.9766 22.8063 20.9766 22.9068V25.9638C20.9766 26.0136 20.9864 26.0629 21.0054 26.1089C21.0245 26.1548 21.0524 26.1966 21.0876 26.2318C21.1228 26.267 21.1645 26.2949 21.2105 26.314C21.2565 26.333 21.3058 26.3428 21.3556 26.3428H23.7796V34.0578C23.7796 34.1077 23.7894 34.157 23.8085 34.2031C23.8276 34.2491 23.8556 34.291 23.8909 34.3262C23.9262 34.3614 23.9681 34.3893 24.0142 34.4082C24.0603 34.4272 24.1097 34.4369 24.1596 34.4368H27.3226C27.4231 34.4368 27.5195 34.3969 27.5906 34.3258C27.6616 34.2547 27.7016 34.1583 27.7016 34.0578V26.3398H30.5366C30.5864 26.3399 30.6358 26.3302 30.6819 26.3113C30.728 26.2923 30.7699 26.2644 30.8052 26.2292C30.8405 26.194 30.8685 26.1521 30.8876 26.1061C30.9067 26.06 30.9166 26.0107 30.9166 25.9608V22.9008C30.9166 22.851 30.9067 22.8016 30.8876 22.7555C30.8685 22.7095 30.8405 22.6677 30.8052 22.6325C30.7699 22.5973 30.728 22.5694 30.6819 22.5504C30.6358 22.5314 30.5864 22.5217 30.5366 22.5218H27.7006V20.7348C27.7006 19.8748 27.9056 19.4348 29.0256 19.4348H30.6506C30.7003 19.4348 30.7496 19.425 30.7956 19.406C30.8416 19.3869 30.8834 19.359 30.9186 19.3238C30.9537 19.2886 30.9817 19.2468 31.0007 19.2008C31.0198 19.1549 31.0296 19.1056 31.0296 19.0558V16.2198C31.0293 16.1195 30.9894 16.0235 30.9186 15.9525C30.8478 15.8815 30.7518 15.8413 30.6516 15.8408V15.8408Z" fill="white"/>
</svg>
