<svg width="51" height="51" viewBox="0 0 51 51" fill="none" xmlns="http://www.w3.org/2000/svg">
    <path opacity="0.4" d="M25.134 50.268C39.0151 50.268 50.268 39.0151 50.268 25.134C50.268 11.2529 39.0151 0 25.134 0C11.2529 0 0 11.2529 0 25.134C0 39.0151 11.2529 50.268 25.134 50.268Z" fill="#74777F" />
    <path d="M34.4238 21.2878C34.4087 20.5137 34.262 19.7477 33.9898 19.0228C33.7494 18.4025 33.3823 17.8391 32.9119 17.3687C32.4415 16.8983 31.8781 16.5312 31.2578 16.2908C30.5328 16.0191 29.7669 15.8723 28.9928 15.8568C27.9928 15.8098 27.6758 15.7988 25.1398 15.7988C22.6038 15.7988 22.2868 15.8098 21.2908 15.8538C20.5166 15.8691 19.7507 16.0158 19.0258 16.2878C18.4053 16.5281 17.8417 16.8951 17.3711 17.3655C16.9005 17.836 16.5332 18.3994 16.2928 19.0198C16.021 19.7448 15.8742 20.5107 15.8588 21.2848C15.8118 22.2848 15.8008 22.6018 15.8008 25.1368C15.8008 27.6718 15.8118 27.9888 15.8558 28.9848C15.8709 29.759 16.0177 30.5249 16.2898 31.2498C16.5301 31.8702 16.8972 32.4335 17.3677 32.904C17.8381 33.3744 18.4014 33.7415 19.0218 33.9818C19.7471 34.2536 20.5133 34.4004 21.2878 34.4158C22.2878 34.4598 22.6008 34.4708 25.1368 34.4708C27.6728 34.4708 27.9898 34.4598 28.9858 34.4158C29.7599 34.4007 30.5259 34.2539 31.2508 33.9818C31.8715 33.742 32.4353 33.3751 32.9059 32.9046C33.3766 32.4341 33.7437 31.8705 33.9838 31.2498C34.2555 30.5248 34.4023 29.7589 34.4178 28.9848C34.4618 27.9848 34.4728 27.6718 34.4728 25.1368C34.4728 22.6018 34.4668 22.2838 34.4238 21.2878ZM32.7418 28.9108C32.7358 29.5027 32.6272 30.0891 32.4208 30.6438C32.265 31.0465 32.0269 31.4123 31.7215 31.7176C31.4162 32.0229 31.0505 32.2611 30.6478 32.4168C30.0929 32.6228 29.5066 32.7314 28.9148 32.7378C27.9298 32.7818 27.6348 32.7928 25.1428 32.7928C22.6508 32.7928 22.3518 32.7818 21.3708 32.7378C20.7789 32.7318 20.1925 32.6232 19.6378 32.4168C19.2355 32.2622 18.8702 32.0248 18.5655 31.7201C18.2608 31.4154 18.0234 31.0501 17.8688 30.6478C17.6627 30.093 17.5541 29.5067 17.5478 28.9148C17.5038 27.9298 17.4928 27.6348 17.4928 25.1428C17.4928 22.6508 17.5038 22.3528 17.5478 21.3718C17.5537 20.7799 17.6623 20.1936 17.8688 19.6388C18.0174 19.2328 18.2568 18.8662 18.5688 18.5668C18.8698 18.2564 19.2364 18.0173 19.6418 17.8668C20.1967 17.6608 20.7829 17.5523 21.3748 17.5458C22.3598 17.5018 22.6548 17.4908 25.1468 17.4908C27.6388 17.4908 27.9378 17.5018 28.9188 17.5458C29.5107 17.5518 30.097 17.6604 30.6518 17.8668C31.0576 18.0164 31.4244 18.2557 31.7248 18.5668C32.0351 18.8675 32.2742 19.2338 32.4248 19.6388C32.6308 20.1937 32.7394 20.78 32.7458 21.3718C32.7898 22.3568 32.8008 22.6518 32.8008 25.1428C32.8008 27.6338 32.7848 27.9268 32.7418 28.9108Z" fill="white" />
    <path d="M25.134 21.5449C24.4237 21.5449 23.7295 21.7555 23.1389 22.1501C22.5484 22.5447 22.0881 23.1055 21.8163 23.7617C21.5445 24.4179 21.4734 25.1399 21.612 25.8365C21.7505 26.5331 22.0925 27.1729 22.5947 27.6751C23.097 28.1774 23.7368 28.5194 24.4334 28.6579C25.13 28.7965 25.852 28.7254 26.5082 28.4536C27.1644 28.1818 27.7252 27.7215 28.1198 27.131C28.5144 26.5404 28.725 25.8462 28.725 25.1359C28.7247 24.1836 28.3463 23.2704 27.6729 22.597C26.9995 21.9236 26.0863 21.5452 25.134 21.5449V21.5449ZM25.134 27.4649C24.6733 27.4649 24.223 27.3283 23.84 27.0724C23.457 26.8165 23.1585 26.4528 22.9823 26.0272C22.806 25.6016 22.7599 25.1333 22.8497 24.6816C22.9396 24.2298 23.1614 23.8148 23.4871 23.4891C23.8128 23.1634 24.2278 22.9415 24.6796 22.8517C25.1314 22.7618 25.5997 22.8079 26.0252 22.9842C26.4508 23.1605 26.8145 23.459 27.0705 23.842C27.3264 24.225 27.463 24.6753 27.463 25.1359C27.463 25.7536 27.2176 26.346 26.7808 26.7828C26.3441 27.2195 25.7517 27.4649 25.134 27.4649V27.4649Z" fill="white" />
    <path d="M31.6005 20.1079C31.6005 20.3919 31.5163 20.6695 31.3585 20.9057C31.2007 21.1418 30.9764 21.3259 30.714 21.4346C30.4517 21.5433 30.1629 21.5717 29.8844 21.5163C29.6058 21.4609 29.3499 21.3241 29.1491 21.1233C28.9483 20.9225 28.8115 20.6666 28.7561 20.388C28.7007 20.1095 28.7291 19.8207 28.8378 19.5583C28.9465 19.2959 29.1306 19.0717 29.3667 18.9139C29.6029 18.7561 29.8805 18.6719 30.1645 18.6719C30.5454 18.6719 30.9106 18.8232 31.1799 19.0925C31.4492 19.3618 31.6005 19.727 31.6005 20.1079Z" fill="white" />
</svg>
