<svg width="233" height="222" viewBox="0 0 233 222" fill="none" xmlns="http://www.w3.org/2000/svg">
    <path d="M229.326 106.763L202.846 82.912L210.751 76.4474C214.29 73.5379 217.285 70.0241 219.599 66.069C228.344 50.9075 225.799 32.2933 213.266 19.7507C200.733 7.20814 182.133 4.66154 166.984 13.4134C163.033 15.7293 159.522 18.7271 156.615 22.2679L150.154 30.1797L126.322 3.67877L126.043 3.38413C123.872 1.21704 120.931 0 117.866 0C114.8 0 111.859 1.21704 109.688 3.38413L78.0793 35.0203L78.6527 46.4489L94.6056 59.4959C96.7361 61.2378 98.5431 63.3417 99.944 65.7112C105.151 74.7394 103.592 85.8681 96.0622 93.4032C88.5329 100.938 77.4148 102.499 68.3917 97.289C66.0223 95.8861 63.9182 94.0764 62.1759 91.9431L49.1434 75.9816L37.7237 75.4082L3.38732 109.771C2.31341 110.846 1.46154 112.122 0.880338 113.526C0.29914 114.93 0 116.435 0 117.955C0 119.475 0.29914 120.98 0.880338 122.384C1.46154 123.788 2.31341 125.064 3.38732 126.139L87.8824 210.701C91.4619 214.283 95.7114 217.125 100.388 219.063C105.065 221.002 110.078 222 115.14 222C120.202 222 125.215 221.002 129.892 219.063C134.569 217.125 138.818 214.283 142.398 210.701L229.619 123.409C231.784 121.237 233 118.294 233 115.226C233 112.158 231.784 109.215 229.619 107.043L229.326 106.763ZM131.494 199.789C129.347 201.939 126.797 203.644 123.991 204.807C121.185 205.97 118.177 206.569 115.14 206.569C112.102 206.569 109.095 205.97 106.289 204.807C103.483 203.644 100.933 201.939 98.7852 199.789L17.0134 117.954L42.5995 92.3501L50.2657 101.74L50.3138 101.798C53.2209 105.339 56.7318 108.337 60.6837 110.653C75.8334 119.405 94.4326 116.858 106.966 104.314C119.499 91.7714 122.043 73.1582 113.299 57.9971C110.985 54.0421 107.989 50.5286 104.451 47.6192L95.0109 39.8989L117.717 17.1747L144.709 47.1886L156.41 46.9094L168.486 32.1197C170.226 29.9879 172.328 28.1796 174.696 26.7776C183.717 21.5663 194.837 23.1277 202.366 30.6624C209.896 38.1971 211.456 49.3244 206.248 58.3544C204.848 60.724 203.041 62.828 200.91 64.5698L186.132 76.6547L185.852 88.364L215.844 115.377L131.494 199.789Z" fill="url(#paint0_linear_18_332)" />
    <defs>
        <linearGradient id="paint0_linear_18_332" x1="116.5" y1="0" x2="116.5" y2="222" gradientUnits="userSpaceOnUse">
            <stop stopColor="#DEE6FE" />
            <stop offset="1" stopColor="#E0F5FF" />
        </linearGradient>
    </defs>
</svg>
