<svg width="54" height="47" viewBox="0 0 54 47" fill="none" xmlns="http://www.w3.org/2000/svg">
    <path opacity="0.5" fillRule="evenodd" clipRule="evenodd" d="M54 7.34056C45.912 11.4187 41.8681 16.2104 41.8681 21.7158C45.3154 22.1236 48.1661 23.568 50.4201 26.0488C52.6741 28.5297 53.8011 31.4013 53.8011 34.6638C53.8011 38.1302 52.7073 41.0528 50.5195 43.4317C48.3318 45.8106 45.5806 47 42.2658 47C38.5533 47 35.3381 45.4537 32.62 42.3612C29.9019 39.2686 28.5429 35.5134 28.5429 31.0954C28.5429 17.8416 35.7689 7.47654 50.2212 0L54 7.34056ZM25.4571 7.34056C17.3029 11.4187 13.2258 16.2104 13.2258 21.7158C16.7394 22.1236 19.6232 23.568 21.8772 26.0488C24.1313 28.5297 25.2583 31.4013 25.2583 34.6638C25.2583 38.1302 24.1478 41.0528 21.927 43.4317C19.7061 45.8106 16.9383 47 13.6236 47C9.911 47 6.7123 45.4537 4.0274 42.3612C1.3425 39.2686 0 35.5134 0 31.0954C0 17.8416 7.1929 7.47654 21.5789 0L25.4571 7.34056Z" fill="#7D97F4" />
</svg>
