<svg width="203" height="186" viewBox="0 0 203 186" fill="none" xmlns="http://www.w3.org/2000/svg">
    <g filter="url(#filter0_d_2_54)">
        <path d="M147.078 20.928H55C37.8792 20.928 24 34.8072 24 51.928V126.142C24 143.263 37.8792 157.142 55 157.142H147.078C164.199 157.142 178.078 143.263 178.078 126.142V51.928C178.078 34.8072 164.199 20.928 147.078 20.928Z" fill="white" />
    </g>
    <path d="M66.737 47.981C66.104 47.981 65.532 47.872 65.021 47.656C64.518 47.439 64.12 47.127 63.825 46.72C63.53 46.312 63.379 45.831 63.37 45.277H65.32C65.346 45.649 65.476 45.944 65.71 46.161C65.953 46.377 66.282 46.486 66.698 46.486C67.123 46.486 67.456 46.386 67.699 46.187C67.942 45.979 68.063 45.71 68.063 45.381C68.063 45.112 67.981 44.891 67.816 44.718C67.651 44.544 67.443 44.41 67.192 44.315C66.949 44.211 66.611 44.098 66.178 43.977C65.589 43.803 65.108 43.634 64.735 43.47C64.371 43.296 64.055 43.041 63.786 42.703C63.526 42.356 63.396 41.897 63.396 41.325C63.396 40.787 63.53 40.319 63.799 39.921C64.068 39.522 64.445 39.219 64.93 39.011C65.415 38.794 65.97 38.686 66.594 38.686C67.53 38.686 68.288 38.915 68.869 39.375C69.458 39.825 69.783 40.458 69.844 41.273H67.842C67.825 40.961 67.69 40.705 67.439 40.506C67.196 40.298 66.871 40.194 66.464 40.194C66.109 40.194 65.823 40.285 65.606 40.467C65.398 40.649 65.294 40.913 65.294 41.26C65.294 41.502 65.372 41.706 65.528 41.871C65.693 42.027 65.892 42.157 66.126 42.261C66.369 42.356 66.707 42.469 67.14 42.599C67.729 42.772 68.21 42.945 68.583 43.119C68.956 43.292 69.276 43.552 69.545 43.899C69.814 44.245 69.948 44.7 69.948 45.264C69.948 45.749 69.822 46.2 69.571 46.616C69.32 47.032 68.951 47.365 68.466 47.617C67.981 47.859 67.404 47.981 66.737 47.981ZM78.221 44.133C78.221 44.393 78.204 44.627 78.169 44.835H72.904C72.947 45.355 73.129 45.762 73.45 46.057C73.771 46.351 74.165 46.499 74.633 46.499C75.309 46.499 75.79 46.208 76.076 45.628H78.039C77.831 46.321 77.432 46.893 76.843 47.344C76.254 47.786 75.53 48.007 74.672 48.007C73.979 48.007 73.355 47.855 72.8 47.552C72.254 47.24 71.825 46.802 71.513 46.239C71.21 45.675 71.058 45.025 71.058 44.289C71.058 43.543 71.21 42.889 71.513 42.326C71.816 41.762 72.241 41.329 72.787 41.026C73.333 40.722 73.961 40.571 74.672 40.571C75.357 40.571 75.968 40.718 76.505 41.013C77.051 41.307 77.471 41.728 77.766 42.274C78.069 42.811 78.221 43.431 78.221 44.133ZM76.336 43.613C76.327 43.145 76.158 42.772 75.829 42.495C75.5 42.209 75.097 42.066 74.62 42.066C74.169 42.066 73.788 42.204 73.476 42.482C73.173 42.75 72.986 43.127 72.917 43.613H76.336ZM81.369 38.27V47.89H79.549V38.27H81.369ZM89.863 44.133C89.863 44.393 89.845 44.627 89.811 44.835H84.546C84.589 45.355 84.771 45.762 85.092 46.057C85.412 46.351 85.807 46.499 86.275 46.499C86.951 46.499 87.432 46.208 87.718 45.628H89.681C89.473 46.321 89.074 46.893 88.485 47.344C87.895 47.786 87.172 48.007 86.314 48.007C85.62 48.007 84.996 47.855 84.442 47.552C83.896 47.24 83.467 46.802 83.155 46.239C82.851 45.675 82.7 45.025 82.7 44.289C82.7 43.543 82.851 42.889 83.155 42.326C83.458 41.762 83.883 41.329 84.429 41.026C84.975 40.722 85.603 40.571 86.314 40.571C86.998 40.571 87.609 40.718 88.147 41.013C88.693 41.307 89.113 41.728 89.408 42.274C89.711 42.811 89.863 43.431 89.863 44.133ZM87.978 43.613C87.969 43.145 87.8 42.772 87.471 42.495C87.141 42.209 86.738 42.066 86.262 42.066C85.811 42.066 85.43 42.204 85.118 42.482C84.814 42.75 84.628 43.127 84.559 43.613H87.978ZM90.723 44.289C90.723 43.543 90.875 42.893 91.178 42.339C91.481 41.775 91.902 41.342 92.439 41.039C92.976 40.727 93.592 40.571 94.285 40.571C95.178 40.571 95.914 40.796 96.495 41.247C97.084 41.689 97.479 42.313 97.678 43.119H95.715C95.611 42.807 95.433 42.564 95.182 42.391C94.939 42.209 94.636 42.118 94.272 42.118C93.752 42.118 93.34 42.308 93.037 42.69C92.734 43.062 92.582 43.595 92.582 44.289C92.582 44.973 92.734 45.506 93.037 45.888C93.34 46.26 93.752 46.447 94.272 46.447C95.009 46.447 95.49 46.117 95.715 45.459H97.678C97.479 46.239 97.084 46.858 96.495 47.318C95.906 47.777 95.169 48.007 94.285 48.007C93.592 48.007 92.976 47.855 92.439 47.552C91.902 47.24 91.481 46.806 91.178 46.252C90.875 45.688 90.723 45.034 90.723 44.289ZM101.13 42.183V45.667C101.13 45.909 101.187 46.087 101.299 46.2C101.421 46.304 101.62 46.356 101.897 46.356H102.742V47.89H101.598C100.064 47.89 99.297 47.144 99.297 45.654V42.183H98.439V40.688H99.297V38.907H101.13V40.688H102.742V42.183H101.13ZM109.268 42.183V45.667C109.268 45.909 109.324 46.087 109.437 46.2C109.558 46.304 109.758 46.356 110.035 46.356H110.88V47.89H109.736C108.202 47.89 107.435 47.144 107.435 45.654V42.183H106.577V40.688H107.435V38.907H109.268V40.688H110.88V42.183H109.268ZM113.112 39.83C112.791 39.83 112.523 39.73 112.306 39.531C112.098 39.323 111.994 39.067 111.994 38.764C111.994 38.46 112.098 38.209 112.306 38.01C112.523 37.802 112.791 37.698 113.112 37.698C113.433 37.698 113.697 37.802 113.905 38.01C114.122 38.209 114.23 38.46 114.23 38.764C114.23 39.067 114.122 39.323 113.905 39.531C113.697 39.73 113.433 39.83 113.112 39.83ZM114.009 40.688V47.89H112.189V40.688H114.009ZM124.751 40.584C125.635 40.584 126.346 40.857 126.883 41.403C127.429 41.94 127.702 42.694 127.702 43.665V47.89H125.882V43.912C125.882 43.348 125.739 42.919 125.453 42.625C125.167 42.321 124.777 42.17 124.283 42.17C123.789 42.17 123.395 42.321 123.1 42.625C122.814 42.919 122.671 43.348 122.671 43.912V47.89H120.851V43.912C120.851 43.348 120.708 42.919 120.422 42.625C120.136 42.321 119.746 42.17 119.252 42.17C118.749 42.17 118.351 42.321 118.056 42.625C117.77 42.919 117.627 43.348 117.627 43.912V47.89H115.807V40.688H117.627V41.559C117.861 41.255 118.16 41.017 118.524 40.844C118.897 40.67 119.304 40.584 119.746 40.584C120.309 40.584 120.812 40.705 121.254 40.948C121.696 41.182 122.038 41.52 122.281 41.962C122.515 41.546 122.853 41.212 123.295 40.961C123.746 40.709 124.231 40.584 124.751 40.584ZM136.124 44.133C136.124 44.393 136.107 44.627 136.072 44.835H130.807C130.851 45.355 131.033 45.762 131.353 46.057C131.674 46.351 132.068 46.499 132.536 46.499C133.212 46.499 133.693 46.208 133.979 45.628H135.942C135.734 46.321 135.336 46.893 134.746 47.344C134.157 47.786 133.433 48.007 132.575 48.007C131.882 48.007 131.258 47.855 130.703 47.552C130.157 47.24 129.728 46.802 129.416 46.239C129.113 45.675 128.961 45.025 128.961 44.289C128.961 43.543 129.113 42.889 129.416 42.326C129.72 41.762 130.144 41.329 130.69 41.026C131.236 40.722 131.865 40.571 132.575 40.571C133.26 40.571 133.871 40.718 134.408 41.013C134.954 41.307 135.375 41.728 135.669 42.274C135.973 42.811 136.124 43.431 136.124 44.133ZM134.239 43.613C134.231 43.145 134.062 42.772 133.732 42.495C133.403 42.209 133 42.066 132.523 42.066C132.073 42.066 131.691 42.204 131.379 42.482C131.076 42.75 130.89 43.127 130.82 43.613H134.239Z" fill="black" />
    <path d="M79.508 96.281V95.285H81.764V103.961H80.66V96.281H79.508ZM84.168 104.033C83.96 104.033 83.784 103.961 83.64 103.817C83.496 103.673 83.424 103.497 83.424 103.289C83.424 103.081 83.496 102.905 83.64 102.761C83.784 102.617 83.96 102.545 84.168 102.545C84.368 102.545 84.536 102.617 84.672 102.761C84.816 102.905 84.888 103.081 84.888 103.289C84.888 103.497 84.816 103.673 84.672 103.817C84.536 103.961 84.368 104.033 84.168 104.033ZM84.168 98.897C83.96 98.897 83.784 98.825 83.64 98.681C83.496 98.537 83.424 98.361 83.424 98.153C83.424 97.945 83.496 97.769 83.64 97.625C83.784 97.481 83.96 97.409 84.168 97.409C84.368 97.409 84.536 97.481 84.672 97.625C84.816 97.769 84.888 97.945 84.888 98.153C84.888 98.361 84.816 98.537 84.672 98.681C84.536 98.825 84.368 98.897 84.168 98.897ZM86.194 99.533C86.194 98.157 86.418 97.085 86.866 96.317C87.314 95.541 88.098 95.153 89.218 95.153C90.33 95.153 91.11 95.541 91.558 96.317C92.006 97.085 92.23 98.157 92.23 99.533C92.23 100.933 92.006 102.021 91.558 102.797C91.11 103.573 90.33 103.961 89.218 103.961C88.098 103.961 87.314 103.573 86.866 102.797C86.418 102.021 86.194 100.933 86.194 99.533ZM91.15 99.533C91.15 98.837 91.102 98.249 91.006 97.769C90.918 97.281 90.73 96.889 90.442 96.593C90.162 96.297 89.754 96.149 89.218 96.149C88.674 96.149 88.258 96.297 87.97 96.593C87.69 96.889 87.502 97.281 87.406 97.769C87.318 98.249 87.274 98.837 87.274 99.533C87.274 100.253 87.318 100.857 87.406 101.345C87.502 101.833 87.69 102.225 87.97 102.521C88.258 102.817 88.674 102.965 89.218 102.965C89.754 102.965 90.162 102.817 90.442 102.521C90.73 102.225 90.918 101.833 91.006 101.345C91.102 100.857 91.15 100.253 91.15 99.533ZM93.729 99.533C93.729 98.157 93.953 97.085 94.401 96.317C94.849 95.541 95.633 95.153 96.753 95.153C97.865 95.153 98.645 95.541 99.093 96.317C99.541 97.085 99.765 98.157 99.765 99.533C99.765 100.933 99.541 102.021 99.093 102.797C98.645 103.573 97.865 103.961 96.753 103.961C95.633 103.961 94.849 103.573 94.401 102.797C93.953 102.021 93.729 100.933 93.729 99.533ZM98.685 99.533C98.685 98.837 98.637 98.249 98.541 97.769C98.453 97.281 98.265 96.889 97.977 96.593C97.697 96.297 97.289 96.149 96.753 96.149C96.209 96.149 95.793 96.297 95.505 96.593C95.225 96.889 95.037 97.281 94.941 97.769C94.853 98.249 94.809 98.837 94.809 99.533C94.809 100.253 94.853 100.857 94.941 101.345C95.037 101.833 95.225 102.225 95.505 102.521C95.793 102.817 96.209 102.965 96.753 102.965C97.289 102.965 97.697 102.817 97.977 102.521C98.265 102.225 98.453 101.833 98.541 101.345C98.637 100.857 98.685 100.253 98.685 99.533ZM105.736 98.597C105.952 98.221 106.272 97.909 106.696 97.661C107.128 97.405 107.628 97.277 108.196 97.277C108.78 97.277 109.308 97.417 109.78 97.697C110.26 97.977 110.636 98.373 110.908 98.885C111.18 99.389 111.316 99.977 111.316 100.649C111.316 101.313 111.18 101.905 110.908 102.425C110.636 102.945 110.26 103.349 109.78 103.637C109.308 103.925 108.78 104.069 108.196 104.069C107.636 104.069 107.14 103.945 106.708 103.697C106.284 103.441 105.96 103.125 105.736 102.749V107.081H104.644V97.385H105.736V98.597ZM110.2 100.649C110.2 100.153 110.1 99.721 109.9 99.353C109.7 98.985 109.428 98.705 109.084 98.513C108.748 98.321 108.376 98.225 107.968 98.225C107.568 98.225 107.196 98.325 106.852 98.525C106.516 98.717 106.244 99.001 106.036 99.377C105.836 99.745 105.736 100.173 105.736 100.661C105.736 101.157 105.836 101.593 106.036 101.969C106.244 102.337 106.516 102.621 106.852 102.821C107.196 103.013 107.568 103.109 107.968 103.109C108.376 103.109 108.748 103.013 109.084 102.821C109.428 102.621 109.7 102.337 109.9 101.969C110.1 101.593 110.2 101.153 110.2 100.649ZM120.661 97.265C121.173 97.265 121.629 97.373 122.029 97.589C122.429 97.797 122.745 98.113 122.977 98.537C123.209 98.961 123.325 99.477 123.325 100.085V103.961H122.245V100.241C122.245 99.585 122.081 99.085 121.753 98.741C121.433 98.389 120.997 98.213 120.445 98.213C119.877 98.213 119.425 98.397 119.089 98.765C118.753 99.125 118.585 99.649 118.585 100.337V103.961H117.505V100.241C117.505 99.585 117.341 99.085 117.013 98.741C116.693 98.389 116.257 98.213 115.705 98.213C115.137 98.213 114.685 98.397 114.349 98.765C114.013 99.125 113.845 99.649 113.845 100.337V103.961H112.753V97.385H113.845V98.333C114.061 97.989 114.349 97.725 114.709 97.541C115.077 97.357 115.481 97.265 115.921 97.265C116.473 97.265 116.961 97.389 117.385 97.637C117.809 97.885 118.125 98.249 118.333 98.729C118.517 98.265 118.821 97.905 119.245 97.649C119.669 97.393 120.141 97.265 120.661 97.265Z" fill="black" />
    <path d="M145.698 89.461H54.052C51.5667 89.461 49.552 91.4757 49.552 93.961V104.926C49.552 107.411 51.5667 109.426 54.052 109.426H145.698C148.183 109.426 150.198 107.411 150.198 104.926V93.961C150.198 91.4757 148.183 89.461 145.698 89.461Z" stroke="#E0E0E0" />
    <path d="M80.149 77.358C80.229 77.814 80.413 78.166 80.701 78.414C80.997 78.662 81.393 78.786 81.889 78.786C82.553 78.786 83.041 78.526 83.353 78.006C83.673 77.486 83.825 76.61 83.809 75.378C83.641 75.738 83.361 76.022 82.969 76.23C82.577 76.43 82.141 76.53 81.661 76.53C81.125 76.53 80.645 76.422 80.221 76.206C79.805 75.982 79.477 75.658 79.237 75.234C78.997 74.81 78.877 74.298 78.877 73.698C78.877 72.842 79.125 72.154 79.621 71.634C80.117 71.106 80.821 70.842 81.733 70.842C82.853 70.842 83.637 71.206 84.085 71.934C84.541 72.662 84.769 73.746 84.769 75.186C84.769 76.194 84.677 77.026 84.493 77.682C84.317 78.338 84.013 78.838 83.581 79.182C83.157 79.526 82.573 79.698 81.829 79.698C81.013 79.698 80.377 79.478 79.921 79.038C79.465 78.598 79.205 78.038 79.141 77.358H80.149ZM81.841 75.606C82.377 75.606 82.817 75.442 83.161 75.114C83.505 74.778 83.677 74.326 83.677 73.758C83.677 73.158 83.509 72.674 83.173 72.306C82.837 71.938 82.365 71.754 81.757 71.754C81.197 71.754 80.749 71.93 80.413 72.282C80.085 72.634 79.921 73.098 79.921 73.674C79.921 74.258 80.085 74.726 80.413 75.078C80.741 75.43 81.217 75.606 81.841 75.606ZM86.832 79.758C86.624 79.758 86.448 79.686 86.304 79.542C86.16 79.398 86.088 79.222 86.088 79.014C86.088 78.806 86.16 78.63 86.304 78.486C86.448 78.342 86.624 78.27 86.832 78.27C87.032 78.27 87.2 78.342 87.336 78.486C87.48 78.63 87.552 78.806 87.552 79.014C87.552 79.222 87.48 79.398 87.336 79.542C87.2 79.686 87.032 79.758 86.832 79.758ZM86.832 74.622C86.624 74.622 86.448 74.55 86.304 74.406C86.16 74.262 86.088 74.086 86.088 73.878C86.088 73.67 86.16 73.494 86.304 73.35C86.448 73.206 86.624 73.134 86.832 73.134C87.032 73.134 87.2 73.206 87.336 73.35C87.48 73.494 87.552 73.67 87.552 73.878C87.552 74.086 87.48 74.262 87.336 74.406C87.2 74.55 87.032 74.622 86.832 74.622ZM88.858 75.258C88.858 73.882 89.082 72.81 89.53 72.042C89.978 71.266 90.762 70.878 91.882 70.878C92.994 70.878 93.774 71.266 94.222 72.042C94.67 72.81 94.894 73.882 94.894 75.258C94.894 76.658 94.67 77.746 94.222 78.522C93.774 79.298 92.994 79.686 91.882 79.686C90.762 79.686 89.978 79.298 89.53 78.522C89.082 77.746 88.858 76.658 88.858 75.258ZM93.814 75.258C93.814 74.562 93.766 73.974 93.67 73.494C93.582 73.006 93.394 72.614 93.106 72.318C92.826 72.022 92.418 71.874 91.882 71.874C91.338 71.874 90.922 72.022 90.634 72.318C90.354 72.614 90.166 73.006 90.07 73.494C89.982 73.974 89.938 74.562 89.938 75.258C89.938 75.978 89.982 76.582 90.07 77.07C90.166 77.558 90.354 77.95 90.634 78.246C90.922 78.542 91.338 78.69 91.882 78.69C92.418 78.69 92.826 78.542 93.106 78.246C93.394 77.95 93.582 77.558 93.67 77.07C93.766 76.582 93.814 75.978 93.814 75.258ZM96.393 75.258C96.393 73.882 96.617 72.81 97.065 72.042C97.513 71.266 98.297 70.878 99.417 70.878C100.529 70.878 101.309 71.266 101.757 72.042C102.205 72.81 102.429 73.882 102.429 75.258C102.429 76.658 102.205 77.746 101.757 78.522C101.309 79.298 100.529 79.686 99.417 79.686C98.297 79.686 97.513 79.298 97.065 78.522C96.617 77.746 96.393 76.658 96.393 75.258ZM101.349 75.258C101.349 74.562 101.301 73.974 101.205 73.494C101.117 73.006 100.929 72.614 100.641 72.318C100.361 72.022 99.953 71.874 99.417 71.874C98.873 71.874 98.457 72.022 98.169 72.318C97.889 72.614 97.701 73.006 97.605 73.494C97.517 73.974 97.473 74.562 97.473 75.258C97.473 75.978 97.517 76.582 97.605 77.07C97.701 77.558 97.889 77.95 98.169 78.246C98.457 78.542 98.873 78.69 99.417 78.69C99.953 78.69 100.361 78.542 100.641 78.246C100.929 77.95 101.117 77.558 101.205 77.07C101.301 76.582 101.349 75.978 101.349 75.258ZM106.9 76.374C106.9 75.702 107.036 75.114 107.308 74.61C107.58 74.098 107.952 73.702 108.424 73.422C108.904 73.142 109.436 73.002 110.02 73.002C110.596 73.002 111.096 73.126 111.52 73.374C111.944 73.622 112.26 73.934 112.468 74.31V73.11H113.572V79.686H112.468V78.462C112.252 78.846 111.928 79.166 111.496 79.422C111.072 79.67 110.576 79.794 110.008 79.794C109.424 79.794 108.896 79.65 108.424 79.362C107.952 79.074 107.58 78.67 107.308 78.15C107.036 77.63 106.9 77.038 106.9 76.374ZM112.468 76.386C112.468 75.89 112.368 75.458 112.168 75.09C111.968 74.722 111.696 74.442 111.352 74.25C111.016 74.05 110.644 73.95 110.236 73.95C109.828 73.95 109.456 74.046 109.12 74.238C108.784 74.43 108.516 74.71 108.316 75.078C108.116 75.446 108.016 75.878 108.016 76.374C108.016 76.878 108.116 77.318 108.316 77.694C108.516 78.062 108.784 78.346 109.12 78.546C109.456 78.738 109.828 78.834 110.236 78.834C110.644 78.834 111.016 78.738 111.352 78.546C111.696 78.346 111.968 78.062 112.168 77.694C112.368 77.318 112.468 76.882 112.468 76.386ZM123.325 72.99C123.837 72.99 124.293 73.098 124.693 73.314C125.093 73.522 125.409 73.838 125.641 74.262C125.873 74.686 125.989 75.202 125.989 75.81V79.686H124.909V75.966C124.909 75.31 124.745 74.81 124.417 74.466C124.097 74.114 123.661 73.938 123.109 73.938C122.541 73.938 122.089 74.122 121.753 74.49C121.417 74.85 121.249 75.374 121.249 76.062V79.686H120.169V75.966C120.169 75.31 120.005 74.81 119.677 74.466C119.357 74.114 118.921 73.938 118.369 73.938C117.801 73.938 117.349 74.122 117.013 74.49C116.677 74.85 116.509 75.374 116.509 76.062V79.686H115.417V73.11H116.509V74.058C116.725 73.714 117.013 73.45 117.373 73.266C117.741 73.082 118.145 72.99 118.585 72.99C119.137 72.99 119.625 73.114 120.049 73.362C120.473 73.61 120.789 73.974 120.997 74.454C121.181 73.99 121.485 73.63 121.909 73.374C122.333 73.118 122.805 72.99 123.325 72.99Z" fill="black" />
    <path id='select-time-ring' d="M146.647 65.686H55.001C52.7919 65.686 51.001 67.4769 51.001 69.686V80.6505C51.001 82.8596 52.7919 84.6505 55.001 84.6505H146.647C148.856 84.6505 150.647 82.8596 150.647 80.6505V69.686C150.647 67.4769 148.856 65.686 146.647 65.686Z" stroke="#7D97F4" strokeWidth="2" />
    <path d="M79.772 121.734C79.828 120.998 80.112 120.422 80.624 120.006C81.136 119.59 81.8 119.382 82.616 119.382C83.16 119.382 83.628 119.482 84.02 119.682C84.42 119.874 84.72 120.138 84.92 120.474C85.128 120.81 85.232 121.19 85.232 121.614C85.232 122.11 85.088 122.538 84.8 122.898C84.52 123.258 84.152 123.49 83.696 123.594V123.654C84.216 123.782 84.628 124.034 84.932 124.41C85.236 124.786 85.388 125.278 85.388 125.886C85.388 126.342 85.284 126.754 85.076 127.122C84.868 127.482 84.556 127.766 84.14 127.974C83.724 128.182 83.224 128.286 82.64 128.286C81.792 128.286 81.096 128.066 80.552 127.626C80.008 127.178 79.704 126.546 79.64 125.73H80.696C80.752 126.21 80.948 126.602 81.284 126.906C81.62 127.21 82.068 127.362 82.628 127.362C83.188 127.362 83.612 127.218 83.9 126.93C84.196 126.634 84.344 126.254 84.344 125.79C84.344 125.19 84.144 124.758 83.744 124.494C83.344 124.23 82.74 124.098 81.932 124.098H81.656V123.186H81.944C82.68 123.178 83.236 123.058 83.612 122.826C83.988 122.586 84.176 122.218 84.176 121.722C84.176 121.298 84.036 120.958 83.756 120.702C83.484 120.446 83.092 120.318 82.58 120.318C82.084 120.318 81.684 120.446 81.38 120.702C81.076 120.958 80.896 121.302 80.84 121.734H79.772ZM87.39 128.298C87.182 128.298 87.006 128.226 86.862 128.082C86.718 127.938 86.646 127.762 86.646 127.554C86.646 127.346 86.718 127.17 86.862 127.026C87.006 126.882 87.182 126.81 87.39 126.81C87.59 126.81 87.758 126.882 87.894 127.026C88.038 127.17 88.11 127.346 88.11 127.554C88.11 127.762 88.038 127.938 87.894 128.082C87.758 128.226 87.59 128.298 87.39 128.298ZM87.39 123.162C87.182 123.162 87.006 123.09 86.862 122.946C86.718 122.802 86.646 122.626 86.646 122.418C86.646 122.21 86.718 122.034 86.862 121.89C87.006 121.746 87.182 121.674 87.39 121.674C87.59 121.674 87.758 121.746 87.894 121.89C88.038 122.034 88.11 122.21 88.11 122.418C88.11 122.626 88.038 122.802 87.894 122.946C87.758 123.09 87.59 123.162 87.39 123.162ZM89.393 121.734C89.449 120.998 89.733 120.422 90.245 120.006C90.757 119.59 91.421 119.382 92.237 119.382C92.781 119.382 93.249 119.482 93.641 119.682C94.041 119.874 94.341 120.138 94.541 120.474C94.749 120.81 94.853 121.19 94.853 121.614C94.853 122.11 94.709 122.538 94.421 122.898C94.141 123.258 93.773 123.49 93.317 123.594V123.654C93.837 123.782 94.249 124.034 94.553 124.41C94.857 124.786 95.009 125.278 95.009 125.886C95.009 126.342 94.905 126.754 94.697 127.122C94.489 127.482 94.177 127.766 93.761 127.974C93.345 128.182 92.845 128.286 92.261 128.286C91.413 128.286 90.717 128.066 90.173 127.626C89.629 127.178 89.325 126.546 89.261 125.73H90.317C90.373 126.21 90.569 126.602 90.905 126.906C91.241 127.21 91.689 127.362 92.249 127.362C92.809 127.362 93.233 127.218 93.521 126.93C93.817 126.634 93.965 126.254 93.965 125.79C93.965 125.19 93.765 124.758 93.365 124.494C92.965 124.23 92.361 124.098 91.553 124.098H91.277V123.186H91.565C92.301 123.178 92.857 123.058 93.233 122.826C93.609 122.586 93.797 122.218 93.797 121.722C93.797 121.298 93.657 120.958 93.377 120.702C93.105 120.446 92.713 120.318 92.201 120.318C91.705 120.318 91.305 120.446 91.001 120.702C90.697 120.958 90.517 121.302 90.461 121.734H89.393ZM96.483 123.798C96.483 122.422 96.707 121.35 97.155 120.582C97.603 119.806 98.387 119.418 99.507 119.418C100.619 119.418 101.399 119.806 101.847 120.582C102.295 121.35 102.519 122.422 102.519 123.798C102.519 125.198 102.295 126.286 101.847 127.062C101.399 127.838 100.619 128.226 99.507 128.226C98.387 128.226 97.603 127.838 97.155 127.062C96.707 126.286 96.483 125.198 96.483 123.798ZM101.439 123.798C101.439 123.102 101.391 122.514 101.295 122.034C101.207 121.546 101.019 121.154 100.731 120.858C100.451 120.562 100.043 120.414 99.507 120.414C98.963 120.414 98.547 120.562 98.259 120.858C97.979 121.154 97.791 121.546 97.695 122.034C97.607 122.514 97.563 123.102 97.563 123.798C97.563 124.518 97.607 125.122 97.695 125.61C97.791 126.098 97.979 126.49 98.259 126.786C98.547 127.082 98.963 127.23 99.507 127.23C100.043 127.23 100.451 127.082 100.731 126.786C101.019 126.49 101.207 126.098 101.295 125.61C101.391 125.122 101.439 124.518 101.439 123.798ZM108.49 122.862C108.706 122.486 109.026 122.174 109.45 121.926C109.882 121.67 110.382 121.542 110.95 121.542C111.534 121.542 112.062 121.682 112.534 121.962C113.014 122.242 113.39 122.638 113.662 123.15C113.934 123.654 114.07 124.242 114.07 124.914C114.07 125.578 113.934 126.17 113.662 126.69C113.39 127.21 113.014 127.614 112.534 127.902C112.062 128.19 111.534 128.334 110.95 128.334C110.39 128.334 109.894 128.21 109.462 127.962C109.038 127.706 108.714 127.39 108.49 127.014V131.346H107.398V121.65H108.49V122.862ZM112.954 124.914C112.954 124.418 112.854 123.986 112.654 123.618C112.454 123.25 112.182 122.97 111.838 122.778C111.502 122.586 111.13 122.49 110.722 122.49C110.322 122.49 109.95 122.59 109.606 122.79C109.27 122.982 108.998 123.266 108.79 123.642C108.59 124.01 108.49 124.438 108.49 124.926C108.49 125.422 108.59 125.858 108.79 126.234C108.998 126.602 109.27 126.886 109.606 127.086C109.95 127.278 110.322 127.374 110.722 127.374C111.13 127.374 111.502 127.278 111.838 127.086C112.182 126.886 112.454 126.602 112.654 126.234C112.854 125.858 112.954 125.418 112.954 124.914ZM123.415 121.53C123.927 121.53 124.383 121.638 124.783 121.854C125.183 122.062 125.499 122.378 125.731 122.802C125.963 123.226 126.079 123.742 126.079 124.35V128.226H124.999V124.506C124.999 123.85 124.835 123.35 124.507 123.006C124.187 122.654 123.751 122.478 123.199 122.478C122.631 122.478 122.179 122.662 121.843 123.03C121.507 123.39 121.339 123.914 121.339 124.602V128.226H120.259V124.506C120.259 123.85 120.095 123.35 119.767 123.006C119.447 122.654 119.011 122.478 118.459 122.478C117.891 122.478 117.439 122.662 117.103 123.03C116.767 123.39 116.599 123.914 116.599 124.602V128.226H115.507V121.65H116.599V122.598C116.815 122.254 117.103 121.99 117.463 121.806C117.831 121.622 118.235 121.53 118.675 121.53C119.227 121.53 119.715 121.654 120.139 121.902C120.563 122.15 120.879 122.514 121.087 122.994C121.271 122.53 121.575 122.17 121.999 121.914C122.423 121.658 122.895 121.53 123.415 121.53Z" fill="black" />
    <path d="M147.026 113.726H55.052C52.5667 113.726 50.552 115.741 50.552 118.226V129.067C50.552 131.553 52.5667 133.567 55.052 133.567H147.026C149.511 133.567 151.526 131.553 151.526 129.067V118.226C151.526 115.741 149.511 113.726 147.026 113.726Z" stroke="#E0E0E0" />
    <defs>
        <filter id="filter0_d_2_54" x="0" y="0.927994" width="202.078" height="184.214" filterUnits="userSpaceOnUse" colorInterpolationFilters="sRGB">
            <feFlood floodOpacity="0" result="BackgroundImageFix" />
            <feColorMatrix in="SourceAlpha" type="matrix" values="0 0 0 0 0 0 0 0 0 0 0 0 0 0 0 0 0 0 127 0" result="hardAlpha" />
            <feOffset dy="4" />
            <feGaussianBlur stdDeviation="12" />
            <feColorMatrix type="matrix" values="0 0 0 0 0 0 0 0 0 0 0 0 0 0 0 0 0 0 0.1 0" />
            <feBlend mode="normal" in2="BackgroundImageFix" result="effect1_dropShadow_2_54" />
            <feBlend mode="normal" in="SourceGraphic" in2="effect1_dropShadow_2_54" result="shape" />
        </filter>
    </defs>
</svg>
