<svg width="52" height="52" viewBox="0 0 52 52" fill="none" xmlns="http://www.w3.org/2000/svg">
    <g clip-path="url(#clip0_48_148)">
        <path d="M44.6918 0H42.4561C41.4733 0 41.4733 1.52366 42.4561 1.52366H44.6918C47.0007 1.52366 48.8791 3.39532 48.8791 5.69584V23.3268C48.8791 25.6274 47.0008 27.4991 44.6918 27.4991H42.1561C41.9888 27.4991 41.8262 27.5541 41.6933 27.6558L37.0404 31.2149V28.2609C37.0404 27.8402 36.6994 27.4991 36.2786 27.4991H27.0066C26.2473 27.4991 25.5176 27.2987 24.874 26.9177V18.3657C24.874 16.7638 24.0581 15.3485 22.8192 14.5112V5.69584C22.8192 3.39532 24.6977 1.52366 27.0066 1.52366H37.682C38.6646 1.52366 38.6646 0 37.682 0H27.0066C23.8575 0 21.2955 2.55517 21.2955 5.69584V13.8416C20.9467 13.7583 20.5833 13.7129 20.2093 13.7129H6.26314C3.6911 13.7129 1.59851 15.8001 1.59851 18.3657V20.0107C1.59851 20.9934 3.12217 20.9934 3.12217 20.0107V18.3657C3.12217 16.6403 4.53115 15.2366 6.26314 15.2366H20.2094C21.9414 15.2366 23.3505 16.6403 23.3505 18.3657V27.221C23.3413 27.2882 23.3417 27.356 23.3505 27.4227V32.2691C23.3505 32.3649 23.3447 32.4603 23.336 32.5552H21.7649C20.0338 32.5552 18.5905 33.8047 18.2913 35.4469C18.222 35.473 18.1555 35.5095 18.0938 35.557L14.6864 38.1879V36.1601C14.6864 35.7393 14.3454 35.3982 13.9246 35.3982H6.26314C4.53115 35.3982 3.12217 33.9945 3.12217 32.2691V24.5817C3.12217 23.599 1.59851 23.599 1.59851 24.5817V32.2692C1.59851 34.8348 3.6911 36.922 6.26314 36.922H13.1629V39.7387C13.1629 40.3498 13.9049 40.7164 14.3903 40.3418L18.2335 37.3744V45.945C18.2335 47.8877 19.8178 49.468 21.765 49.468H26.4401V51.2457C26.4401 51.8566 27.1821 52.2236 27.6675 51.8488L30.751 49.468H31.6619C33.6091 49.468 35.1934 47.8875 35.1934 45.945V44.5924C35.1934 43.6097 33.6698 43.6097 33.6698 44.5924V45.945C33.6698 47.0475 32.7691 47.9443 31.6619 47.9443H30.491C30.3225 47.9443 30.1588 48.0002 30.0255 48.1031L27.9637 49.6949V48.7061C27.9637 48.2853 27.6227 47.9442 27.2019 47.9442H21.7649C20.6578 47.9442 19.7571 47.0473 19.7571 45.9449V36.0783C19.7571 34.9758 20.6577 34.0789 21.7649 34.0789H31.6619C32.769 34.0789 33.6698 34.9759 33.6698 36.0783V39.8183C33.6698 40.8009 35.1934 40.8009 35.1934 39.8183V36.0784C35.1934 34.1357 33.6091 32.5554 31.6619 32.5554H24.8654C24.8712 32.4602 24.8741 28.6124 24.8741 28.6124C25.5458 28.8825 26.266 29.0228 27.0067 29.0228H35.5169V32.7568C35.5169 33.3664 36.2557 33.7334 36.7416 33.3619L42.4143 29.0228H44.6919C47.8409 29.0228 50.4029 26.4677 50.4029 23.3269V5.69584C50.4028 2.55517 47.8408 0 44.6918 0V0Z" fill="#E54799" />
        <path d="M37.7526 5.62874C36.7853 5.3818 35.7996 6.14607 35.7996 7.14559C35.7996 8.23765 35.4016 9.29009 34.6795 10.1085L32.5805 12.4837C32.4446 12.2751 32.2097 12.1371 31.9423 12.1371H27.8447C27.4238 12.1371 27.0828 12.4782 27.0828 12.8989V22.1186C27.0828 22.5393 27.4238 22.8804 27.8447 22.8804H31.9423C32.2502 22.8804 32.5147 22.6975 32.6348 22.4348C33.4644 22.9417 34.4257 23.2157 35.4038 23.2157H42.6455C43.7521 23.2157 44.6649 22.2555 44.613 21.1518C44.59 20.663 44.6152 14.0998 44.6152 13.954C44.6152 12.8679 43.7315 11.9842 42.6477 11.9842L38.8819 11.9729L39.0379 11.6037C39.7504 9.91621 39.6331 7.95943 38.7244 6.36903C38.5123 5.99746 38.167 5.73468 37.7526 5.62874C37.338 5.52289 38.167 5.73468 37.7526 5.62874C36.7854 5.3818 38.167 5.73468 37.7526 5.62874V5.62874ZM31.1805 21.3567H28.6065V13.6608H31.1805V21.3567ZM42.6455 13.5078C42.8915 13.5078 43.0916 13.7079 43.0916 13.9539C43.0916 14.0989 43.0901 14.4923 43.088 15.0256C43.0768 17.9706 43.0692 20.7597 43.091 21.2233C43.0989 21.3906 43.0175 21.5021 42.9684 21.5537C42.8833 21.6429 42.7686 21.692 42.6455 21.692H35.4038C34.5406 21.692 33.6958 21.3928 33.0248 20.8497L32.7041 20.59V14.6446L35.8216 11.117C36.7899 10.0195 37.3232 8.60911 37.3232 7.14549C37.3232 7.10242 37.382 7.09125 37.4015 7.12477C38.0762 8.3054 38.1632 9.75805 37.6343 11.0108L37.033 12.4348C36.9338 12.6698 36.9588 12.9386 37.0993 13.1513C37.2399 13.364 37.4776 13.4922 37.7325 13.493L42.6455 13.5078Z" fill="#7D97F4" />
        <path d="M8.12184 26.4618C7.70101 26.4618 7.36002 26.8029 7.36002 27.2237C7.36002 27.6444 7.70101 27.9855 8.12184 27.9855H10.3675L9.948 30.5228C9.87933 30.9378 10.1603 31.33 10.5753 31.3987C10.6175 31.4057 10.6592 31.4091 10.7005 31.4091C11.0666 31.4091 11.3895 31.1444 11.4512 30.7714L11.9118 27.9856H13.7496L13.3301 30.5229C13.2614 30.9379 13.5424 31.3301 13.9575 31.3988C13.9996 31.4058 14.0414 31.4092 14.0826 31.4092C14.4487 31.4092 14.7716 31.1445 14.8334 30.7715L15.2939 27.9857H18.3507C18.7715 27.9857 19.1125 27.6446 19.1125 27.2239C19.1125 26.8031 18.7715 26.462 18.3507 26.462H15.5458L15.8531 24.6036H18.3507C18.7715 24.6036 19.1125 24.2625 19.1125 23.8418C19.1125 23.421 18.7715 23.0799 18.3507 23.0799H16.105L16.5245 20.5426C16.5932 20.1276 16.3122 19.7354 15.8972 19.6667C15.4816 19.5979 15.0899 19.879 15.0213 20.2941L14.5607 23.0798H12.7229L13.1424 20.5425C13.2111 20.1275 12.9301 19.7353 12.5151 19.6666C12.099 19.5978 11.7079 19.8789 11.6392 20.294L11.1786 23.0797H8.12184C7.70101 23.0797 7.36002 23.4208 7.36002 23.8416C7.36002 24.2623 7.70101 24.6034 8.12184 24.6034H10.9267L10.6194 26.4618H8.12184ZM12.4711 24.6034H14.3089L14.0016 26.4618H12.1638L12.4711 24.6034Z" fill="#7D97F4" />
        <path d="M26.704 38.0107C26.0888 37.5043 25.2704 37.3045 24.4495 37.5041C23.3974 37.7595 22.3358 38.743 22.3358 40.3641C22.3358 41.373 22.7041 42.2488 23.4615 43.0415C24.0802 43.6891 24.9731 44.3049 26.3564 45.0383C26.468 45.0975 26.5906 45.127 26.7132 45.127C26.8358 45.127 26.9584 45.0975 27.0701 45.0383C29.4833 43.7589 31.0905 42.4744 31.0905 40.3641C31.0905 38.7342 29.9912 37.7607 28.9017 37.5191C28.0832 37.3375 27.2897 37.5303 26.704 38.0107V38.0107ZM29.5667 40.3641C29.5667 41.5023 28.8117 42.3441 26.7131 43.4994C24.6145 42.344 23.8594 41.5022 23.8594 40.3641C23.8594 39.5171 24.3498 39.0962 24.8088 38.9846C24.8935 38.9641 24.9841 38.9525 25.0772 38.9525C25.4225 38.9525 25.8021 39.112 26.0361 39.5658C26.1695 39.824 26.4391 39.9841 26.7282 39.9781C27.0187 39.9723 27.2806 39.8018 27.4034 39.5386C27.65 39.0101 28.1684 38.9172 28.5715 39.0067C29.0527 39.1132 29.5667 39.526 29.5667 40.3641V40.3641Z" fill="#E54799" />
    </g>
    <defs>
        <clipPath id="clip0_48_148">
            <rect width="52" height="52" fill="white" />
        </clipPath>
    </defs>
</svg>
