<svg width="116" height="40" viewBox="0 0 116 40" fill="none" xmlns="http://www.w3.org/2000/svg">
    <path d="M20 0H0V20H20V0Z" fill="#00B67A" />
    <path fillRule="evenodd" clipRule="evenodd" d="M11.6408 8.39769H17.1019L12.6845 11.6079L14.3713 16.8002L9.95398 13.5899L13.064 12.7834L12.6844 11.6079L9.95388 13.5899H9.95398L5.53128 16.8002L7.22338 11.6079L2.80078 8.3924L8.26188 8.39769L9.95398 3.2002L11.6408 8.39769Z" fill="white" />
    <path d="M44 0H24V20H44V0Z" fill="#00B67A" />
    <path fillRule="evenodd" clipRule="evenodd" d="M35.6408 8.39769H41.1019L36.6845 11.6079L38.3713 16.8002L33.954 13.5899L37.064 12.7834L36.6844 11.6079L33.9539 13.5899H33.954L29.5313 16.8002L31.2234 11.6079L26.8008 8.3924L32.2619 8.39769L33.954 3.2002L35.6408 8.39769Z" fill="white" />
    <path d="M68 0H48V20H68V0Z" fill="#00B67A" />
    <path fillRule="evenodd" clipRule="evenodd" d="M59.6408 8.39769H65.1019L60.6845 11.6079L62.3713 16.8002L57.954 13.5899L61.064 12.7834L60.6844 11.6079L57.9539 13.5899H57.954L53.5313 16.8002L55.2234 11.6079L50.8008 8.3924L56.2619 8.39769L57.954 3.2002L59.6408 8.39769Z" fill="white" />
    <path d="M92 0H72V20H92V0Z" fill="#00B67A" />
    <path fillRule="evenodd" clipRule="evenodd" d="M83.6405 8.39769H89.1015L84.6845 11.6079L86.3715 16.8002L81.9535 13.5899L85.0635 12.7834L84.6845 11.6079L81.9535 13.5899L77.5313 16.8002L79.2235 11.6079L74.8008 8.3924L80.2615 8.39769L81.9535 3.2002L83.6405 8.39769Z" fill="white" />
    <path d="M116 0H96V20H116V0Z" fill="#00B67A" />
    <path fillRule="evenodd" clipRule="evenodd" d="M107.64 8.39769H113.101L108.684 11.6079L110.371 16.8002L105.953 13.5899L109.063 12.7834L108.684 11.6079L105.953 13.5899L101.531 16.8002L103.223 11.6079L98.7998 8.3924L104.261 8.39769L105.953 3.2002L107.64 8.39769Z" fill="white" />
    <path d="M42.5458 29.6709H49.1425V30.9016H46.5487V37.8204H45.1223V30.9016H42.54V29.6709H42.5458ZM48.8607 31.9196H50.0799V33.0583H50.1029C50.1432 32.8973 50.218 32.742 50.3272 32.5925C50.4365 32.443 50.5688 32.2992 50.7241 32.1784C50.8794 32.0519 51.0519 31.9541 51.2417 31.8736C51.4315 31.7988 51.627 31.7586 51.8226 31.7586C51.9721 31.7586 52.0814 31.7643 52.1389 31.7701C52.1964 31.7758 52.2539 31.7873 52.3172 31.7931V33.0468C52.2251 33.0296 52.1331 33.0181 52.0354 33.0066C51.9376 32.9951 51.8456 32.9893 51.7535 32.9893C51.535 32.9893 51.328 33.0353 51.1324 33.1216C50.9369 33.2079 50.7701 33.3402 50.6263 33.5069C50.4825 33.6795 50.3675 33.8865 50.2812 34.1396C50.195 34.3926 50.1547 34.6802 50.1547 35.008V37.8146H48.8549V31.9196H48.8607ZM58.2927 37.8204H57.0159V36.998H56.9929C56.8319 37.297 56.5961 37.5328 56.2798 37.7111C55.9635 37.8894 55.6414 37.9814 55.3136 37.9814C54.5372 37.9814 53.9735 37.7916 53.6285 37.4063C53.2834 37.021 53.1108 36.4401 53.1108 35.6637V31.9196H54.4106V35.5371C54.4106 36.0547 54.5084 36.4228 54.7097 36.6356C54.9052 36.8484 55.187 36.9577 55.5436 36.9577C55.8197 36.9577 56.044 36.9174 56.228 36.8312C56.4121 36.7449 56.5616 36.6356 56.6709 36.4918C56.7859 36.3538 56.8664 36.1813 56.9182 35.9857C56.9699 35.7902 56.9929 35.5774 56.9929 35.3473V31.9253H58.2927V37.8204ZM60.507 35.9282C60.5472 36.3078 60.691 36.5724 60.9383 36.7276C61.1914 36.8772 61.4904 36.9577 61.8413 36.9577C61.962 36.9577 62.1001 36.9462 62.2553 36.9289C62.4106 36.9117 62.5602 36.8714 62.6924 36.8197C62.8305 36.7679 62.9397 36.6874 63.0318 36.5839C63.118 36.4803 63.1583 36.3481 63.1525 36.1813C63.1468 36.0145 63.0835 35.8765 62.9685 35.7729C62.8535 35.6637 62.7097 35.5831 62.5314 35.5141C62.3531 35.4509 62.1518 35.3934 61.9218 35.3473C61.6917 35.3013 61.4617 35.2496 61.2259 35.1978C60.9843 35.146 60.7485 35.077 60.5242 35.0023C60.2999 34.9275 60.0986 34.824 59.9203 34.6917C59.742 34.5652 59.5983 34.3984 59.4947 34.1971C59.3855 33.9958 59.3337 33.7485 59.3337 33.4494C59.3337 33.1274 59.4142 32.8628 59.5695 32.6443C59.7248 32.4257 59.9261 32.2532 60.1619 32.1209C60.4034 31.9886 60.668 31.8966 60.9613 31.8391C61.2546 31.7873 61.5364 31.7586 61.801 31.7586C62.1058 31.7586 62.3991 31.7931 62.6752 31.8563C62.9512 31.9196 63.2043 32.0231 63.4286 32.1727C63.6529 32.3164 63.8369 32.5062 63.9865 32.7363C64.136 32.9663 64.228 33.2481 64.2683 33.576H62.911C62.8477 33.2654 62.7097 33.0526 62.4854 32.9491C62.2611 32.8398 62.0023 32.788 61.7147 32.788C61.6227 32.788 61.5134 32.7938 61.3869 32.811C61.2604 32.8283 61.1453 32.857 61.0303 32.8973C60.921 32.9376 60.829 33.0008 60.7485 33.0813C60.6737 33.1619 60.6335 33.2654 60.6335 33.3977C60.6335 33.5587 60.691 33.6852 60.8003 33.783C60.9095 33.8808 61.0533 33.9613 61.2316 34.0303C61.4099 34.0936 61.6112 34.1511 61.8413 34.1971C62.0713 34.2431 62.3071 34.2949 62.5487 34.3466C62.7845 34.3984 63.0145 34.4674 63.2446 34.5422C63.4746 34.6169 63.6759 34.7205 63.8542 34.8527C64.0325 34.985 64.1763 35.146 64.2855 35.3416C64.3948 35.5371 64.4523 35.7844 64.4523 36.072C64.4523 36.4228 64.3718 36.7161 64.2108 36.9634C64.0497 37.205 63.8427 37.4063 63.5896 37.5558C63.3366 37.7054 63.049 37.8204 62.7384 37.8894C62.4279 37.9584 62.1173 37.9929 61.8125 37.9929C61.4387 37.9929 61.0936 37.9527 60.7773 37.8664C60.461 37.7801 60.1849 37.6536 59.9548 37.4868C59.7248 37.3143 59.5408 37.1015 59.4085 36.8484C59.2762 36.5954 59.2072 36.2905 59.1957 35.9397H60.507V35.9282ZM64.7974 31.9196H65.7809V30.1482H67.0806V31.9196H68.2539V32.8916H67.0806V36.0432C67.0806 36.1813 67.0864 36.2963 67.0979 36.3998C67.1094 36.4976 67.1382 36.5839 67.1784 36.6529C67.2187 36.7219 67.2819 36.7737 67.3682 36.8082C67.4545 36.8427 67.5638 36.8599 67.7133 36.8599C67.8053 36.8599 67.8973 36.8599 67.9893 36.8542C68.0814 36.8484 68.1734 36.8369 68.2654 36.8139V37.8204C68.1216 37.8376 67.9778 37.8491 67.8456 37.8664C67.7075 37.8836 67.5695 37.8894 67.4257 37.8894C67.0806 37.8894 66.8046 37.8549 66.5975 37.7916C66.3905 37.7284 66.2237 37.6306 66.1087 37.5041C65.9879 37.3775 65.9131 37.2223 65.8671 37.0325C65.8269 36.8427 65.7981 36.6241 65.7924 36.3826V32.9031H64.8089V31.9196H64.7974ZM69.1741 31.9196H70.4049V32.719H70.4279C70.6119 32.3739 70.865 32.1324 71.1928 31.9829C71.5206 31.8333 71.8714 31.7586 72.2568 31.7586C72.7226 31.7586 73.1252 31.8391 73.4703 32.0059C73.8154 32.1669 74.1029 32.3912 74.333 32.6788C74.563 32.9663 74.7298 33.2999 74.8448 33.6795C74.9599 34.0591 75.0174 34.4674 75.0174 34.8987C75.0174 35.2956 74.9656 35.6809 74.8621 36.049C74.7586 36.4228 74.6033 36.7506 74.3963 37.0382C74.1892 37.3258 73.9246 37.5501 73.6026 37.7226C73.2805 37.8951 72.9067 37.9814 72.4696 37.9814C72.2798 37.9814 72.09 37.9642 71.9002 37.9297C71.7104 37.8951 71.5264 37.8376 71.3538 37.7629C71.1813 37.6881 71.0145 37.5903 70.8707 37.4696C70.7212 37.3488 70.6004 37.2107 70.4969 37.0555H70.4739V40.0001H69.1741V31.9196ZM73.7176 34.8757C73.7176 34.6112 73.6831 34.3524 73.6141 34.0993C73.5451 33.8463 73.4415 33.6277 73.3035 33.4322C73.1655 33.2366 72.9929 33.0813 72.7916 32.9663C72.5846 32.8513 72.3488 32.788 72.0842 32.788C71.5379 32.788 71.1238 32.9778 70.8477 33.3574C70.5717 33.737 70.4336 34.2431 70.4336 34.8757C70.4336 35.1748 70.4681 35.4509 70.5429 35.7039C70.6177 35.957 70.7212 36.1755 70.8707 36.3596C71.0145 36.5436 71.187 36.6874 71.3883 36.7909C71.5896 36.9002 71.8254 36.9519 72.09 36.9519C72.3891 36.9519 72.6364 36.8887 72.8434 36.7679C73.0505 36.6471 73.2172 36.4861 73.3495 36.2963C73.4818 36.1008 73.5796 35.8822 73.6371 35.6349C73.6888 35.3876 73.7176 35.1345 73.7176 34.8757ZM76.0124 29.6709H77.3121V30.9016H76.0124V29.6709ZM76.0124 31.9196H77.3121V37.8204H76.0124V31.9196ZM78.4739 29.6709H79.7735V37.8204H78.4739V29.6709ZM83.7595 37.9814C83.2875 37.9814 82.8675 37.9009 82.4995 37.7456C82.1315 37.5903 81.8215 37.3718 81.5625 37.1015C81.3095 36.8254 81.1135 36.4976 80.9815 36.118C80.8495 35.7384 80.7805 35.3186 80.7805 34.8642C80.7805 34.4156 80.8495 34.0015 80.9815 33.622C81.1135 33.2424 81.3095 32.9146 81.5625 32.6385C81.8155 32.3624 82.1315 32.1496 82.4995 31.9944C82.8675 31.8391 83.2875 31.7586 83.7595 31.7586C84.2305 31.7586 84.6505 31.8391 85.0185 31.9944C85.3865 32.1496 85.6975 32.3682 85.9565 32.6385C86.2095 32.9146 86.4045 33.2424 86.5375 33.622C86.6695 34.0015 86.7385 34.4156 86.7385 34.8642C86.7385 35.3186 86.6695 35.7384 86.5375 36.118C86.4045 36.4976 86.2095 36.8254 85.9565 37.1015C85.7035 37.3775 85.3865 37.5903 85.0185 37.7456C84.6505 37.9009 84.2305 37.9814 83.7595 37.9814ZM83.7595 36.9519C84.0465 36.9519 84.2995 36.8887 84.5125 36.7679C84.7255 36.6471 84.8985 36.4861 85.0365 36.2905C85.1745 36.095 85.2715 35.8707 85.3405 35.6234C85.4045 35.3761 85.4385 35.123 85.4385 34.8642C85.4385 34.6112 85.4045 34.3639 85.3405 34.1108C85.2775 33.8578 85.1745 33.6392 85.0365 33.4437C84.8985 33.2481 84.7255 33.0929 84.5125 32.9721C84.2995 32.8513 84.0465 32.788 83.7595 32.788C83.4715 32.788 83.2185 32.8513 83.0055 32.9721C82.7935 33.0929 82.6205 33.2539 82.4825 33.4437C82.3445 33.6392 82.2465 33.8578 82.1775 34.1108C82.1145 34.3639 82.0795 34.6112 82.0795 34.8642C82.0795 35.123 82.1145 35.3761 82.1775 35.6234C82.2405 35.8707 82.3445 36.095 82.4825 36.2905C82.6205 36.4861 82.7935 36.6471 83.0055 36.7679C83.2185 36.8944 83.4715 36.9519 83.7595 36.9519ZM87.1185 31.9196H88.1015V30.1482H89.4015V31.9196H90.5745V32.8916H89.4015V36.0432C89.4015 36.1813 89.4075 36.2963 89.4185 36.3998C89.4305 36.4976 89.4585 36.5839 89.4995 36.6529C89.5395 36.7219 89.6025 36.7737 89.6885 36.8082C89.7755 36.8427 89.8845 36.8599 90.0335 36.8599C90.1255 36.8599 90.2175 36.8599 90.3095 36.8542C90.4025 36.8484 90.4945 36.8369 90.5865 36.8139V37.8204C90.4425 37.8376 90.2985 37.8491 90.1665 37.8664C90.0285 37.8836 89.8905 37.8894 89.7465 37.8894C89.4015 37.8894 89.1255 37.8549 88.9185 37.7916C88.7115 37.7284 88.5445 37.6306 88.4295 37.5041C88.3085 37.3775 88.2335 37.2223 88.1875 37.0325C88.1475 36.8427 88.1185 36.6241 88.1135 36.3826V32.9031H87.1295V31.9196H87.1185Z" fill="currentColor" />
    <path d="M41.028 29.6707H35.0697L33.2293 24L31.3831 29.6707L25.4248 29.665L30.2501 33.1733L28.404 38.8382L33.2293 35.3357L38.0488 38.8382L36.2084 33.1733L41.028 29.6707Z" fill="#00B67A" />
    <path d="M36.6227 34.4554L36.2086 33.1729L33.2295 35.3354L36.6227 34.4554Z" fill="#005128" />
</svg>
