<svg width="25" height="26" viewBox="0 0 25 26" fill="none" xmlns="http://www.w3.org/2000/svg">
<g clipPath="url(#clip0_27_475)">
<path d="M6.60851 22.2677L7.0172 22.4778C8.72033 23.5282 10.6277 24.0183 12.5351 24.0183C18.5297 24.0183 23.4344 18.9765 23.4344 12.8143C23.4344 9.87333 22.2763 7.00229 20.2327 4.90151C18.1891 2.80073 15.4642 1.61035 12.5351 1.61035C6.54045 1.61035 1.63566 6.65214 1.70383 12.8844C1.70383 14.9851 2.31691 17.0159 3.33869 18.7664L3.61115 19.1867L2.52131 23.3181L6.60851 22.2677Z" fill="#00E676"/>
<path d="M21.3899 3.78134C19.0738 1.33052 15.8722 2.36655e-09 12.6023 1.87901e-09C5.6541 8.43029e-10 0.0681641 5.81205 0.13623 12.8846C0.13623 15.1254 0.749316 17.2962 1.77119 19.2569L-3.86308e-09 25.9093L6.60772 24.1586C8.44697 25.2091 10.4905 25.6992 12.5343 25.6992C19.4145 25.6992 25.0004 19.8871 25.0004 12.8147C25.0004 9.38339 23.7061 6.1622 21.39 3.78134L21.3899 3.78134ZM12.6023 23.5285C10.7631 23.5285 8.92383 23.0384 7.35703 22.058L6.94834 21.8479L2.99736 22.8983L4.01914 18.9069L3.74668 18.4867C0.749316 13.515 2.17988 6.93246 7.08457 3.85131C11.9893 0.770263 18.3245 2.24082 21.3219 7.28261C24.3191 12.3244 22.8886 18.8367 17.984 21.9179C16.4171 22.9682 14.5098 23.5284 12.6023 23.5284L12.6023 23.5285ZM18.597 15.7558L17.8477 15.4057C17.8477 15.4057 16.7578 14.9155 16.0766 14.5653C16.0084 14.5653 15.9403 14.4953 15.8722 14.4953C15.6678 14.4953 15.5315 14.5653 15.3953 14.6354C15.3953 14.6354 15.3272 14.7054 14.3735 15.8258C14.3054 15.9658 14.1691 16.0359 14.0329 16.0359L13.9647 16.0359C13.8967 16.0359 13.7604 15.9658 13.6923 15.8958L13.3517 15.7558C12.6023 15.4057 11.9212 14.9854 11.3762 14.4253C11.2399 14.2852 11.0355 14.1452 10.8993 14.0052C10.4225 13.515 9.94561 12.9547 9.60508 12.3245L9.53691 12.1845C9.46885 12.1144 9.46885 12.0444 9.40068 11.9044C9.40068 11.7643 9.40068 11.6243 9.46885 11.5542C9.46885 11.5542 9.74131 11.2041 9.94561 10.9941C10.0819 10.8539 10.15 10.6439 10.2862 10.5039C10.4225 10.2938 10.4906 10.0137 10.4225 9.80361C10.3544 9.45346 9.53691 7.56279 9.33262 7.14267C9.19629 6.93256 9.06016 6.8626 8.85576 6.79253L8.10645 6.79253C7.97012 6.79253 7.83398 6.86259 7.69766 6.86259L7.62949 6.93256C7.49326 7.00263 7.35703 7.14267 7.2208 7.21264C7.08457 7.35278 7.01641 7.49272 6.88018 7.63286C6.40332 8.26308 6.13086 9.03334 6.13086 9.80361C6.13086 10.3638 6.26709 10.924 6.47148 11.4142L6.53965 11.6243C7.15273 12.9547 7.97012 14.1452 9.06016 15.1955L9.33262 15.4756C9.53691 15.6857 9.74131 15.8258 9.87754 16.0358C11.3081 17.2963 12.943 18.2066 14.7822 18.6968C14.9866 18.7668 15.2591 18.7668 15.4635 18.8369L16.1446 18.8369C16.4853 18.8369 16.8939 18.6968 17.1665 18.5568C17.3708 18.4167 17.507 18.4167 17.6433 18.2767L17.7796 18.1366C17.9158 17.9965 18.0521 17.9265 18.1883 17.7865C18.3245 17.6465 18.4607 17.5064 18.5289 17.3663C18.6651 17.0862 18.7332 16.7361 18.8014 16.386L18.8014 15.8958C18.8014 15.8958 18.7332 15.8258 18.597 15.7558V15.7558Z" fill="white"/>
</g>
<defs>
<clipPath id="clip0_27_475">
<rect width="25" height="26" fill="white"/>
</clipPath>
</defs>
</svg>
