<svg width="51" height="51" viewBox="0 0 51 51" fill="none" xmlns="http://www.w3.org/2000/svg">
    <path opacity="0.4" d="M25.8645 50.268C39.7456 50.268 50.9985 39.0151 50.9985 25.134C50.9985 11.2529 39.7456 0 25.8645 0C11.9833 0 0.730469 11.2529 0.730469 25.134C0.730469 39.0151 11.9833 50.268 25.8645 50.268Z" fill="#74777F" />
    <path d="M33.3133 26.8833C33.2265 26.4886 33.0197 26.1305 32.7212 25.8582C32.4227 25.5858 32.0472 25.4126 31.6463 25.3623C30.3683 25.2236 28.4406 25.1543 25.8633 25.1543C23.2859 25.1543 21.3619 25.2236 20.0913 25.3623C19.6905 25.407 19.3145 25.5787 19.0183 25.8523C18.7172 26.1262 18.5077 26.4862 18.4183 26.8833C18.2055 28.0867 18.115 29.3086 18.1483 30.5303C18.1124 31.752 18.2029 32.9742 18.4183 34.1773C18.5031 34.5762 18.7133 34.9375 19.0183 35.2083C19.3129 35.4796 19.6877 35.6477 20.0863 35.6873C22.0085 35.8604 23.9384 35.9335 25.8683 35.9063C27.7984 35.9335 29.7287 35.8604 31.6513 35.6873C32.0485 35.6482 32.4219 35.48 32.7143 35.2083C33.0159 34.9348 33.2254 34.5746 33.3143 34.1773C33.528 32.974 33.6188 31.752 33.5853 30.5303C33.6211 29.3085 33.5299 28.0863 33.3133 26.8833V26.8833ZM22.5503 27.9363H21.4353V33.8643H20.3993V27.9353H19.2993V26.9563H22.5503V27.9353V27.9363ZM25.3633 33.8643H24.4363V33.3003C24.3135 33.4748 24.1554 33.6216 23.9723 33.7312C23.7892 33.8407 23.5851 33.9106 23.3733 33.9363C23.2441 33.9516 23.1137 33.9216 23.0043 33.8514C22.8948 33.7811 22.8132 33.6751 22.7733 33.5513C22.7077 33.3032 22.6797 33.0467 22.6903 32.7903V28.7173H23.6173V32.5103C23.613 32.6321 23.6164 32.754 23.6273 32.8753C23.6486 33.0213 23.7216 33.0943 23.8463 33.0943C24.0343 33.0943 24.2323 32.9483 24.4403 32.6563V28.7173H25.3673V33.8643H25.3633ZM28.9063 32.3223C28.923 32.6723 28.8914 33.0229 28.8123 33.3643C28.7775 33.5321 28.6839 33.6821 28.5484 33.7871C28.413 33.8921 28.2445 33.9454 28.0733 33.9373C27.879 33.9212 27.6908 33.8612 27.523 33.762C27.3552 33.6627 27.212 33.5268 27.1043 33.3643V33.8643H26.1763V26.9563H27.1043V29.2173C27.2111 29.0549 27.3543 28.9195 27.5225 28.822C27.6906 28.7244 27.8792 28.6674 28.0733 28.6553C28.2458 28.6482 28.4151 28.7031 28.5506 28.8101C28.6862 28.917 28.779 29.0689 28.8123 29.2383C28.892 29.5758 28.9236 29.9229 28.9063 30.2693V32.3223ZM32.4283 31.4683H30.5633V32.3743C30.5633 32.8536 30.7229 33.0933 31.0423 33.0933C31.1471 33.098 31.2495 33.0613 31.3275 32.9911C31.4055 32.921 31.4528 32.823 31.4593 32.7183C31.4783 32.5072 31.4849 32.2952 31.4793 32.0833H32.4283V32.2183C32.4339 32.4185 32.4269 32.6189 32.4073 32.8183C32.3636 33.1389 32.2011 33.4314 31.952 33.6379C31.7029 33.8444 31.3854 33.9498 31.0623 33.9333C30.8458 33.9425 30.6303 33.899 30.4343 33.8065C30.2383 33.714 30.0678 33.5753 29.9373 33.4023C29.7085 33.0426 29.6031 32.6182 29.6373 32.1933V30.3933C29.6041 29.9695 29.7063 29.5462 29.9293 29.1843C30.0627 29.0184 30.2317 28.8846 30.4237 28.7926C30.6157 28.7007 30.8259 28.6529 31.0388 28.6529C31.2517 28.6529 31.4618 28.7007 31.6539 28.7926C31.8459 28.8846 32.0148 29.0184 32.1483 29.1843C32.3641 29.5488 32.4626 29.9709 32.4303 30.3933L32.4283 31.4683Z" fill="white" />
    <path d="M27.5725 29.5C27.483 29.5049 27.3954 29.5276 27.3148 29.567C27.2342 29.6063 27.1624 29.6614 27.1035 29.729V32.865C27.1624 32.9327 27.2342 32.9878 27.3148 33.0271C27.3953 33.0665 27.483 33.0892 27.5725 33.094C27.8432 33.094 27.9788 32.8607 27.9795 32.394V30.2C27.9795 29.7333 27.8438 29.5 27.5725 29.5Z" fill="white" />
    <path d="M31.0334 29.5C30.7214 29.5 30.5645 29.736 30.5645 30.208V30.687H31.5025V30.208C31.5005 29.736 31.3441 29.5 31.0334 29.5Z" fill="white" />
    <path d="M21.9496 21.3933V24.2173H22.9906V21.3933L24.2516 17.2363H23.1886L22.4806 19.9763L21.7406 17.2363H20.6406C20.8346 17.8197 21.0603 18.469 21.3176 19.1843C21.5759 19.9062 21.787 20.6441 21.9496 21.3933V21.3933Z" fill="white" />
    <path d="M25.6453 24.2901C25.8584 24.3002 26.0706 24.2569 26.2627 24.1641C26.4548 24.0714 26.6207 23.9322 26.7453 23.7591C26.9691 23.3902 27.0713 22.9603 27.0373 22.5301V20.7061C27.0707 20.2792 26.9685 19.8526 26.7453 19.4871C26.6143 19.3207 26.4472 19.1862 26.2567 19.0937C26.0661 19.0012 25.8571 18.9531 25.6453 18.9531C25.4335 18.9531 25.2245 19.0012 25.0339 19.0937C24.8434 19.1862 24.6763 19.3207 24.5453 19.4871C24.3226 19.8527 24.2207 20.2793 24.2543 20.7061V22.5291C24.2221 22.959 24.3237 23.3883 24.5453 23.7581C24.6704 23.9308 24.8363 24.0699 25.0283 24.1627C25.2203 24.2556 25.4323 24.2993 25.6453 24.2901V24.2901ZM25.1963 20.5181C25.1963 20.0388 25.346 19.7991 25.6453 19.7991C25.9446 19.7991 26.0937 20.0388 26.0923 20.5181V22.7061C26.0923 23.1928 25.9433 23.4358 25.6453 23.4351C25.3473 23.4344 25.1977 23.1914 25.1963 22.7061V20.5181Z" fill="white" />
    <path d="M28.5107 24.2906C28.7256 24.2666 28.9327 24.1964 29.1179 24.0849C29.3031 23.9734 29.462 23.8232 29.5837 23.6446V24.2176H30.5317V19.0176H29.5837V22.9876C29.3757 23.2862 29.1777 23.4356 28.9897 23.4356C28.8651 23.4356 28.7921 23.3592 28.7707 23.2066C28.7594 23.0853 28.756 22.9633 28.7607 22.8416V19.0186H27.8127V23.1236C27.8022 23.3866 27.8301 23.6497 27.8957 23.9046C27.9388 24.0294 28.0233 24.1358 28.1352 24.206C28.2471 24.2762 28.3796 24.306 28.5107 24.2906V24.2906Z" fill="white" />
</svg>
